<svg width="32" height="32" viewBox="0 0 32 32" fill="none" xmlns="http://www.w3.org/2000/svg">
<rect width="32" height="32" rx="6" fill="black"/>
<path d="M15.9868 11.4944C14.7381 11.4944 3 19.7524 3 20.8379C3 20.8401 3 20.8422 3 20.8443C3 20.8464 3 20.8468 3 20.848C2.99982 20.889 3.00615 20.9298 3.01877 20.9689C3.05918 21.1125 3.17262 21.2297 3.37775 21.2429C3.3899 21.2449 3.40217 21.246 3.41447 21.2463H3.41519C3.43054 21.2459 3.44585 21.2446 3.46104 21.2423C3.46709 21.2415 3.47365 21.2402 3.48011 21.2391C3.49324 21.2369 3.50719 21.2341 3.52206 21.2305L3.53622 21.2272C4.68495 20.9441 10.6326 17.5005 12.9312 17.5005C15.3285 17.5005 21.6947 21.2463 22.4479 21.2463C22.5375 21.2463 22.8629 21.164 22.8629 20.8484C22.8629 20.1493 18.1044 17.0074 15.1434 15.3669C15.4747 15.272 15.7597 15.2196 15.9863 15.2196C18.4183 15.2196 27.5791 21.2463 28.5579 21.2463C28.8527 21.2463 28.973 21.043 28.973 20.8383C28.9738 19.7524 17.2356 11.4944 15.9868 11.4944Z" fill="white"/>
</svg>
