<svg width="117" height="16" viewBox="0 0 117 16" fill="none" xmlns="http://www.w3.org/2000/svg">
<path d="M4.87206 12.9971H9.79305L10.4581 15.0301H14.3911L8.99506 0.970102H5.89806L0.331055 15.0301H4.22606L4.87206 12.9971ZM8.86205 10.1471H5.76506L7.28506 5.2451L8.86205 10.1471Z" fill="#FFFFF7"/>
<path d="M28.3037 9.7671C28.0757 10.2611 27.1637 12.1421 24.9217 12.1421C22.5847 12.1421 21.1407 10.0901 21.1407 7.9621C21.1407 5.9671 22.4897 3.8581 24.9027 3.8581C26.8407 3.8581 27.9047 5.2641 28.3037 6.3091H32.0657C31.6857 4.1051 29.3297 0.704102 24.9217 0.704102C20.3237 0.704102 17.5497 4.3901 17.5497 7.9811C17.5497 11.7811 20.5517 15.2961 24.9597 15.2961C28.3607 15.2961 31.2487 13.0921 32.0657 9.7671H28.3037Z" fill="#FFFFF7"/>
<path d="M39.6554 12.9971H44.5764L45.2414 15.0301H49.1744L43.7784 0.970102H40.6814L35.1144 15.0301H39.0094L39.6554 12.9971ZM43.6454 10.1471H40.5484L42.0684 5.2451L43.6454 10.1471Z" fill="#FFFFF7"/>
<path d="M54.0349 15.0301H58.9559C64.2949 15.0301 66.1949 11.8001 66.1949 7.9621C66.1949 6.4231 65.8719 4.9221 64.9029 3.5921C63.0789 0.970102 60.2669 0.970102 58.6899 0.970102H54.0349V15.0301ZM57.6259 4.1241H59.1839C60.7799 4.1241 61.5019 4.7891 61.9199 5.4161C62.4329 6.2141 62.6039 7.2211 62.6039 8.0191C62.6039 10.0141 61.8439 11.8761 59.1649 11.8761H57.6259V4.1241Z" fill="#FFFFF7"/>
<path d="M71.5564 15.0301H79.5174V11.8761H75.1474V9.4631H79.3844V6.3091H75.1474V4.1241H79.5174V0.970102H71.5564V15.0301Z" fill="#FFFFF7"/>
<path d="M88.3205 15.0301L88.2065 4.5041L91.2465 15.0301H93.6215L96.6615 4.5041L96.5475 15.0301H99.8535V0.970102H95.0275L92.4625 10.0331L89.8215 0.970102H85.0145V15.0301H88.3205Z" fill="#FFFFF7"/>
<path d="M108.917 15.0301H112.508V9.9191L116.669 0.970102H112.812L110.703 6.6131L108.613 0.970102H104.718L108.917 9.9191V15.0301Z" fill="#FFFFF7"/>
</svg>
