<svg width="138" height="16" viewBox="0 0 138 16" fill="none" xmlns="http://www.w3.org/2000/svg">
<path d="M4.88866 12.8639H9.80966L10.4747 14.8969H14.4077L9.01166 0.836914H5.91466L0.347656 14.8969H4.24266L4.88866 12.8639ZM8.87866 10.0139H5.78166L7.30166 5.11191L8.87866 10.0139Z" fill="#FFFFF7"/>
<path d="M19.2681 14.8969H24.1891C29.5281 14.8969 31.4281 11.6669 31.4281 7.82891C31.4281 6.28991 31.1051 4.78891 30.1361 3.45891C28.3121 0.836914 25.5001 0.836914 23.9231 0.836914H19.2681V14.8969ZM22.8591 3.99091H24.4171C26.0131 3.99091 26.7351 4.65591 27.1531 5.28291C27.6661 6.08091 27.8371 7.08791 27.8371 7.88591C27.8371 9.88091 27.0771 11.7429 24.3981 11.7429H22.8591V3.99091Z" fill="#FFFFF7"/>
<path d="M39.5674 14.8969H43.2724L47.9844 0.836914H44.2794L41.4104 10.6979L38.5604 0.836914H34.8744L39.5674 14.8969Z" fill="#FFFFF7"/>
<path d="M52.9753 14.8969H60.9363V11.7429H56.5663V9.32991H60.8033V6.17591H56.5663V3.99091H60.9363V0.836914H52.9753V14.8969Z" fill="#FFFFF7"/>
<path d="M69.5304 0.836914H66.4334V14.8969H69.8724L69.7964 6.42291L75.1734 14.8969H78.2894V0.836914H74.8504L74.9264 9.40591L69.5304 0.836914Z" fill="#FFFFF7"/>
<path d="M85.9614 14.8969H89.5524V3.99091H92.3074V0.836914H83.1874V3.99091H85.9614V14.8969Z" fill="#FFFFF7"/>
<path d="M97.1338 0.836914V9.32991C97.1338 11.4009 97.3808 12.3889 98.5398 13.6619C99.6988 14.9159 101.561 15.1629 102.587 15.1629C104.335 15.1629 105.608 14.5739 106.52 13.6429C107.413 12.7309 107.926 11.6859 107.926 9.32991V0.836914H104.335V9.32991C104.335 9.88091 104.335 10.5649 104.107 11.0969C103.898 11.6099 103.442 12.0089 102.549 12.0089C101.675 12.0089 101.219 11.5719 100.972 11.0209C100.744 10.4699 100.725 9.80491 100.725 9.32991V0.836914H97.1338Z" fill="#FFFFF7"/>
<path d="M113.858 14.8969H117.449V3.99091H118.779C119.273 3.99091 119.843 4.12391 120.242 4.37091C120.717 4.67491 121.078 5.26391 121.078 6.00491C121.078 6.78391 120.717 7.44891 120.28 7.73391C119.805 8.03791 119.026 8.11391 118.114 8.11391H117.525L121.192 14.8969H124.897L121.99 9.72891C122.655 9.44391 123.339 8.96891 123.814 8.22791C124.213 7.60091 124.517 6.76491 124.517 5.68191C124.517 4.14291 123.985 2.75591 122.807 1.84391C122.028 1.23591 120.66 0.836914 118.456 0.836914H113.858V14.8969Z" fill="#FFFFF7"/>
<path d="M129.691 14.8969H137.652V11.7429H133.282V9.32991H137.519V6.17591H133.282V3.99091H137.652V0.836914H129.691V14.8969Z" fill="#FFFFF7"/>
</svg>
