<svg width="66" height="42" viewBox="0 0 66 42" fill="none" xmlns="http://www.w3.org/2000/svg">
<path d="M21.5903 23.4656C21.5903 21.4718 23.2066 19.8555 25.2005 19.8555C26.1232 19.8555 26.963 20.2003 27.6017 20.7698C28.0139 21.1373 28.6461 21.101 29.0136 20.6888C29.3811 20.2766 29.3449 19.6444 28.9326 19.2769C27.9417 18.3935 26.6327 17.8555 25.2005 17.8555C22.1021 17.8555 19.5903 20.3672 19.5903 23.4656C19.5903 26.564 22.1021 29.0757 25.2005 29.0757C26.6327 29.0757 27.9417 28.5377 28.9326 27.6543C29.3449 27.2868 29.3811 26.6547 29.0136 26.2424C28.6461 25.8302 28.0139 25.7939 27.6017 26.1614C26.963 26.7309 26.1232 27.0757 25.2005 27.0757C23.2066 27.0757 21.5903 25.4594 21.5903 23.4656Z" fill="#FF912C"/>
<path fill-rule="evenodd" clip-rule="evenodd" d="M34.9309 17.8555C31.8325 17.8555 29.3208 20.3672 29.3208 23.4656C29.3208 26.564 31.8325 29.0757 34.9309 29.0757C38.0293 29.0757 40.5411 26.564 40.5411 23.4656C40.5411 20.3672 38.0293 17.8555 34.9309 17.8555ZM31.3208 23.4656C31.3208 21.4718 32.9371 19.8555 34.9309 19.8555C36.9248 19.8555 38.5411 21.4718 38.5411 23.4656C38.5411 25.4594 36.9248 27.0757 34.9309 27.0757C32.9371 27.0757 31.3208 25.4594 31.3208 23.4656Z" fill="#FF912C"/>
<path d="M43.5039 24.509C43.4842 24.5714 43.4792 24.6218 43.4789 24.6413C43.4683 25.1935 43.0121 25.6325 42.4599 25.622C41.9077 25.6114 41.4687 25.1553 41.4792 24.6031C41.4869 24.2022 41.6141 23.6342 41.992 23.1414C42.4051 22.6027 43.0658 22.2266 43.955 22.2266C44.5152 22.2266 45.1189 22.4013 45.5767 22.8516C46.0517 23.3187 46.2507 23.9653 46.1967 24.6594C46.1287 25.5344 45.663 26.541 44.7663 27.6747H45.5922C46.1445 27.6747 46.5922 28.1224 46.5922 28.6747C46.5922 29.227 46.1445 29.6747 45.5922 29.6747H42.479C42.07 29.6747 41.7022 29.4256 41.5504 29.0458C41.3987 28.666 41.4935 28.232 41.7899 27.9501C43.6734 26.1589 44.1627 25.0199 44.2028 24.5044C44.2115 24.3921 44.1971 24.3307 44.1886 24.3056C44.1814 24.2839 44.1744 24.2776 44.1744 24.2776C44.1744 24.2776 44.1195 24.2266 43.955 24.2266C43.8022 24.2266 43.719 24.2563 43.678 24.2765C43.6368 24.2968 43.6061 24.3233 43.5791 24.3584C43.5496 24.3969 43.5231 24.4485 43.5039 24.509Z" fill="#FF912C"/>
<path d="M56.4777 27.5898C57.03 27.5898 57.4777 28.0376 57.4777 28.5898V33.5092L58.7697 32.4756C59.201 32.1306 59.8303 32.2006 60.1753 32.6318C60.5203 33.0631 60.4504 33.6924 60.0191 34.0374L57.1024 36.3707C56.7372 36.6629 56.2183 36.6629 55.853 36.3707L52.9364 34.0374C52.5051 33.6924 52.4352 33.0631 52.7802 32.6318C53.1252 32.2006 53.7545 32.1306 54.1858 32.4756L55.4777 33.5092V28.5898C55.4777 28.0376 55.9255 27.5898 56.4777 27.5898Z" fill="#FF912C"/>
<path fill-rule="evenodd" clip-rule="evenodd" d="M43.3109 10.3935C42.1995 7.97261 40.0556 4.97817 36.6992 2.97096C33.3123 0.945515 28.7631 -0.029397 22.9704 1.50882C14.0519 3.87714 10.4555 11.6102 10.6473 16.6695C10.6654 17.1452 10.255 17.6164 9.87311 17.6703C7.79959 17.963 5.34101 18.8166 3.43238 20.481C1.4873 22.1771 0.154397 24.6865 0.378575 28.1245C0.601637 31.5453 2.20265 33.968 4.25369 35.5157C6.27575 37.0416 8.72115 37.7103 10.7024 37.7103H49.2367C50.9139 39.8674 53.5337 41.2552 56.4777 41.2552C61.5403 41.2552 65.6444 37.1512 65.6444 32.0885C65.6444 29.7883 64.7971 27.686 63.3977 26.0765C63.204 25.8142 62.9939 25.5716 62.7702 25.3481C62.0308 24.6089 61.1693 24.1022 60.3242 23.7655C59.8448 23.5436 59.343 23.3619 58.823 23.2247C58.6282 23.0624 58.5148 22.8273 58.524 22.6242C58.6555 19.7321 57.9115 15.4468 53.9034 12.5344C50.2559 9.88409 46.3356 10.192 44.0959 10.7518C43.7779 10.8313 43.4318 10.6567 43.3109 10.3935ZM56.5374 22.9221C56.5241 22.7949 56.5201 22.6651 56.5261 22.5334C56.6406 20.0157 55.9888 16.5219 52.7278 14.1524C49.7412 11.9823 46.5088 12.2102 44.5808 12.6921C43.3664 12.9956 42.0315 12.4002 41.4933 11.2279C40.5111 9.08859 38.6095 6.44369 35.6727 4.68743C32.7664 2.94941 28.775 2.03674 23.4837 3.44183C15.562 5.54544 12.4857 12.3693 12.6459 16.5938C12.6993 18.0026 11.6382 19.441 10.1526 19.6507C8.35124 19.9049 6.289 20.6436 4.74685 21.9884C3.24115 23.3014 2.1933 25.218 2.37434 27.9943C2.55689 30.7939 3.83819 32.6966 5.45839 33.9192C7.10757 35.1637 9.12235 35.7103 10.7024 35.7103H48.0543C47.576 34.5993 47.311 33.3749 47.311 32.0885C47.311 27.0259 51.4151 22.9219 56.4777 22.9219C56.4976 22.9219 56.5175 22.9219 56.5374 22.9221ZM56.4777 24.9219C52.5197 24.9219 49.311 28.1305 49.311 32.0885C49.311 36.0466 52.5197 39.2552 56.4777 39.2552C60.4357 39.2552 63.6444 36.0466 63.6444 32.0885C63.6444 28.1305 60.4357 24.9219 56.4777 24.9219Z" fill="#FF912C"/>
</svg>
