<svg width="80" height="150" viewBox="0 0 80 150" fill="none" xmlns="http://www.w3.org/2000/svg">
<path d="M69.1289 6.37305L69.8017 7.24536L69.835 6.98784L69.644 6.43954L69.1289 6.37305Z" fill="#A2A2A2"/>
<path d="M69.3535 6.66406L69.5778 6.95483L69.3535 6.66406Z" fill="#F9F9F9"/>
<path d="M69.6113 6.69727L69.8356 6.98804L69.6113 6.69727Z" fill="#606060"/>
<path d="M69.0635 6.88867L69.2878 7.17944L69.0635 6.88867ZM69.836 6.98841L70.2846 7.56995L69.836 6.98841ZM69.2878 7.17944L69.6366 8.53356L69.8941 8.5668L69.2878 7.17944Z" fill="#606060"/>
<path d="M69.5445 7.21209C70.1178 10.0315 71.0914 12.7518 71.6505 15.6003C75.2061 33.79 75.7027 57.726 58.3772 69.376C55.4357 71.3526 52.0341 72.9189 48.6304 73.8933C50.1225 66.797 52.2137 60.0294 52.6543 52.6821C52.9439 47.884 52.3446 43.1772 50.9836 38.5901C49.6653 34.1594 47.2034 29.8868 43.4073 27.1475C37.24 22.6974 28.3615 24.6269 23.7329 30.4038C12.4091 44.5409 17.4451 73.0849 36.3735 77.5734C38.7842 78.1465 40.834 78.5944 43.3633 78.1878C42.1473 83.9557 39.0689 89.8733 36.4155 95.0944C28.4321 110.796 17.7199 126.036 4.50592 137.84L4.95745 124.284L5.10549 116.972L4.84796 116.939C4.02549 122.417 2.66572 127.758 1.94759 133.32C1.61246 135.916 0.940357 138.77 2.50089 141.142C3.69327 142.958 7.79019 141.725 9.53524 141.471C14.7897 140.702 20.7322 139.45 25.54 137.152C27.2868 136.317 29.2525 135.652 30.1591 133.821C26.0643 133.821 22.0139 135.83 18.2087 137.156C14.1813 138.56 10.0075 139.618 5.94287 140.905C11.9537 134.845 18.0609 129.012 23.248 122.194C24.7332 120.242 27.6221 117.638 28.1085 115.229C30.654 113.824 32.5875 109.029 34.0593 106.572C37.1258 101.457 40.1615 96.154 42.4425 90.6335C43.9968 86.8677 45.008 82.118 47.1733 78.6902C48.3616 76.8067 52.7023 76.3015 54.7116 75.4612C58.9368 73.7001 62.6453 70.8119 65.7172 67.4593C76.7349 55.4296 76.7511 37.8641 74.4459 22.7645C73.8379 18.7949 73.2832 14.2894 71.5817 10.6169C71.045 9.46055 70.5707 7.98341 69.5445 7.21209Z" fill="#F9F9F9"/>
<path d="M69.5107 7.46973L69.735 7.7605L69.5107 7.46973Z" fill="#A2A2A2"/>
<path d="M70.3467 7.75195L70.4121 7.93477L70.3467 7.75195Z" fill="#2F2F2F"/>
<path d="M70.4414 8.37598L70.6657 8.66675L70.4414 8.37598Z" fill="#A2A2A2"/>
<path d="M70.7617 8.5918L70.8272 8.77462L70.7617 8.5918Z" fill="#606060"/>
<path d="M69.8604 8.82422L70.0846 9.11499L69.8604 8.82422ZM70.6329 8.92396L71.015 10.0205L71.2725 10.0538L70.6329 8.92396Z" fill="#A2A2A2"/>
<path d="M71.1143 9.24805L71.3385 9.53882L71.1143 9.24805Z" fill="#2F2F2F"/>
<path d="M70.2754 9.66309L70.6242 11.0172L70.8817 11.0504L70.2754 9.66309Z" fill="#A2A2A2"/>
<path d="M71.6875 10.8926L71.9118 11.1834L71.6875 10.8926Z" fill="#A2A2A2"/>
<path d="M70.624 11.0176L70.7486 12.0809L71.0061 12.1142L70.624 11.0176ZM71.9744 11.3665L72.0399 11.5494L71.9744 11.3665Z" fill="#606060"/>
<path d="M72.166 11.915L72.2315 12.0979L72.166 11.915Z" fill="#606060"/>
<path d="M72.2939 12.2803L72.5182 12.571L72.2939 12.2803Z" fill="#606060"/>
<path d="M72.4854 12.8281L72.7096 13.1189L72.4854 12.8281Z" fill="#2F2F2F"/>
<path d="M71.0645 13.6924L71.2887 13.9832L71.0645 13.6924Z" fill="#606060"/>
<path d="M72.6094 13.8916L72.8337 14.1824L72.6094 13.8916Z" fill="#A2A2A2"/>
<path d="M72.834 14.1826L73.0583 14.4734L72.834 14.1826Z" fill="#2F2F2F"/>
<path d="M72.7998 14.4404L73.0241 14.7312L72.7998 14.4404Z" fill="#606060"/>
<path d="M71.2217 14.498L71.446 14.7888L71.2217 14.498Z" fill="#A2A2A2"/>
<path d="M73.0879 14.9141L73.1533 15.0969L73.0879 14.9141Z" fill="#2F2F2F"/>
<path d="M71.4463 14.7891L71.5376 16.1099L71.7951 16.1432L71.4463 14.7891Z" fill="#A2A2A2"/>
<path d="M73.1826 15.5361L73.0829 16.3087L73.3404 16.342L73.1826 15.5361Z" fill="#606060"/>
<path d="M71.3467 15.5615L71.571 15.8523L71.3467 15.5615Z" fill="#606060"/>
<path d="M71.5381 16.1094L71.7624 16.4001L71.5381 16.1094Z" fill="#606060"/>
<path d="M73.083 16.3096L73.5896 18.4695L73.8471 18.5028L73.083 16.3096Z" fill="#A2A2A2"/>
<path d="M73.3398 16.3428L73.5641 16.6335L73.3398 16.3428Z" fill="#2F2F2F"/>
<path d="M71.5039 16.3672L71.7282 16.658L71.5039 16.3672Z" fill="#A2A2A2"/>
<path d="M71.6953 16.916L71.5956 17.6886L71.8531 17.7218L71.6953 16.916ZM73.498 17.1487L73.7223 17.4395L73.498 17.1487Z" fill="#606060"/>
<path d="M71.8525 17.7217L72.0768 18.0125L71.8525 17.7217Z" fill="#A2A2A2"/>
<path d="M73.6562 17.9541L73.8805 18.2449L73.6562 17.9541Z" fill="#2F2F2F"/>
<path d="M73.7803 19.0176L74.0046 19.3084L73.7803 19.0176Z" fill="#A2A2A2"/>
<path d="M74.0381 19.0508L74.1626 20.1141L74.4201 20.1474L74.0381 19.0508Z" fill="#2F2F2F"/>
<path d="M72.1016 19.8477L72.5417 22.5226L72.7992 22.5559L72.1016 19.8477Z" fill="#A2A2A2"/>
<path d="M74.1631 20.1143L74.2211 21.6926L74.4787 21.7259L74.1631 20.1143Z" fill="#606060"/>
<path d="M74.0625 20.8867L74.2868 21.1775L74.0625 20.8867Z" fill="#A2A2A2"/>
<path d="M74.2207 21.6924L74.445 21.9832L74.2207 21.6924Z" fill="#A2A2A2"/>
<path d="M74.4775 21.7256L74.7018 22.0164L74.4775 21.7256Z" fill="#2F2F2F"/>
<path d="M74.6025 22.7891L74.8268 23.0798L74.6025 22.7891Z" fill="#2F2F2F"/>
<path d="M72.6973 24.0264L72.7627 24.2092L72.6973 24.0264Z" fill="#2F2F2F"/>
<path d="M72.5664 24.3594L72.7907 24.6501L72.5664 24.3594Z" fill="#606060"/>
<path d="M74.8841 24.6586L75.1997 26.2702L75.4572 26.3035L74.8841 24.6586ZM72.5332 24.6169L72.6244 25.9378L72.882 25.971L72.5332 24.6169Z" fill="#2F2F2F"/>
<path d="M72.792 24.6494L73.0163 24.9402L72.792 24.6494ZM74.8522 24.9154L75.0765 25.2062L74.8522 24.9154Z" fill="#A2A2A2"/>
<path d="M74.9756 25.9795L75.1999 26.2703L74.9756 25.9795Z" fill="#A2A2A2"/>
<path d="M72.8828 25.9707L73.1071 26.2615L72.8828 25.9707Z" fill="#2F2F2F"/>
<path d="M75.2012 26.2695L75.1014 27.0421L75.359 27.0754L75.2012 26.2695Z" fill="#606060"/>
<path d="M75.3574 27.0752L75.5817 27.366L75.3574 27.0752Z" fill="#2F2F2F"/>
<path d="M75.3252 27.333L75.5495 27.6238L75.3252 27.333Z" fill="#606060"/>
<path d="M73.2314 27.3242L73.3808 30.2235L73.6383 30.2567L73.2314 27.3242ZM75.2916 27.5902L75.2832 29.6836L75.5407 29.7169L75.2916 27.5902Z" fill="#A2A2A2"/>
<path d="M73.0645 28.6123L73.2887 28.9031L73.0645 28.6123Z" fill="#2F2F2F"/>
<path d="M36.6885 24.4395L36.9128 24.7302L36.6885 24.4395Z" fill="#606060"/>
<path d="M37.1071 24.5809L37.2659 24.6888L37.1071 24.5809ZM37.9757 24.6058L38.2 24.8966L37.9757 24.6058Z" fill="#A2A2A2"/>
<path d="M38.2334 24.6387L38.4577 24.9294L38.2334 24.6387Z" fill="#606060"/>
<path d="M34.5938 24.4316L34.818 24.7224L34.5938 24.4316ZM35.1088 24.4981L35.0756 24.7557L36.6207 24.9551L35.1088 24.4981ZM38.6181 25.0384L38.7769 25.1463L38.6181 25.0384ZM39.2292 25.0301L39.1959 25.2876L41.2229 25.8111L39.2292 25.0301Z" fill="#A2A2A2"/>
<path d="M40.2598 25.1621L40.484 25.4529L40.2598 25.1621Z" fill="#2F2F2F"/>
<path d="M75.541 29.7168L75.7653 30.0076L75.541 29.7168Z" fill="#A2A2A2"/>
<path d="M33.2734 24.5225L33.2402 24.78L34.2703 24.913L33.2734 24.5225Z" fill="#A2A2A2"/>
<path d="M41.2568 25.5527L41.4811 25.8435L41.2568 25.5527Z" fill="#606060"/>
<path d="M32.4678 24.6797L32.6921 24.9705L32.4678 24.6797Z" fill="#A2A2A2"/>
<path d="M32.7256 24.7139L32.9499 25.0046L32.7256 24.7139Z" fill="#606060"/>
<path d="M32.9834 24.7471L33.2077 25.0378L32.9834 24.7471Z" fill="#A2A2A2"/>
<path d="M41.6436 25.9521L41.8024 26.0601L41.6436 25.9521Z" fill="#606060"/>
<path d="M41.9961 25.9102L42.2204 26.2009L41.9961 25.9102Z" fill="#2F2F2F"/>
<path d="M31.4044 24.8048L30.5986 24.9626L30.5653 25.2201L31.6287 25.0956L31.4044 24.8048Z" fill="#2F2F2F"/>
<path d="M31.8232 24.9463L31.9821 25.0542L31.8232 24.9463Z" fill="#606060"/>
<path d="M32.1768 24.9043L32.401 25.1951L32.1768 24.9043ZM41.9627 26.1677L42.1869 26.4585L41.9627 26.1677Z" fill="#A2A2A2"/>
<path d="M42.2197 26.2012L42.444 26.4919L42.2197 26.2012Z" fill="#606060"/>
<path d="M42.4785 26.2344L42.4453 26.4919L43.1846 26.8492L42.4785 26.2344Z" fill="#2F2F2F"/>
<path d="M73.3809 30.2236L73.1814 31.7688L73.4389 31.802L73.3809 30.2236Z" fill="#606060"/>
<path d="M31.3711 25.0625L31.5954 25.3533L31.3711 25.0625Z" fill="#606060"/>
<path d="M42.4453 26.4922L42.6696 26.783L42.4453 26.4922Z" fill="#A2A2A2"/>
<path d="M42.7021 26.5254L42.9264 26.8162L42.7021 26.5254Z" fill="#606060"/>
<path d="M30.5654 25.2197L30.7897 25.5105L30.5654 25.2197Z" fill="#606060"/>
<path d="M30.8232 25.2529L31.0475 25.5437L30.8232 25.2529Z" fill="#A2A2A2"/>
<path d="M43.1836 26.8486L43.4079 27.1394L43.1836 26.8486ZM75.6316 31.0378L75.8559 31.3285L75.6316 31.0378Z" fill="#606060"/>
<path d="M30.0176 25.4111L30.2419 25.7019L30.0176 25.4111Z" fill="#606060"/>
<path d="M30.2744 25.4443L30.4987 25.7351L30.2744 25.4443Z" fill="#A2A2A2"/>
<path d="M29.4688 25.6016L29.693 25.8923L29.4688 25.6016Z" fill="#2F2F2F"/>
<path d="M29.7266 25.6357L29.9508 25.9265L29.7266 25.6357ZM43.8904 27.4643L44.3389 28.0459L43.8904 27.4643Z" fill="#A2A2A2"/>
<path d="M44.1484 27.4971L44.3727 27.7878L44.1484 27.4971Z" fill="#606060"/>
<path d="M28.921 25.7931L28.0819 26.2084L28.0487 26.4659L29.1453 26.0839L28.921 25.7931Z" fill="#2F2F2F"/>
<path d="M29.3389 25.9346L29.4977 26.0425L29.3389 25.9346Z" fill="#A2A2A2"/>
<path d="M44.3721 27.7881L44.5963 28.0789L44.3721 27.7881Z" fill="#606060"/>
<path d="M28.8867 26.0508L29.111 26.3416L28.8867 26.0508ZM44.5957 28.0788L44.82 28.3696L44.5957 28.0788Z" fill="#A2A2A2"/>
<path d="M44.8545 28.1123L45.0788 28.4031L44.8545 28.1123Z" fill="#606060"/>
<path d="M73.1816 31.7695L73.4059 32.0603L73.1816 31.7695Z" fill="#2F2F2F"/>
<path d="M73.4385 31.8027L73.6628 32.0935L73.4385 31.8027Z" fill="#A2A2A2"/>
<path d="M75.7568 32.1016L76.1721 32.9406L75.7568 32.1016Z" fill="#2F2F2F"/>
<path d="M28.3389 26.2412L28.5631 26.532L28.3389 26.2412Z" fill="#606060"/>
<path d="M28.5967 26.2744L28.821 26.5652L28.5967 26.2744Z" fill="#A2A2A2"/>
<path d="M27.791 26.4326L28.0153 26.7234L27.791 26.4326Z" fill="#2F2F2F"/>
<path d="M45.3018 28.6934L45.526 28.9841L45.3018 28.6934Z" fill="#606060"/>
<path d="M73.373 32.3174L73.1736 33.8625L73.4311 33.8958L73.373 32.3174Z" fill="#2F2F2F"/>
<path d="M75.6895 32.6172L75.9137 32.908L75.6895 32.6172Z" fill="#A2A2A2"/>
<path d="M45.5273 28.9844L45.7516 29.2751L45.5273 28.9844Z" fill="#A2A2A2"/>
<path d="M34.6778 27.8449L33.872 28.0026L33.8388 28.2602L34.9021 28.1356L34.6778 27.8449Z" fill="#606060"/>
<path d="M34.9355 27.8789L34.9023 28.1364L39.247 28.9592L34.9355 27.8789Z" fill="#2F2F2F"/>
<path d="M39.0547 28.4111L39.279 28.7019L39.0547 28.4111Z" fill="#606060"/>
<path d="M46.0078 29.3086L46.2321 29.5994L46.0078 29.3086Z" fill="#A2A2A2"/>
<path d="M27.1758 27.1387L27.4001 27.4294L27.1758 27.1387ZM33.6139 27.9698L33.8382 28.2606L33.6139 27.9698Z" fill="#A2A2A2"/>
<path d="M44.6011 74.6824C45.7965 67.7756 48.3242 61.3785 49.061 54.3129C49.7262 47.9228 49.1 40.3626 45.7014 34.7666C41.6142 28.0357 33.6329 25.9761 27.5156 31.5223C19.6757 38.6288 20.4272 52.8652 23.9177 61.8249C25.1271 64.929 26.8835 68.3186 29.4761 70.5043C33.9101 74.2447 39.2073 74.2191 44.6011 74.6824Z" fill="#010101"/>
<path d="M39.2793 28.7012L39.2461 28.9587L40.7579 29.4157L40.7912 29.1582L39.2793 28.7012Z" fill="#606060"/>
<path d="M40.0518 28.8008L40.276 29.0916L40.0518 28.8008ZM46.2323 29.5987L46.4566 29.8895L46.2323 29.5987Z" fill="#A2A2A2"/>
<path d="M75.9111 33.6055L75.9766 33.7883L75.9111 33.6055Z" fill="#2F2F2F"/>
<path d="M26.3701 27.2969L26.5944 27.5876L26.3701 27.2969Z" fill="#2F2F2F"/>
<path d="M26.8848 27.3633L27.109 27.6541L26.8848 27.3633ZM32.8078 28.128L33.0321 28.4187L32.8078 28.128Z" fill="#A2A2A2"/>
<path d="M33.2275 28.2695L33.3864 28.3775L33.2275 28.2695Z" fill="#606060"/>
<path d="M33.5811 28.2275L33.8053 28.5183L33.5811 28.2275Z" fill="#2F2F2F"/>
<path d="M40.791 29.1582L41.4971 29.773L41.5303 29.5155L40.791 29.1582ZM46.4565 29.8896L46.6808 30.1804L46.4565 29.8896Z" fill="#A2A2A2"/>
<path d="M32.4209 28.4268L32.5797 28.5347L32.4209 28.4268Z" fill="#A2A2A2"/>
<path d="M40.7578 29.416L40.9821 29.7068L40.7578 29.416Z" fill="#2F2F2F"/>
<path d="M46.6807 30.1807L47.1292 30.7622L46.6807 30.1807Z" fill="#A2A2A2"/>
<path d="M46.9395 30.2139L47.1637 30.5046L46.9395 30.2139Z" fill="#2F2F2F"/>
<path d="M73.4639 33.6387L73.6881 33.9294L73.4639 33.6387Z" fill="#A2A2A2"/>
<path d="M75.8447 34.1201L75.9102 34.3029L75.8447 34.1201Z" fill="#606060"/>
<path d="M26.0459 27.7783L26.2702 28.0691L26.0459 27.7783Z" fill="#606060"/>
<path d="M31.7109 28.5098L31.9352 28.8005L31.7109 28.5098Z" fill="#A2A2A2"/>
<path d="M31.9688 28.543L32.193 28.8337L31.9688 28.543Z" fill="#606060"/>
<path d="M41.4971 29.7734L41.4638 30.031L42.2031 30.3882L41.4971 29.7734Z" fill="#A2A2A2"/>
<path d="M73.4307 33.8955L73.6549 34.1863L73.4307 33.8955Z" fill="#606060"/>
<path d="M25.7549 28.0029L25.9792 28.2937L25.7549 28.0029Z" fill="#2F2F2F"/>
<path d="M31.4209 28.7344L31.6452 29.0251L31.4209 28.7344Z" fill="#606060"/>
<path d="M41.7217 30.0635L41.946 30.3542L41.7217 30.0635Z" fill="#2F2F2F"/>
<path d="M47.1299 30.7617L47.5784 31.3433L47.1299 30.7617Z" fill="#A2A2A2"/>
<path d="M47.3867 30.7949L47.611 31.0857L47.3867 30.7949ZM73.3966 34.1529L73.6209 34.4436L73.3966 34.1529Z" fill="#2F2F2F"/>
<path d="M25.4639 28.2275L25.6881 28.5183L25.4639 28.2275ZM31.0334 29.0338L31.1922 29.1417L31.0334 29.0338Z" fill="#2F2F2F"/>
<path d="M42.2041 30.3877L42.4284 30.6785L42.2041 30.3877Z" fill="#606060"/>
<path d="M25.4316 28.4844L25.6559 28.7751L25.4316 28.4844ZM30.3246 29.1161L30.5489 29.4068L30.3246 29.1161Z" fill="#A2A2A2"/>
<path d="M30.582 29.1494L30.8063 29.4402L30.582 29.1494ZM42.4281 30.6788L42.6524 30.9695L42.4281 30.6788Z" fill="#2F2F2F"/>
<path d="M42.6846 30.7119L42.9088 31.0027L42.6846 30.7119Z" fill="#606060"/>
<path d="M24.1104 28.5762L24.3346 28.8669L24.1104 28.5762Z" fill="#2F2F2F"/>
<path d="M25.1406 28.709L25.3649 28.9998L25.1406 28.709ZM29.7761 29.3074L29.1613 30.0135L29.7761 29.3074Z" fill="#A2A2A2"/>
<path d="M29.7099 29.8217L30.5157 29.6639L29.7099 29.8217ZM42.9101 31.0022L43.1344 31.293L42.9101 31.0022Z" fill="#606060"/>
<path d="M47.8027 31.6338L48.027 31.9246L47.8027 31.6338Z" fill="#A2A2A2"/>
<path d="M24.8506 28.9326L25.0749 29.2234L24.8506 28.9326Z" fill="#A2A2A2"/>
<path d="M30 29.5977L30.2243 29.8884L30 29.5977Z" fill="#2F2F2F"/>
<path d="M43.1338 31.2939L43.8066 32.1663L43.1338 31.2939Z" fill="#606060"/>
<path d="M43.3906 31.3271L43.6149 31.6179L43.3906 31.3271Z" fill="#A2A2A2"/>
<path d="M48.0273 31.9258L48.2516 32.2166L48.0273 31.9258Z" fill="#606060"/>
<path d="M29.4521 29.7891L29.6764 30.0798L29.4521 29.7891Z" fill="#2F2F2F"/>
<path d="M43.6162 31.6172L43.8405 31.908L43.6162 31.6172ZM47.9941 32.1824L48.2184 32.4732L47.9941 32.1824Z" fill="#A2A2A2"/>
<path d="M24.2686 29.3818L24.4928 29.6726L24.2686 29.3818Z" fill="#2F2F2F"/>
<path d="M43.8398 31.9082L44.2884 32.4897L43.8398 31.9082Z" fill="#A2A2A2"/>
<path d="M48.2178 32.4736L48.4421 32.7644L48.2178 32.4736Z" fill="#606060"/>
<path d="M43.8066 32.166L44.0309 32.4568L43.8066 32.166Z" fill="#2F2F2F"/>
<path d="M48.4424 32.7646L48.6667 33.0554L48.4424 32.7646Z" fill="#606060"/>
<path d="M73.165 35.9561L73.3893 36.2468L73.165 35.9561Z" fill="#2F2F2F"/>
<path d="M44.2891 32.4893L44.5133 32.78L44.2891 32.4893ZM48.667 33.0545L48.8912 33.3452L48.667 33.0545Z" fill="#606060"/>
<path d="M73.3887 36.2471L73.6129 36.5378L73.3887 36.2471Z" fill="#A2A2A2"/>
<path d="M75.9639 36.5791L76.1881 36.8699L75.9639 36.5791Z" fill="#606060"/>
<path d="M28.2891 30.6855L28.5133 30.9763L28.2891 30.6855Z" fill="#2F2F2F"/>
<path d="M44.5127 32.7803L44.737 33.071L44.5127 32.7803Z" fill="#A2A2A2"/>
<path d="M48.8906 33.3457L49.1149 33.6365L48.8906 33.3457ZM73.3554 36.5042L73.5797 36.7949L73.3554 36.5042Z" fill="#606060"/>
<path d="M75.9307 36.8369L73.9691 52.0308L74.2266 52.0641C74.8243 47.5359 77.1775 41.3548 75.9307 36.8369Z" fill="#A2A2A2"/>
<path d="M23.6201 30.3447L23.8444 30.6355L23.6201 30.3447Z" fill="#A2A2A2"/>
<path d="M27.998 30.9102L28.2223 31.2009L27.998 30.9102Z" fill="#2F2F2F"/>
<path d="M23.3291 30.5693L23.5534 30.8601L23.3291 30.5693Z" fill="#A2A2A2"/>
<path d="M27.707 31.1348L27.9313 31.4255L27.707 31.1348Z" fill="#2F2F2F"/>
<path d="M44.9609 33.3623L45.4095 33.9438L44.9609 33.3623Z" fill="#A2A2A2"/>
<path d="M49.082 33.8936L49.3063 34.1843L49.082 33.8936Z" fill="#606060"/>
<path d="M27.416 31.3584L27.6403 31.6492L27.416 31.3584Z" fill="#2F2F2F"/>
<path d="M45.1533 33.9102L45.3776 34.2009L45.1533 33.9102Z" fill="#606060"/>
<path d="M49.5928 34.6582L49.6582 34.841L49.5928 34.6582Z" fill="#2F2F2F"/>
<path d="M22.7776 31.4579L22.8431 31.6407L22.7776 31.4579ZM26.8352 31.8071L26.2204 32.5132L26.8352 31.8071Z" fill="#A2A2A2"/>
<path d="M45.377 34.2012L45.6012 34.4919L45.377 34.2012Z" fill="#606060"/>
<path d="M49.4639 34.9912L49.9124 35.5728L49.4639 34.9912Z" fill="#A2A2A2"/>
<path d="M49.7207 35.0244L49.945 35.3152L49.7207 35.0244Z" fill="#606060"/>
<path d="M22.3906 31.7568L22.6149 32.0476L22.3906 31.7568Z" fill="#606060"/>
<path d="M26.5107 32.2891L26.735 32.5798L26.5107 32.2891Z" fill="#2F2F2F"/>
<path d="M45.8252 34.7832L46.0495 35.074L45.8252 34.7832ZM50.0084 35.4979L50.0738 35.6807L50.0084 35.4979Z" fill="#606060"/>
<path d="M22.4199 32.1973L22.4854 32.3801L22.4199 32.1973Z" fill="#A2A2A2"/>
<path d="M26.2197 32.5137L26.444 32.8044L26.2197 32.5137Z" fill="#606060"/>
<path d="M45.792 35.04L46.0163 35.3308L45.792 35.04Z" fill="#2F2F2F"/>
<path d="M46.0498 35.0732L46.2741 35.364L46.0498 35.0732Z" fill="#A2A2A2"/>
<path d="M22.0664 32.2393L22.2907 32.53L22.0664 32.2393Z" fill="#606060"/>
<path d="M25.9294 32.7373L25.6054 33.2191L25.9294 32.7373Z" fill="#A2A2A2"/>
<path d="M26.1875 32.7705L26.4118 33.0613L26.1875 32.7705Z" fill="#2F2F2F"/>
<path d="M46.0156 35.3311L46.2399 35.6218L46.0156 35.3311Z" fill="#606060"/>
<path d="M49.8789 35.8301L50.261 36.9267L50.5185 36.9599L49.8789 35.8301Z" fill="#A2A2A2"/>
<path d="M50.1367 35.8633L50.361 36.1541L50.1367 35.8633ZM75.8891 39.188L76.1134 39.4787L75.8891 39.188Z" fill="#2F2F2F"/>
<path d="M50.3281 36.4111L50.5524 36.7019L50.3281 36.4111Z" fill="#2F2F2F"/>
<path d="M46.3975 36.4277L46.6217 36.7185L46.3975 36.4277ZM50.5178 36.9597L50.7421 37.2505L50.5178 36.9597Z" fill="#2F2F2F"/>
<path d="M25.248 33.959L25.4723 34.2498L25.248 33.959ZM46.6225 36.7185L46.7803 37.5243L47.0378 37.5575L46.6225 36.7185Z" fill="#2F2F2F"/>
<path d="M21.0938 33.6846L21.318 33.9753L21.0938 33.6846Z" fill="#2F2F2F"/>
<path d="M21.3525 33.7178L21.5768 34.0085L21.3525 33.7178ZM24.9579 34.1832L25.1822 34.474L24.9579 34.1832Z" fill="#A2A2A2"/>
<path d="M50.71 37.5078L50.9342 37.7986L50.71 37.5078Z" fill="#606060"/>
<path d="M21.0612 33.9414L20.6375 35.1958L20.895 35.2291L21.0612 33.9414Z" fill="#606060"/>
<path d="M47.0713 37.2998L47.2956 37.5906L47.0713 37.2998ZM50.6766 37.7653L50.9009 38.056L50.6766 37.7653Z" fill="#A2A2A2"/>
<path d="M24.6328 34.665L24.8571 34.9558L24.6328 34.665Z" fill="#A2A2A2"/>
<path d="M20.9951 34.457L21.2194 34.7478L20.9951 34.457ZM24.3429 34.8892L23.9192 36.1436L24.1767 36.1769L24.3429 34.8892Z" fill="#A2A2A2"/>
<path d="M47.2617 37.8486L47.486 38.1394L47.2617 37.8486Z" fill="#606060"/>
<path d="M50.8682 38.3135L51.0924 38.6042L50.8682 38.3135Z" fill="#A2A2A2"/>
<path d="M51.125 38.3467L51.3493 38.6375L51.125 38.3467ZM73.0145 41.1727L73.2388 41.4634L73.0145 41.1727Z" fill="#2F2F2F"/>
<path d="M51.0918 38.6045L51.5071 39.4436L51.0918 38.6045Z" fill="#606060"/>
<path d="M20.3799 35.1631L20.6042 35.4539L20.3799 35.1631Z" fill="#2F2F2F"/>
<path d="M20.6367 35.1963L20.861 35.4871L20.6367 35.1963Z" fill="#A2A2A2"/>
<path d="M24.2432 35.6621L24.4674 35.9529L24.2432 35.6621Z" fill="#2F2F2F"/>
<path d="M20.3467 35.4209L20.571 35.7117L20.3467 35.4209ZM47.6442 38.9451L47.8685 39.2358L47.6442 38.9451Z" fill="#606060"/>
<path d="M51.25 39.4102L51.3745 40.4735L51.6321 40.5067L51.25 39.4102Z" fill="#A2A2A2"/>
<path d="M23.9824 36.3262L24.0479 36.509L23.9824 36.3262Z" fill="#606060"/>
<path d="M47.6113 39.2021L47.8356 39.4929L47.6113 39.2021Z" fill="#2F2F2F"/>
<path d="M47.8691 39.2354L48.0934 39.5261L47.8691 39.2354Z" fill="#A2A2A2"/>
<path d="M51.4736 39.7012L51.6979 39.9919L51.4736 39.7012Z" fill="#2F2F2F"/>
<path d="M47.835 39.4932L48.2503 40.3322L47.835 39.4932Z" fill="#606060"/>
<path d="M23.5947 36.625L23.495 37.3976L23.7525 37.4308L23.5947 36.625Z" fill="#606060"/>
<path d="M19.9567 36.417L19.4997 37.9289L19.7573 37.9622L19.9567 36.417Z" fill="#A2A2A2"/>
<path d="M47.7686 40.0078L47.9928 40.2986L47.7686 40.0078Z" fill="#2F2F2F"/>
<path d="M51.6318 40.5068L51.8561 40.7976L51.6318 40.5068Z" fill="#606060"/>
<path d="M23.2373 37.3643L23.4616 37.655L23.2373 37.3643Z" fill="#A2A2A2"/>
<path d="M23.4951 37.3975L23.7194 37.6882L23.4951 37.3975Z" fill="#2F2F2F"/>
<path d="M48.2178 40.5898L48.4421 40.8806L48.2178 40.5898Z" fill="#A2A2A2"/>
<path d="M72.6484 44.0059L72.8727 44.2966L72.6484 44.0059Z" fill="#2F2F2F"/>
<path d="M19.5664 37.4141L19.7907 37.7048L19.5664 37.4141ZM23.1717 37.8795L23.0388 38.9096L23.2963 38.9429L23.1717 37.8795ZM52.0144 41.6032L51.9147 42.3758L52.1722 42.409L52.0144 41.6032Z" fill="#2F2F2F"/>
<path d="M72.6152 44.2637L72.8395 44.5544L72.6152 44.2637Z" fill="#606060"/>
<path d="M48.375 41.3955L48.5993 41.6863L48.375 41.3955Z" fill="#A2A2A2"/>
<path d="M52.1719 42.4092L52.2964 43.4725L52.5539 43.5058L52.1719 42.4092Z" fill="#2F2F2F"/>
<path d="M22.7803 38.877L23.0046 39.1677L22.7803 38.877Z" fill="#606060"/>
<path d="M19.1426 38.6689L19.3669 38.9597L19.1426 38.6689Z" fill="#2F2F2F"/>
<path d="M48.5 42.459L48.7243 42.7498L48.5 42.459Z" fill="#606060"/>
<path d="M48.7236 42.75L48.7817 44.3284L49.0392 44.3616L48.7236 42.75ZM52.0714 43.1822L52.2957 43.473L52.0714 43.1822Z" fill="#A2A2A2"/>
<path d="M18.7852 39.4082L18.4527 41.9834L18.7102 42.0167L18.7852 39.4082ZM22.648 39.9069L22.8723 40.1977L22.648 39.9069Z" fill="#2F2F2F"/>
<path d="M22.3232 40.3887L22.5475 40.6794L22.3232 40.3887ZM52.196 44.2453L52.4203 44.5361L52.196 44.2453Z" fill="#A2A2A2"/>
<path d="M52.4541 44.2783L52.6784 44.5691L52.4541 44.2783Z" fill="#2F2F2F"/>
<path d="M52.4209 44.5361L52.6452 44.8269L52.4209 44.5361Z" fill="#606060"/>
<path d="M48.7822 44.3281L49.0065 44.6189L48.7822 44.3281Z" fill="#606060"/>
<path d="M52.3877 44.793L52.5703 47.4347L52.8278 47.468L52.3877 44.793Z" fill="#A2A2A2"/>
<path d="M48.749 44.5859L48.9733 44.8767L48.749 44.5859Z" fill="#2F2F2F"/>
<path d="M49.0068 44.6182L49.2311 44.9089L49.0068 44.6182Z" fill="#A2A2A2"/>
<path d="M52.5449 45.5996L52.7692 45.8904L52.5449 45.5996Z" fill="#606060"/>
<path d="M48.874 45.6484L49.1231 47.7751L49.3806 47.8084L48.874 45.6484Z" fill="#2F2F2F"/>
<path d="M49.1309 45.6826L49.3551 45.9734L49.1309 45.6826Z" fill="#A2A2A2"/>
<path d="M71.5654 49.0146L71.6309 49.1975L71.5654 49.0146Z" fill="#2F2F2F"/>
<path d="M52.6367 46.9199L52.861 47.2107L52.6367 46.9199Z" fill="#2F2F2F"/>
<path d="M74.5264 49.7461L74.7506 50.0369L74.5264 49.7461Z" fill="#606060"/>
<path d="M49.1885 47.2607L49.4128 47.5515L49.1885 47.2607Z" fill="#A2A2A2"/>
<path d="M71.2695 50.6348L71.4938 50.9255L71.2695 50.6348Z" fill="#606060"/>
<path d="M70.9785 50.8594L70.8123 52.147L71.0698 52.1802L70.9785 50.8594Z" fill="#2F2F2F"/>
<path d="M52.6621 48.7559L52.5872 51.3643L52.8447 51.3976L52.6621 48.7559Z" fill="#2F2F2F"/>
<path d="M17.7959 45.04L17.779 49.2269L18.0365 49.2602L17.7959 45.04Z" fill="#2F2F2F"/>
<path d="M18.0527 45.0732L18.277 45.364L18.0527 45.0732ZM49.2131 49.0961L49.4374 49.3869L49.2131 49.0961ZM73.6779 52.2546L73.9022 52.5454L73.6779 52.2546Z" fill="#A2A2A2"/>
<path d="M73.9355 52.2881L74.1598 52.5789L73.9355 52.2881Z" fill="#2F2F2F"/>
<path d="M18.0195 45.3311L18.2438 45.6218L18.0195 45.3311ZM49.1799 49.3539L49.4042 49.6447L49.1799 49.3539ZM70.8119 52.1467L71.0362 52.4375L70.8119 52.1467ZM73.6447 52.5124L73.4452 54.0575L73.7027 54.0908L73.6447 52.5124Z" fill="#606060"/>
<path d="M49.1475 49.6113L49.3717 49.9021L49.1475 49.6113Z" fill="#2F2F2F"/>
<path d="M49.4043 49.6445L49.0386 52.4773L49.2961 52.5105L49.4043 49.6445Z" fill="#A2A2A2"/>
<path d="M70.5215 52.3711L70.7458 52.6619L70.5215 52.3711Z" fill="#2F2F2F"/>
<path d="M70.7793 52.4043L71.0036 52.6951L70.7793 52.4043Z" fill="#A2A2A2"/>
<path d="M70.0977 53.626L70.3219 53.9167L70.0977 53.626Z" fill="#2F2F2F"/>
<path d="M70.3555 53.6592L70.5797 53.95L70.3555 53.6592ZM73.1882 54.0249L73.4125 54.3157L73.1882 54.0249Z" fill="#A2A2A2"/>
<path d="M52.5527 51.6221L52.777 51.9128L52.5527 51.6221Z" fill="#A2A2A2"/>
<path d="M52.8105 51.6553L53.0348 51.946L52.8105 51.6553Z" fill="#2F2F2F"/>
<path d="M70.0645 53.8828L70.2887 54.1736L70.0645 53.8828ZM73.1547 54.2818L73.379 54.5725L73.1547 54.2818Z" fill="#606060"/>
<path d="M70.0312 54.1406L69.9315 54.9132L70.189 54.9464L70.0312 54.1406Z" fill="#A2A2A2"/>
<path d="M73.1211 54.5391L72.9881 55.5692L73.2456 55.6024L73.1211 54.5391Z" fill="#2F2F2F"/>
<path d="M49.0391 52.4775L49.2633 52.7683L49.0391 52.4775Z" fill="#606060"/>
<path d="M69.6406 55.1377L69.5409 55.9103L69.7984 55.9435L69.6406 55.1377Z" fill="#A2A2A2"/>
<path d="M72.7314 55.5361L72.9557 55.8269L72.7314 55.5361Z" fill="#606060"/>
<path d="M17.8447 48.7119L18.069 49.0027L17.8447 48.7119Z" fill="#A2A2A2"/>
<path d="M49.0059 52.7354L49.2301 53.0261L49.0059 52.7354Z" fill="#2F2F2F"/>
<path d="M49.2637 52.7686L48.1333 61.5244L48.3908 61.5576L49.2637 52.7686Z" fill="#A2A2A2"/>
<path d="M72.7607 55.9775L72.8264 56.1588L72.7607 55.9775Z" fill="#2F2F2F"/>
<path d="M21.3506 49.9502L21.5749 50.241L21.3506 49.9502Z" fill="#606060"/>
<path d="M69.25 56.1338L69.4743 56.4246L69.25 56.1338ZM72.3403 56.5328L72.5646 56.8235L72.3403 56.5328Z" fill="#A2A2A2"/>
<path d="M72.5986 56.5664L72.8229 56.8572L72.5986 56.5664Z" fill="#2F2F2F"/>
<path d="M21.5752 50.2412L21.6332 51.8196L21.8908 51.8528L21.5752 50.2412ZM72.3074 56.7909L72.5317 57.0816L72.3074 56.7909Z" fill="#2F2F2F"/>
<path d="M68.6357 56.8398L68.536 57.6124L68.7935 57.6457L68.6357 56.8398Z" fill="#2F2F2F"/>
<path d="M68.8936 56.873L69.1178 57.1638L68.8936 56.873Z" fill="#A2A2A2"/>
<path d="M71.9502 57.5303L72.1745 57.821L71.9502 57.5303Z" fill="#606060"/>
<path d="M18.0605 51.0967L18.2099 53.9959L18.4674 54.0292L18.0605 51.0967Z" fill="#A2A2A2"/>
<path d="M21.6328 51.8193L21.4998 52.8494L21.7573 52.8827L21.6328 51.8193ZM68.3073 58.0206L68.373 58.2018L68.3073 58.0206Z" fill="#606060"/>
<path d="M68.1787 58.3525L68.403 58.6433L68.1787 58.3525Z" fill="#A2A2A2"/>
<path d="M17.8945 52.3838L18.1188 52.6746L17.8945 52.3838Z" fill="#2F2F2F"/>
<path d="M21.5637 53.0329L21.6293 53.2142L21.5637 53.0329ZM70.9456 59.2328L71.1698 59.5236L70.9456 59.2328Z" fill="#A2A2A2"/>
<path d="M52.1123 57.0635L51.8131 59.3812L52.0706 59.4144L52.1123 57.0635Z" fill="#A2A2A2"/>
<path d="M52.3691 57.0967L52.2694 57.8693L52.5269 57.9025L52.3691 57.0967ZM67.5631 59.0582L67.7873 59.349L67.5631 59.0582Z" fill="#2F2F2F"/>
<path d="M67.8213 59.0918L68.0456 59.3826L67.8213 59.0918Z" fill="#A2A2A2"/>
<path d="M21.6582 53.6553L21.683 55.4912L21.9405 55.5244L21.6582 53.6553Z" fill="#A2A2A2"/>
<path d="M52.2705 57.8691L52.1375 58.8992L52.395 58.9325L52.2705 57.8691Z" fill="#606060"/>
<path d="M67.2695 59.9805L67.3352 60.1617L67.2695 59.9805Z" fill="#A2A2A2"/>
<path d="M21.8486 54.2031L22.0729 54.4939L21.8486 54.2031Z" fill="#606060"/>
<path d="M70.584 60.6709L70.6496 60.8521L70.584 60.6709Z" fill="#2F2F2F"/>
<path d="M21.9404 55.5244L22.1647 55.8152L21.9404 55.5244Z" fill="#A2A2A2"/>
<path d="M51.8135 59.3809L51.082 65.0464L51.3396 65.0796L51.8135 59.3809Z" fill="#606060"/>
<path d="M69.5817 61.6748L69.1912 62.6717L69.4488 62.7049L69.5817 61.6748Z" fill="#A2A2A2"/>
<path d="M69.8398 61.708L70.0641 61.9988L69.8398 61.708Z" fill="#2F2F2F"/>
<path d="M18.3018 55.3164L18.526 55.6072L18.3018 55.3164Z" fill="#2F2F2F"/>
<path d="M18.2686 55.5742L18.4928 55.865L18.2686 55.5742Z" fill="#606060"/>
<path d="M21.874 56.0391L22.0983 56.3298L21.874 56.0391Z" fill="#A2A2A2"/>
<path d="M18.2344 55.8311L18.4587 56.1218L18.2344 55.8311Z" fill="#2F2F2F"/>
<path d="M18.4932 55.8643L18.7174 56.155L18.4932 55.8643Z" fill="#A2A2A2"/>
<path d="M22.0977 56.3301L22.3219 56.6208L22.0977 56.3301Z" fill="#606060"/>
<path d="M65.6191 61.9492L65.8434 62.24L65.6191 61.9492Z" fill="#2F2F2F"/>
<path d="M65.877 61.9824L66.1012 62.2732L65.877 61.9824Z" fill="#A2A2A2"/>
<path d="M22.3232 56.6211L22.2235 57.3937L22.481 57.4269L22.3232 56.6211Z" fill="#2F2F2F"/>
<path d="M65.5866 62.2061L65.2294 62.9454L65.5866 62.2061Z" fill="#A2A2A2"/>
<path d="M69.1921 62.6719L68.8016 63.6688L69.0591 63.702L69.1921 62.6719Z" fill="#606060"/>
<path d="M68.9014 62.8965L69.1256 63.1873L68.9014 62.8965Z" fill="#A2A2A2"/>
<path d="M18.6172 56.9287L18.8415 57.2195L18.6172 56.9287Z" fill="#606060"/>
<path d="M22.4795 57.4268L22.7038 57.7175L22.4795 57.4268Z" fill="#2F2F2F"/>
<path d="M64.9717 62.9131L65.196 63.2039L64.9717 62.9131Z" fill="#606060"/>
<path d="M22.5098 57.8682L22.5754 58.0494L22.5098 57.8682Z" fill="#606060"/>
<path d="M64.9385 63.1699L65.1628 63.4607L64.9385 63.1699ZM68.5438 63.6354L68.7681 63.9262L68.5438 63.6354Z" fill="#A2A2A2"/>
<path d="M68.8018 63.6689L69.026 63.9597L68.8018 63.6689Z" fill="#2F2F2F"/>
<path d="M47.9082 61.2334L48.1325 61.5242L47.9082 61.2334ZM64.4524 63.5447L64.5181 63.726L64.4524 63.5447Z" fill="#2F2F2F"/>
<path d="M64.6475 63.3945L64.8717 63.6853L64.6475 63.3945Z" fill="#A2A2A2"/>
<path d="M68.5105 63.8926L68.1532 64.6319L68.5105 63.8926Z" fill="#2F2F2F"/>
<path d="M18.7744 57.7344L19.3143 59.6368L19.5718 59.67L18.7744 57.7344ZM22.3797 58.1998L22.604 58.4906L22.3797 58.1998Z" fill="#A2A2A2"/>
<path d="M22.6377 58.2324L22.862 58.5232L22.6377 58.2324Z" fill="#2F2F2F"/>
<path d="M47.876 61.4912L48.1003 61.782L47.876 61.4912Z" fill="#606060"/>
<path d="M68.2197 64.1172L68.444 64.408L68.2197 64.1172Z" fill="#A2A2A2"/>
<path d="M18.7422 57.9912L18.9665 58.282L18.7422 57.9912Z" fill="#2F2F2F"/>
<path d="M22.6045 58.4902L22.8288 58.781L22.6045 58.4902Z" fill="#606060"/>
<path d="M22.5713 58.748L22.7956 59.0388L22.5713 58.748Z" fill="#A2A2A2"/>
<path d="M22.8291 58.7812L23.0534 59.072L22.8291 58.7812Z" fill="#2F2F2F"/>
<path d="M22.7959 59.0381L23.0202 59.3289L22.7959 59.0381ZM63.7422 64.3244L63.9665 64.6151L63.7422 64.3244Z" fill="#606060"/>
<path d="M18.8994 58.7979L19.1237 59.0886L18.8994 58.7979Z" fill="#2F2F2F"/>
<path d="M22.7627 59.2959L23.1115 60.65L23.369 60.6833L22.7627 59.2959Z" fill="#A2A2A2"/>
<path d="M63.4512 64.5488L63.6755 64.8396L63.4512 64.5488Z" fill="#2F2F2F"/>
<path d="M63.708 64.582L63.9323 64.8728L63.708 64.582Z" fill="#A2A2A2"/>
<path d="M67.5713 65.0811L67.7956 65.3718L67.5713 65.0811Z" fill="#2F2F2F"/>
<path d="M22.9863 59.5869L23.2106 59.8777L22.9863 59.5869Z" fill="#606060"/>
<path d="M63.4177 64.8067L63.0604 65.546L63.4177 64.8067Z" fill="#A2A2A2"/>
<path d="M19.0908 59.3457L19.2486 60.1515L19.5061 60.1848L19.0908 59.3457ZM63.1274 65.0309L63.3517 65.3217L63.1274 65.0309ZM67.2478 65.5629L67.4721 65.8537L67.2478 65.5629Z" fill="#606060"/>
<path d="M62.8359 65.2549L63.0602 65.5457L62.8359 65.2549Z" fill="#606060"/>
<path d="M62.5464 65.4797L61.0261 67.1161L62.5464 65.4797Z" fill="#2F2F2F"/>
<path d="M19.5059 60.1846L19.7301 60.4753L19.5059 60.1846ZM62.5124 65.7368L62.7366 66.0276L62.5124 65.7368Z" fill="#A2A2A2"/>
<path d="M66.6328 66.2686L66.8571 66.5593L66.6328 66.2686Z" fill="#606060"/>
<path d="M19.4727 60.4424L19.6969 60.7332L19.4727 60.4424Z" fill="#606060"/>
<path d="M23.3359 60.9414L23.5602 61.2322L23.3359 60.9414Z" fill="#A2A2A2"/>
<path d="M23.5928 60.9746L24.0081 61.8137L23.5928 60.9746Z" fill="#2F2F2F"/>
<path d="M19.502 60.8828L19.5676 61.0641L19.502 60.8828Z" fill="#2F2F2F"/>
<path d="M62.1885 66.2188L62.4128 66.5095L62.1885 66.2188Z" fill="#A2A2A2"/>
<path d="M19.6641 60.9902L19.8883 61.281L19.6641 60.9902Z" fill="#606060"/>
<path d="M23.5264 61.4893L23.7506 61.78L23.5264 61.4893ZM50.8239 65.0134L51.0482 65.3042L50.8239 65.0134Z" fill="#A2A2A2"/>
<path d="M51.0811 65.0469L51.3053 65.3376L51.0811 65.0469Z" fill="#2F2F2F"/>
<path d="M61.8975 66.4434L62.1217 66.7341L61.8975 66.4434Z" fill="#A2A2A2"/>
<path d="M66.0186 66.9746L66.2428 67.2654L66.0186 66.9746Z" fill="#606060"/>
<path d="M23.751 61.7803L23.9753 62.071L23.751 61.7803Z" fill="#606060"/>
<path d="M47.1855 64.8057L47.4098 65.0964L47.1855 64.8057ZM50.7909 65.2711L50.4252 68.1039L50.6827 68.1371L50.7909 65.2711Z" fill="#2F2F2F"/>
<path d="M61.6074 66.667L61.8317 66.9578L61.6074 66.667ZM65.7278 67.1989L65.9521 67.4897L65.7278 67.1989Z" fill="#A2A2A2"/>
<path d="M19.5977 61.5059L19.8219 61.7966L19.5977 61.5059Z" fill="#2F2F2F"/>
<path d="M19.8545 61.5391L20.0788 61.8298L19.8545 61.5391ZM23.7174 62.0378L23.9416 62.3285L23.7174 62.0378Z" fill="#A2A2A2"/>
<path d="M23.9756 62.0703L24.1999 62.3611L23.9756 62.0703Z" fill="#2F2F2F"/>
<path d="M61.3164 66.8916L61.5407 67.1824L61.3164 66.8916ZM65.4995 67.6071L65.5651 67.7883L65.4995 67.6071Z" fill="#A2A2A2"/>
<path d="M20.0791 61.8301L20.4944 62.6691L20.0791 61.8301Z" fill="#A2A2A2"/>
<path d="M23.9082 62.5859L24.1325 62.8767L23.9082 62.5859ZM60.7341 67.3403L60.9584 67.631L60.7341 67.3403ZM65.112 67.9055L64.4972 68.6115L65.112 67.9055Z" fill="#A2A2A2"/>
<path d="M24.1328 62.877L24.3571 63.1677L24.1328 62.877ZM60.4437 67.5648L60.668 67.8555L60.4437 67.5648Z" fill="#A2A2A2"/>
<path d="M65.0791 68.1631L65.3034 68.4539L65.0791 68.1631Z" fill="#2F2F2F"/>
<path d="M20.2363 62.6357L20.4606 62.9265L20.2363 62.6357ZM24.3567 63.1677L24.581 63.4585L24.3567 63.1677Z" fill="#606060"/>
<path d="M60.1533 67.7891L60.3776 68.0798L60.1533 67.7891Z" fill="#A2A2A2"/>
<path d="M20.2041 62.8926L20.4284 63.1833L20.2041 62.8926Z" fill="#2F2F2F"/>
<path d="M20.4609 62.9258L20.6852 63.2166L20.4609 62.9258ZM24.3238 63.4245L24.5481 63.7153L24.3238 63.4245Z" fill="#A2A2A2"/>
<path d="M24.6436 63.6416L24.7092 63.8229L24.6436 63.6416Z" fill="#2F2F2F"/>
<path d="M59.9258 68.1963L59.9914 68.3775L59.9258 68.1963Z" fill="#A2A2A2"/>
<path d="M20.4277 63.1836L20.652 63.4744L20.4277 63.1836Z" fill="#606060"/>
<path d="M59.3142 68.2041L58.9901 68.6859L59.3142 68.2041Z" fill="#2F2F2F"/>
<path d="M59.5713 68.2373L59.7956 68.5281L59.5713 68.2373Z" fill="#606060"/>
<path d="M64.2067 68.836L63.8827 69.3178L64.2067 68.836Z" fill="#A2A2A2"/>
<path d="M64.4639 68.8691L64.6881 69.1599L64.4639 68.8691Z" fill="#2F2F2F"/>
<path d="M20.7148 63.6582L20.7805 63.8395L20.7148 63.6582Z" fill="#606060"/>
<path d="M24.7725 64.0068L24.9302 64.8127L25.1878 64.8459L24.7725 64.0068ZM46.662 66.8328L46.8863 67.1236L46.662 66.8328Z" fill="#2F2F2F"/>
<path d="M59.2803 68.4619L59.5046 68.7527L59.2803 68.4619Z" fill="#A2A2A2"/>
<path d="M64.1729 69.0938L64.3971 69.3845L64.1729 69.0938Z" fill="#2F2F2F"/>
<path d="M24.7393 64.2637L24.9635 64.5544L24.7393 64.2637ZM58.9899 68.6855L59.2142 68.9763L58.9899 68.6855Z" fill="#A2A2A2"/>
<path d="M24.9307 64.8125L25.6035 65.6848L24.9307 64.8125Z" fill="#A2A2A2"/>
<path d="M25.1875 64.8457L25.4118 65.1365L25.1875 64.8457Z" fill="#606060"/>
<path d="M46.5625 67.6055L46.7868 67.8962L46.5625 67.6055Z" fill="#A2A2A2"/>
<path d="M50.167 68.0703L50.3913 68.3611L50.167 68.0703Z" fill="#606060"/>
<path d="M58.4082 69.1348L58.6325 69.4255L58.4082 69.1348Z" fill="#A2A2A2"/>
<path d="M63.3008 69.7656L63.5251 70.0564L63.3008 69.7656Z" fill="#606060"/>
<path d="M25.4131 65.1357L25.6374 65.4265L25.4131 65.1357ZM50.1354 68.3274L50.3597 68.6182L50.1354 68.3274Z" fill="#2F2F2F"/>
<path d="M58.1172 69.3584L58.3415 69.6492L58.1172 69.3584Z" fill="#A2A2A2"/>
<path d="M63.0107 69.9902L63.235 70.281L63.0107 69.9902Z" fill="#606060"/>
<path d="M21.2588 64.8623L21.4166 65.6681L21.6741 65.7014L21.2588 64.8623Z" fill="#A2A2A2"/>
<path d="M25.6367 65.4268L25.861 65.7175L25.6367 65.4268Z" fill="#2F2F2F"/>
<path d="M57.57 69.5498L57.246 70.0316L57.57 69.5498Z" fill="#606060"/>
<path d="M57.8271 69.583L58.0514 69.8738L57.8271 69.583ZM62.7201 70.2147L62.3961 70.6965L62.7201 70.2147Z" fill="#A2A2A2"/>
<path d="M62.9775 70.248L63.2018 70.5388L62.9775 70.248Z" fill="#2F2F2F"/>
<path d="M25.6035 65.6846L25.8278 65.9753L25.6035 65.6846Z" fill="#606060"/>
<path d="M57.5361 69.8066L57.7604 70.0974L57.5361 69.8066Z" fill="#A2A2A2"/>
<path d="M25.5693 65.9424L25.7936 66.2332L25.5693 65.9424Z" fill="#A2A2A2"/>
<path d="M25.8271 65.9756L26.0514 66.2664L25.8271 65.9756ZM56.73 69.9652L56.9543 70.256L56.73 69.9652Z" fill="#2F2F2F"/>
<path d="M56.9873 69.998L57.2116 70.2888L56.9873 69.998ZM62.3953 70.6962L62.6196 70.987L62.3953 70.6962Z" fill="#606060"/>
<path d="M21.6738 65.7012L22.5377 67.1218L21.6738 65.7012Z" fill="#A2A2A2"/>
<path d="M56.4395 70.1895L56.6637 70.4802L56.4395 70.1895Z" fill="#2F2F2F"/>
<path d="M21.6406 65.958L21.8649 66.2488L21.6406 65.958Z" fill="#606060"/>
<path d="M26.2754 66.5566L27.1725 67.7197L26.2754 66.5566Z" fill="#2F2F2F"/>
<path d="M56.1491 70.4131L55.8251 70.8949L56.1491 70.4131Z" fill="#606060"/>
<path d="M61.8145 71.1445L62.0387 71.4353L61.8145 71.1445Z" fill="#2F2F2F"/>
<path d="M21.6074 66.2158L21.8317 66.5066L21.6074 66.2158Z" fill="#2F2F2F"/>
<path d="M26.2422 66.8145L26.4665 67.1052L26.2422 66.8145ZM56.115 70.6711L56.3392 70.9619L56.115 70.6711ZM61.2654 71.336L59.7783 72.7149L61.2654 71.336Z" fill="#A2A2A2"/>
<path d="M21.832 66.5068L22.0563 66.7976L21.832 66.5068Z" fill="#2F2F2F"/>
<path d="M26.4668 67.1055L26.6911 67.3962L26.4668 67.1055Z" fill="#A2A2A2"/>
<path d="M46.0385 69.6319L45.191 72.1407L45.4485 72.1739L46.0385 69.6319ZM55.3093 70.8288L55.5336 71.1196L55.3093 70.8288Z" fill="#606060"/>
<path d="M55.5674 70.8623L55.7917 71.1531L55.5674 70.8623Z" fill="#A2A2A2"/>
<path d="M61.2324 71.5938L61.4567 71.8845L61.2324 71.5938Z" fill="#606060"/>
<path d="M26.6914 67.3955L26.9157 67.6863L26.6914 67.3955ZM46.0057 69.889L46.23 70.1798L46.0057 69.889ZM49.611 70.3545L49.0543 72.639L49.3118 72.6722L49.611 70.3545Z" fill="#A2A2A2"/>
<path d="M55.0195 71.0527L55.2438 71.3435L55.0195 71.0527ZM60.9426 71.8174L61.1669 72.1082L60.9426 71.8174Z" fill="#606060"/>
<path d="M22.3428 67.2715L22.4084 67.4527L22.3428 67.2715Z" fill="#2F2F2F"/>
<path d="M26.916 67.6865L27.7799 69.1071L26.916 67.6865Z" fill="#A2A2A2"/>
<path d="M49.5771 70.6123L49.8014 70.9031L49.5771 70.6123ZM54.3742 71.318L54.5328 71.4275L54.3742 71.318Z" fill="#2F2F2F"/>
<path d="M54.7285 71.2773L54.9528 71.5681L54.7285 71.2773ZM60.6516 72.042L60.8758 72.3328L60.6516 72.042Z" fill="#606060"/>
<path d="M22.5049 67.3789L22.7292 67.6697L22.5049 67.3789Z" fill="#A2A2A2"/>
<path d="M27.1396 67.9775L27.3639 68.2683L27.1396 67.9775Z" fill="#2F2F2F"/>
<path d="M54.1807 71.4678L54.4049 71.7585L54.1807 71.4678Z" fill="#A2A2A2"/>
<path d="M60.3604 72.2666L60.5846 72.5574L60.3604 72.2666Z" fill="#2F2F2F"/>
<path d="M27.3643 68.2686L27.5885 68.5593L27.3643 68.2686Z" fill="#606060"/>
<path d="M53.8896 71.6924L54.1139 71.9832L53.8896 71.6924Z" fill="#A2A2A2"/>
<path d="M22.9531 67.9609L23.1774 68.2517L22.9531 67.9609Z" fill="#A2A2A2"/>
<path d="M27.5889 68.5586L27.8131 68.8494L27.5889 68.5586Z" fill="#606060"/>
<path d="M53.3398 71.8838L53.5641 72.1746L53.3398 71.8838ZM59.2629 72.6485L58.0666 73.8031L59.2629 72.6485Z" fill="#A2A2A2"/>
<path d="M59.5215 72.6816L59.7458 72.9724L59.5215 72.6816Z" fill="#2F2F2F"/>
<path d="M23.1777 68.251L23.6263 68.8325L23.1777 68.251Z" fill="#A2A2A2"/>
<path d="M27.8125 68.8496L28.0368 69.1404L27.8125 68.8496Z" fill="#606060"/>
<path d="M52.5349 72.042L52.2109 72.5238L52.5349 72.042Z" fill="#2F2F2F"/>
<path d="M52.792 72.0752L53.0163 72.366L52.792 72.0752Z" fill="#606060"/>
<path d="M53.0508 72.1084L53.2751 72.3992L53.0508 72.1084Z" fill="#A2A2A2"/>
<path d="M59.2305 72.9062L59.4547 73.197L59.2305 72.9062Z" fill="#2F2F2F"/>
<path d="M28.0361 69.1406L28.709 70.0129L28.0361 69.1406Z" fill="#A2A2A2"/>
<path d="M28.2949 69.1738L28.5192 69.4646L28.2949 69.1738Z" fill="#606060"/>
<path d="M52.501 72.2988L52.7253 72.5896L52.501 72.2988Z" fill="#A2A2A2"/>
<path d="M23.1104 68.7666L23.3346 69.0574L23.1104 68.7666ZM28.5184 69.4648L28.7426 69.7556L28.5184 69.4648Z" fill="#2F2F2F"/>
<path d="M45.5156 71.6592L45.7399 71.95L45.5156 71.6592Z" fill="#A2A2A2"/>
<path d="M51.8574 72.5645L52.0161 72.674L51.8574 72.5645Z" fill="#606060"/>
<path d="M52.2109 72.5234L52.4352 72.8142L52.2109 72.5234Z" fill="#A2A2A2"/>
<path d="M23.335 69.0576L23.7835 69.6392L23.335 69.0576Z" fill="#2F2F2F"/>
<path d="M23.5928 69.0908L23.817 69.3816L23.5928 69.0908Z" fill="#A2A2A2"/>
<path d="M28.7432 69.7549L28.9674 70.0457L28.7432 69.7549ZM51.3093 72.7546L51.468 72.8641L51.3093 72.7546Z" fill="#2F2F2F"/>
<path d="M51.6621 72.7139L51.8864 73.0046L51.6621 72.7139Z" fill="#A2A2A2"/>
<path d="M58.3584 73.5791L58.5827 73.8699L58.3584 73.5791Z" fill="#2F2F2F"/>
<path d="M45.1911 72.1407L44.6011 74.6827L44.8586 74.7159L45.1911 72.1407ZM48.7965 72.6061L48.6302 73.8937L49.6936 73.7692L49.7268 73.5117L48.921 73.6695L48.7965 72.6061Z" fill="#A2A2A2"/>
<path d="M50.8574 72.8721L51.0817 73.1628L50.8574 72.8721Z" fill="#2F2F2F"/>
<path d="M50.3086 73.0635L50.5329 73.3542L50.3086 73.0635Z" fill="#606060"/>
<path d="M57.2614 73.961L56.9374 74.4428L57.2614 73.961Z" fill="#A2A2A2"/>
<path d="M57.5195 73.9941L57.7438 74.2849L57.5195 73.9941Z" fill="#2F2F2F"/>
<path d="M24.0078 69.9297L24.2321 70.2205L24.0078 69.9297Z" fill="#2F2F2F"/>
<path d="M29.416 70.6279L29.6403 70.9187L29.416 70.6279ZM49.922 73.3617L50.0806 73.4712L49.922 73.3617Z" fill="#A2A2A2"/>
<path d="M24.4893 70.2539L24.7135 70.5447L24.4893 70.2539ZM29.8013 71.0261L29.96 71.1356L29.8013 71.0261Z" fill="#A2A2A2"/>
<path d="M30.1553 70.9854L30.3796 71.2761L30.1553 70.9854Z" fill="#606060"/>
<path d="M48.9541 73.4121L49.1784 73.7029L48.9541 73.4121Z" fill="#2F2F2F"/>
<path d="M56.584 74.4834L56.7426 74.5929L56.584 74.4834Z" fill="#606060"/>
<path d="M56.9375 74.4424L57.1618 74.7332L56.9375 74.4424Z" fill="#2F2F2F"/>
<path d="M30.541 71.3828L30.6997 71.4923L30.541 71.3828Z" fill="#606060"/>
<path d="M44.8008 73.1377L45.0251 73.4285L44.8008 73.1377Z" fill="#2F2F2F"/>
<path d="M56.1318 74.6006L56.3561 74.8914L56.1318 74.6006Z" fill="#A2A2A2"/>
<path d="M24.9385 70.835L25.1628 71.1257L24.9385 70.835Z" fill="#A2A2A2"/>
<path d="M30.8613 71.5996L31.0856 71.8904L30.8613 71.5996Z" fill="#606060"/>
<path d="M31.1182 71.6328L31.0849 71.8903L32.3393 72.3141L32.3725 72.0566L31.1182 71.6328Z" fill="#2F2F2F"/>
<path d="M44.7676 73.3945L44.9919 73.6853L44.7676 73.3945Z" fill="#606060"/>
<path d="M55.7451 74.8984L55.9038 75.008L55.7451 74.8984Z" fill="#A2A2A2"/>
<path d="M55.002 75.2402L55.2262 75.531L55.002 75.2402Z" fill="#606060"/>
<path d="M25.3535 71.6738L25.8021 72.2554L25.3535 71.6738Z" fill="#2F2F2F"/>
<path d="M25.6104 71.707L25.8346 71.9978L25.6104 71.707Z" fill="#A2A2A2"/>
<path d="M33.0791 72.6719L33.3034 72.9626L33.0791 72.6719ZM54.4536 75.4314L54.6779 75.7221L54.4536 75.4314Z" fill="#606060"/>
<path d="M54.7109 75.4639L54.9352 75.7546L54.7109 75.4639Z" fill="#2F2F2F"/>
<path d="M26.0928 72.0312L26.3171 72.322L26.0928 72.0312ZM33.3034 72.9622L33.2702 73.2197L35.2971 73.7432L33.3034 72.9622Z" fill="#A2A2A2"/>
<path d="M34.333 73.0957L34.5573 73.3865L34.333 73.0957Z" fill="#2F2F2F"/>
<path d="M53.6481 75.5889L53.3241 76.0707L53.6481 75.5889Z" fill="#A2A2A2"/>
<path d="M54.0674 75.7295L54.226 75.839L54.0674 75.7295Z" fill="#606060"/>
<path d="M26.3174 72.3223L26.9902 73.1946L26.3174 72.3223Z" fill="#A2A2A2"/>
<path d="M35.3301 73.4854L35.5544 73.7761L35.3301 73.4854Z" fill="#606060"/>
<path d="M35.5889 73.5186L35.8131 73.8093L35.5889 73.5186ZM43.0571 74.4827L43.2813 74.7735L43.0571 74.4827Z" fill="#2F2F2F"/>
<path d="M43.3135 74.5166L43.5378 74.8074L43.3135 74.5166Z" fill="#606060"/>
<path d="M43.5713 74.5498L43.538 74.8073L44.5681 74.9403L43.5713 74.5498Z" fill="#A2A2A2"/>
<path d="M53.6143 75.8467L53.8385 76.1375L53.6143 75.8467Z" fill="#606060"/>
<path d="M26.2832 72.5801L26.5075 72.8709L26.2832 72.5801Z" fill="#2F2F2F"/>
<path d="M35.5547 73.7764L35.779 74.0671L35.5547 73.7764Z" fill="#A2A2A2"/>
<path d="M35.8125 73.8096L35.7793 74.0671L38.0637 74.6238L35.8125 73.8096Z" fill="#606060"/>
<path d="M37.8721 74.0762L38.0963 74.3669L37.8721 74.0762Z" fill="#2F2F2F"/>
<path d="M40.6719 74.6992L40.6386 74.9567L42.9896 74.9984L40.6719 74.6992Z" fill="#606060"/>
<path d="M43.0234 74.7402L43.2477 75.031L43.0234 74.7402ZM52.8093 76.0036L52.2611 76.1947L52.2278 76.4522L52.8093 76.0036Z" fill="#A2A2A2"/>
<path d="M53.0664 76.0371L53.2907 76.3279L53.0664 76.0371Z" fill="#606060"/>
<path d="M37.5811 74.2998L37.8053 74.5906L37.5811 74.2998Z" fill="#A2A2A2"/>
<path d="M38.0967 74.3662L38.0634 74.6237L40.6387 74.9562L38.0967 74.3662Z" fill="#2F2F2F"/>
<path d="M40.9297 74.7324L41.154 75.0232L40.9297 74.7324Z" fill="#A2A2A2"/>
<path d="M52.7754 76.2617L52.9997 76.5525L52.7754 76.2617Z" fill="#2F2F2F"/>
<path d="M27.9531 73.8428L28.1774 74.1335L27.9531 73.8428Z" fill="#A2A2A2"/>
<path d="M50.873 76.8018L51.0973 77.0925L50.873 76.8018Z" fill="#606060"/>
<path d="M28.1777 74.1328L28.402 74.4236L28.1777 74.1328Z" fill="#606060"/>
<path d="M28.4355 74.166L28.6598 74.4568L28.4355 74.166ZM50.0676 76.9588L50.2918 77.2495L50.0676 76.9588Z" fill="#A2A2A2"/>
<path d="M28.4023 74.4238L28.6266 74.7146L28.4023 74.4238Z" fill="#2F2F2F"/>
<path d="M28.6592 74.457L28.8835 74.7478L28.6592 74.457Z" fill="#606060"/>
<path d="M28.917 74.4902L29.6231 75.105L29.6563 74.8475L28.917 74.4902ZM48.7131 77.3078L48.6798 77.5653L49.7432 77.4408L48.7131 77.3078Z" fill="#A2A2A2"/>
<path d="M28.8838 74.748L29.1081 75.0388L28.8838 74.748ZM49.2282 77.3746L49.4525 77.6653L49.2282 77.3746Z" fill="#2F2F2F"/>
<path d="M29.623 75.1055L29.8473 75.3962L29.623 75.1055Z" fill="#2F2F2F"/>
<path d="M48.3262 77.6064L48.4848 77.716L48.3262 77.6064Z" fill="#A2A2A2"/>
<path d="M30.3623 75.4629L30.5866 75.7537L30.3623 75.4629ZM47.6164 77.6904L47.8407 77.9812L47.6164 77.6904Z" fill="#A2A2A2"/>
<path d="M30.3291 75.7197L30.2959 75.9773L31.0684 76.077L30.3291 75.7197Z" fill="#2F2F2F"/>
<path d="M31.1016 75.8193L31.3258 76.1101L31.1016 75.8193Z" fill="#A2A2A2"/>
<path d="M47.3262 77.9141L47.5505 78.2048L47.3262 77.9141Z" fill="#606060"/>
<path d="M31.8418 76.1768L32.0661 76.4675L31.8418 76.1768Z" fill="#606060"/>
<path d="M32.0986 76.21L32.3229 76.5007L32.0986 76.21Z" fill="#A2A2A2"/>
<path d="M47.3555 78.3555L47.4211 78.5367L47.3555 78.3555Z" fill="#2F2F2F"/>
<path d="M32.0654 76.4678L32.2897 76.7585L32.0654 76.4678Z" fill="#2F2F2F"/>
<path d="M32.3232 76.501L32.29 76.7585L33.0626 76.8582L32.3232 76.501Z" fill="#606060"/>
<path d="M33.0957 76.6006L33.0625 76.8581L34.8319 77.3484L34.8651 77.0908L33.0957 76.6006Z" fill="#A2A2A2"/>
<path d="M33.0625 76.8584L33.2868 77.1492L33.0625 76.8584Z" fill="#2F2F2F"/>
<path d="M33.3203 76.8916L33.5446 77.1824L33.3203 76.8916Z" fill="#606060"/>
<path d="M43.1064 78.1543L43.3307 78.4451L43.1064 78.1543ZM46.9693 78.653L47.1936 78.9438L46.9693 78.653Z" fill="#A2A2A2"/>
<path d="M34.5742 77.3154L34.7985 77.6062L34.5742 77.3154Z" fill="#2F2F2F"/>
<path d="M34.8311 77.3486L35.0553 77.6394L34.8311 77.3486Z" fill="#606060"/>
<path d="M35.0898 77.3818L35.0566 77.6394L37.3743 77.9386L35.0898 77.3818ZM40.4978 78.08L40.4646 78.3375L42.7823 78.6368L40.4978 78.08Z" fill="#A2A2A2"/>
<path d="M42.8154 78.3789L42.5495 80.4391L42.807 80.4723L42.8154 78.3789Z" fill="#606060"/>
<path d="M37.373 77.9385L37.5973 78.2292L37.373 77.9385Z" fill="#606060"/>
<path d="M37.6309 77.9717L37.8551 78.2625L37.6309 77.9717ZM39.9486 78.2709L40.1729 78.5617L39.9486 78.2709Z" fill="#A2A2A2"/>
<path d="M40.2061 78.3047L40.4303 78.5955L40.2061 78.3047Z" fill="#606060"/>
<path d="M40.4639 78.3379L40.6881 78.6287L40.4639 78.3379Z" fill="#2F2F2F"/>
<path d="M42.9727 79.1855L43.1969 79.4763L42.9727 79.1855Z" fill="#A2A2A2"/>
<path d="M42.2575 80.6641L41.7008 82.9486L41.9583 82.9818L42.2575 80.6641Z" fill="#A2A2A2"/>
<path d="M45.6641 82.6748L45.8883 82.9656L45.6641 82.6748Z" fill="#606060"/>
<path d="M41.4102 83.1729L41.6344 83.4636L41.4102 83.1729Z" fill="#A2A2A2"/>
<path d="M44.9834 83.8955L45.2077 84.1863L44.9834 83.8955Z" fill="#A2A2A2"/>
<path d="M45.2402 83.9287L45.4645 84.2195L45.2402 83.9287Z" fill="#2F2F2F"/>
<path d="M41.0205 84.1689L41.2448 84.4597L41.0205 84.1689Z" fill="#A2A2A2"/>
<path d="M44.5596 85.1494L44.7838 85.4402L44.5596 85.1494Z" fill="#A2A2A2"/>
<path d="M40.6296 85.1661L40.2723 85.9054L40.5299 85.9386L40.6296 85.1661Z" fill="#606060"/>
<path d="M44.168 86.1465L44.3922 86.4373L44.168 86.1465Z" fill="#A2A2A2"/>
<path d="M40.2393 86.1631L40.4635 86.4539L40.2393 86.1631Z" fill="#606060"/>
<path d="M43.8438 86.6289L43.744 87.4015L44.0015 87.4347L43.8438 86.6289Z" fill="#A2A2A2"/>
<path d="M40.2061 86.4209L40.4303 86.7117L40.2061 86.4209Z" fill="#A2A2A2"/>
<path d="M39.5254 87.6416L39.7497 87.9324L39.5254 87.6416Z" fill="#606060"/>
<path d="M43.0635 88.6221L43.2878 88.9128L43.0635 88.6221Z" fill="#A2A2A2"/>
<path d="M43.3213 88.6553L43.5456 88.946L43.3213 88.6553Z" fill="#2F2F2F"/>
<path d="M39.167 88.3809L39.3913 88.6716L39.167 88.3809Z" fill="#2F2F2F"/>
<path d="M43.0303 88.8799L42.9305 89.6525L43.1881 89.6857L43.0303 88.8799Z" fill="#606060"/>
<path d="M42.9297 89.6523L43.154 89.9431L42.9297 89.6523Z" fill="#2F2F2F"/>
<path d="M38.4531 89.8594L38.6774 90.1501L38.4531 89.8594ZM42.5735 90.3913L42.1497 91.6457L42.4073 91.6789L42.5735 90.3913Z" fill="#2F2F2F"/>
<path d="M42.2822 90.6162L42.5065 90.907L42.2822 90.6162Z" fill="#606060"/>
<path d="M38.3861 90.3751L37.7049 91.5962L37.9624 91.6295L38.3861 90.3751Z" fill="#2F2F2F"/>
<path d="M38.3535 90.6318L38.5778 90.9226L38.3535 90.6318Z" fill="#A2A2A2"/>
<path d="M37.9958 91.3711L37.6053 92.368L37.8628 92.4012L37.9958 91.3711Z" fill="#606060"/>
<path d="M37.9629 91.6289L38.1872 91.9197L37.9629 91.6289Z" fill="#A2A2A2"/>
<path d="M41.5356 92.3516L40.7878 94.0878L41.0453 94.1211L41.5356 92.3516Z" fill="#A2A2A2"/>
<path d="M41.501 92.6094L41.7253 92.9001L41.501 92.6094Z" fill="#2F2F2F"/>
<path d="M37.3477 92.335L37.5719 92.6257L37.3477 92.335Z" fill="#2F2F2F"/>
<path d="M37.3145 92.5928L37.5387 92.8835L37.3145 92.5928Z" fill="#606060"/>
<path d="M41.1445 93.3486L41.3688 93.6394L41.1445 93.3486Z" fill="#606060"/>
<path d="M36.957 93.332L37.1813 93.6228L36.957 93.332Z" fill="#2F2F2F"/>
<path d="M40.7871 94.0879L41.0114 94.3787L40.7871 94.0879Z" fill="#606060"/>
<path d="M40.4961 94.3125L40.7204 94.6033L40.4961 94.3125Z" fill="#A2A2A2"/>
<path d="M40.1387 95.0518L40.3629 95.3425L40.1387 95.0518Z" fill="#A2A2A2"/>
<path d="M40.3965 95.085L40.6208 95.3757L40.3965 95.085Z" fill="#2F2F2F"/>
<path d="M36.209 95.0684L36.4333 95.3591L36.209 95.0684Z" fill="#606060"/>
<path d="M40.0723 95.5674L40.2965 95.8582L40.0723 95.5674Z" fill="#2F2F2F"/>
<path d="M35.9814 95.4756L36.0471 95.6568L35.9814 95.4756Z" fill="#2F2F2F"/>
<path d="M35.8193 96.0654L36.0436 96.3562L35.8193 96.0654Z" fill="#A2A2A2"/>
<path d="M39.6816 96.5635L39.9059 96.8542L39.6816 96.5635Z" fill="#2F2F2F"/>
<path d="M39.3912 96.7878L39.6155 97.0785L39.3912 96.7878ZM39.1004 97.012L39.3247 97.3028L39.1004 97.012ZM35.4618 96.8041L35.6861 97.0949L35.4618 96.8041Z" fill="#A2A2A2"/>
<path d="M39.0346 97.5274L38.32 99.0061L38.5776 99.0393L39.0346 97.5274Z" fill="#A2A2A2"/>
<path d="M34.4902 98.25L34.7145 98.5408L34.4902 98.25Z" fill="#2F2F2F"/>
<path d="M38.32 99.0059L37.9295 100.003L38.187 100.036L38.32 99.0059Z" fill="#606060"/>
<path d="M38.2861 99.2637L38.5104 99.5544L38.2861 99.2637Z" fill="#2F2F2F"/>
<path d="M34.0986 99.2461L34.3229 99.5369L34.0986 99.2461Z" fill="#A2A2A2"/>
<path d="M37.6709 99.9697L37.8952 100.26L37.6709 99.9697Z" fill="#A2A2A2"/>
<path d="M37.9287 100.003L38.153 100.294L37.9287 100.003Z" fill="#2F2F2F"/>
<path d="M33.418 100.468L33.6422 100.759L33.418 100.468Z" fill="#606060"/>
<path d="M33.127 100.692L33.3512 100.983L33.127 100.692Z" fill="#2F2F2F"/>
<path d="M32.8027 101.174L33.027 101.465L32.8027 101.174Z" fill="#2F2F2F"/>
<path d="M33.0605 101.207L33.2848 101.498L33.0605 101.207ZM36.7286 101.856L36.7942 102.037L36.7286 101.856Z" fill="#A2A2A2"/>
<path d="M32.7705 101.432L32.9948 101.722L32.7705 101.432Z" fill="#606060"/>
<path d="M32.737 101.689L32.3465 102.685L32.604 102.719L32.737 101.689Z" fill="#A2A2A2"/>
<path d="M36.5986 102.188L36.8229 102.478L36.5986 102.188Z" fill="#606060"/>
<path d="M32.4463 101.913L32.6706 102.204L32.4463 101.913Z" fill="#2F2F2F"/>
<path d="M35.6279 103.633L35.8522 103.924L35.6279 103.633Z" fill="#A2A2A2"/>
<path d="M31.7314 103.392L31.9557 103.682L31.7314 103.392Z" fill="#A2A2A2"/>
<path d="M35.6572 104.074L35.7229 104.255L35.6572 104.074Z" fill="#606060"/>
<path d="M31.374 104.131L31.5983 104.422L31.374 104.131Z" fill="#A2A2A2"/>
<path d="M35.2373 104.63L35.4616 104.921L35.2373 104.63Z" fill="#2F2F2F"/>
<path d="M31.1465 104.539L31.2121 104.72L31.1465 104.539Z" fill="#606060"/>
<path d="M34.5893 105.594L33.908 106.815L34.1655 106.848L34.5893 105.594Z" fill="#A2A2A2"/>
<path d="M30.6934 105.353L30.9176 105.643L30.6934 105.353Z" fill="#A2A2A2"/>
<path d="M34.5557 105.851L34.7799 106.141L34.5557 105.851Z" fill="#2F2F2F"/>
<path d="M30.1113 105.801L30.3356 106.092L30.1113 105.801Z" fill="#2F2F2F"/>
<path d="M34.2324 106.333L34.4567 106.624L34.2324 106.333Z" fill="#606060"/>
<path d="M30.0446 106.316L29.6874 107.056L30.0446 106.316Z" fill="#A2A2A2"/>
<path d="M33.9082 106.814L34.1325 107.105L33.9082 106.814Z" fill="#606060"/>
<path d="M29.7539 106.54L29.9782 106.831L29.7539 106.54Z" fill="#2F2F2F"/>
<path d="M33.6787 107.223L33.7444 107.404L33.6787 107.223Z" fill="#606060"/>
<path d="M33.293 107.521L33.5172 107.811L33.293 107.521Z" fill="#A2A2A2"/>
<path d="M33.5498 107.554L33.7741 107.844L33.5498 107.554Z" fill="#2F2F2F"/>
<path d="M29.3975 107.279L29.6217 107.57L29.3975 107.279Z" fill="#A2A2A2"/>
<path d="M33.2263 108.035L32.869 108.775L33.2263 108.035Z" fill="#2F2F2F"/>
<path d="M29.0732 107.761L29.2975 108.052L29.0732 107.761ZM32.9361 108.259L33.1604 108.55L32.9361 108.259Z" fill="#606060"/>
<path d="M28.4577 108.468L28.1005 109.207L28.4577 108.468Z" fill="#606060"/>
<path d="M32.5781 108.999L32.8024 109.29L32.5781 108.999Z" fill="#2F2F2F"/>
<path d="M28.3906 108.982L28.6149 109.273L28.3906 108.982Z" fill="#A2A2A2"/>
<path d="M32.2539 109.481L32.4782 109.772L32.2539 109.481Z" fill="#606060"/>
<path d="M31.9304 109.963L32.1546 110.253L31.9304 109.963ZM31.7023 110.371L31.7679 110.552L31.7023 110.371Z" fill="#606060"/>
<path d="M27.4531 110.17L27.6774 110.461L27.4531 110.17ZM31.316 110.669L31.5403 110.959L31.316 110.669Z" fill="#A2A2A2"/>
<path d="M31.5732 110.702L31.7975 110.993L31.5732 110.702Z" fill="#2F2F2F"/>
<path d="M30.9922 111.15L31.2165 111.441L30.9922 111.15Z" fill="#A2A2A2"/>
<path d="M31.249 111.184L31.4733 111.474L31.249 111.184Z" fill="#2F2F2F"/>
<path d="M26.7705 111.392L26.9948 111.682L26.7705 111.392Z" fill="#A2A2A2"/>
<path d="M26.4805 111.615L26.7047 111.906L26.4805 111.615Z" fill="#606060"/>
<path d="M26.4473 111.873L26.6715 112.164L26.4473 111.873Z" fill="#A2A2A2"/>
<path d="M26.1572 112.098L26.3815 112.388L26.1572 112.098Z" fill="#606060"/>
<path d="M30.0186 112.597L30.2428 112.887L30.0186 112.597Z" fill="#A2A2A2"/>
<path d="M26.123 112.354L26.3473 112.645L26.123 112.354Z" fill="#A2A2A2"/>
<path d="M29.9863 112.854L30.2106 113.144L29.9863 112.854Z" fill="#606060"/>
<path d="M25.8957 112.762L25.9613 112.944L25.8957 112.762ZM29.6959 113.078L29.9201 113.368L29.6959 113.078Z" fill="#A2A2A2"/>
<path d="M29.6289 113.593L29.8532 113.884L29.6289 113.593Z" fill="#2F2F2F"/>
<path d="M24.9265 113.51L24.536 114.507L24.7935 114.54L24.9265 113.51Z" fill="#2F2F2F"/>
<path d="M25.1846 113.543L25.4088 113.834L25.1846 113.543ZM29.0474 114.042L29.2717 114.332L29.0474 114.042Z" fill="#A2A2A2"/>
<path d="M29.3047 114.075L29.529 114.366L29.3047 114.075Z" fill="#2F2F2F"/>
<path d="M24.8613 114.024L25.0856 114.315L24.8613 114.024Z" fill="#606060"/>
<path d="M28.7227 114.523L28.9469 114.814L28.7227 114.523Z" fill="#A2A2A2"/>
<path d="M28.9805 114.557L29.2047 114.847L28.9805 114.557Z" fill="#2F2F2F"/>
<path d="M28.7529 114.965L28.8186 115.146L28.7529 114.965Z" fill="#2F2F2F"/>
<path d="M28.1084 115.229L28.3327 115.52L28.1084 115.229Z" fill="#A2A2A2"/>
<path d="M24.2126 114.988L23.8553 115.728L24.2126 114.988Z" fill="#A2A2A2"/>
<path d="M23.6309 115.437L23.8551 115.727L23.6309 115.437Z" fill="#2F2F2F"/>
<path d="M27.751 115.969L27.9753 116.26L27.751 115.969Z" fill="#A2A2A2"/>
<path d="M23.5977 115.694L23.8219 115.985L23.5977 115.694ZM27.718 116.226L27.9423 116.517L27.718 116.226Z" fill="#606060"/>
<path d="M23.5635 115.952L23.7878 116.243L23.5635 115.952ZM27.4263 116.451L27.6506 116.742L27.4263 116.451Z" fill="#A2A2A2"/>
<path d="M28.2002 116.551L28.4245 116.842L28.2002 116.551Z" fill="#2F2F2F"/>
<path d="M23.2734 116.176L23.4977 116.467L23.2734 116.176Z" fill="#A2A2A2"/>
<path d="M27.3936 116.708L27.6178 116.999L27.3936 116.708Z" fill="#606060"/>
<path d="M22.9828 116.4L22.3348 117.364L22.5923 117.397L22.9828 116.4Z" fill="#2F2F2F"/>
<path d="M27.0703 117.189L27.2946 117.48L27.0703 117.189Z" fill="#2F2F2F"/>
<path d="M22.626 117.14L22.8503 117.43L22.626 117.14ZM26.4888 117.638L26.7131 117.929L26.4888 117.638Z" fill="#A2A2A2"/>
<path d="M26.7461 117.672L26.9704 117.963L26.7461 117.672Z" fill="#2F2F2F"/>
<path d="M22.3975 117.548L22.4631 117.729L22.3975 117.548Z" fill="#606060"/>
<path d="M26.5176 118.079L26.5832 118.26L26.5176 118.079Z" fill="#2F2F2F"/>
<path d="M5.01367 115.651L4.88068 116.681L5.13821 116.715L5.01367 115.651Z" fill="#606060"/>
<path d="M5.2716 115.685L3.73434 121.508L3.99187 121.541L4.84784 116.939L5.32964 117.263L5.2716 115.685Z" fill="#A2A2A2"/>
<path d="M22.0105 117.846L21.6864 118.328L22.0105 117.846Z" fill="#606060"/>
<path d="M25.8734 118.345L25.1922 119.566L25.4497 119.599L25.8734 118.345Z" fill="#A2A2A2"/>
<path d="M21.9775 118.104L22.2018 118.394L21.9775 118.104Z" fill="#A2A2A2"/>
<path d="M21.6862 118.328L21.329 119.067L21.6862 118.328Z" fill="#A2A2A2"/>
<path d="M25.8066 118.859L26.0309 119.15L25.8066 118.859Z" fill="#606060"/>
<path d="M4.62402 116.648L4.8483 116.939L4.62402 116.648Z" fill="#2F2F2F"/>
<path d="M25.4824 119.342L25.7067 119.633L25.4824 119.342Z" fill="#606060"/>
<path d="M20.7812 119.258L21.0055 119.549L20.7812 119.258Z" fill="#2F2F2F"/>
<path d="M24.9014 119.79L25.1256 120.081L24.9014 119.79Z" fill="#A2A2A2"/>
<path d="M5.29688 117.521L5.52115 117.811L5.29688 117.521Z" fill="#A2A2A2"/>
<path d="M24.5781 120.271L24.8024 120.562L24.5781 120.271Z" fill="#606060"/>
<path d="M20.4238 119.997L20.6481 120.288L20.4238 119.997Z" fill="#A2A2A2"/>
<path d="M20.1328 120.222L20.3571 120.512L20.1328 120.222Z" fill="#606060"/>
<path d="M24.2539 120.754L24.4782 121.045L24.2539 120.754Z" fill="#A2A2A2"/>
<path d="M4.13281 118.418L4.35709 118.709L4.13281 118.418ZM19.8418 120.446L20.066 120.737L19.8418 120.446Z" fill="#2F2F2F"/>
<path d="M20.0996 120.479L20.3239 120.77L20.0996 120.479ZM24.0252 121.162L24.0908 121.343L24.0252 121.162Z" fill="#A2A2A2"/>
<path d="M19.8093 120.703L19.452 121.442L19.8093 120.703Z" fill="#A2A2A2"/>
<path d="M23.6391 121.459L22.991 122.423L23.2486 122.456L23.6391 121.459Z" fill="#A2A2A2"/>
<path d="M23.6055 121.717L23.8297 122.008L23.6055 121.717Z" fill="#2F2F2F"/>
<path d="M19.1953 121.409L19.4196 121.7L19.1953 121.409Z" fill="#A2A2A2"/>
<path d="M18.5801 122.115L18.8044 122.406L18.5801 122.115Z" fill="#606060"/>
<path d="M22.7002 122.647L22.9245 122.938L22.7002 122.647Z" fill="#A2A2A2"/>
<path d="M22.958 122.681L23.1823 122.971L22.958 122.681Z" fill="#2F2F2F"/>
<path d="M4.89844 120.611L5.12271 120.902L4.89844 120.611Z" fill="#A2A2A2"/>
<path d="M18.2891 122.34L18.5133 122.631L18.2891 122.34Z" fill="#2F2F2F"/>
<path d="M18.5459 122.373L18.7702 122.664L18.5459 122.373Z" fill="#A2A2A2"/>
<path d="M5.08887 121.159L5.31314 121.45L5.08887 121.159Z" fill="#A2A2A2"/>
<path d="M5.3457 121.192L5.00478 125.861L5.26231 125.894L5.3457 121.192Z" fill="#2F2F2F"/>
<path d="M3.50977 121.217L3.73404 121.508L3.50977 121.217ZM17.6736 123.045L17.8979 123.336L17.6736 123.045Z" fill="#2F2F2F"/>
<path d="M17.9315 123.079L16.6686 124.749L17.9315 123.079Z" fill="#A2A2A2"/>
<path d="M3.47656 121.475L3.70084 121.765L3.47656 121.475ZM17.6404 123.303L17.8647 123.594L17.6404 123.303Z" fill="#606060"/>
<path d="M17.0254 124.01L17.2497 124.301L17.0254 124.01Z" fill="#2F2F2F"/>
<path d="M21.1465 124.541L21.3708 124.832L21.1465 124.541Z" fill="#A2A2A2"/>
<path d="M16.7354 124.234L16.9596 124.525L16.7354 124.234Z" fill="#2F2F2F"/>
<path d="M16.4447 124.458L15.7967 125.422L16.4447 124.458Z" fill="#2F2F2F"/>
<path d="M20.822 125.023L20.498 125.505L20.822 125.023Z" fill="#A2A2A2"/>
<path d="M20.7891 125.28L21.0133 125.571L20.7891 125.28Z" fill="#2F2F2F"/>
<path d="M16.3779 124.973L16.6022 125.263L16.3779 124.973Z" fill="#A2A2A2"/>
<path d="M20.5605 125.688L20.6262 125.87L20.5605 125.688Z" fill="#2F2F2F"/>
<path d="M15.7969 125.422L16.0212 125.713L15.7969 125.422Z" fill="#606060"/>
<path d="M19.917 125.954L20.1413 126.245L19.917 125.954Z" fill="#A2A2A2"/>
<path d="M15.1816 126.128L15.4059 126.419L15.1816 126.128Z" fill="#A2A2A2"/>
<path d="M19.5596 126.692L19.7838 126.983L19.5596 126.692Z" fill="#2F2F2F"/>
<path d="M19.2686 126.917L19.4928 127.208L19.2686 126.917Z" fill="#606060"/>
<path d="M4.81348 125.312L5.03775 125.603L4.81348 125.312Z" fill="#A2A2A2"/>
<path d="M14.8574 126.609L15.0817 126.9L14.8574 126.609ZM19.0405 127.325L19.1061 127.506L19.0405 127.325Z" fill="#606060"/>
<path d="M18.3633 127.848L18.5876 128.138L18.3633 127.848Z" fill="#606060"/>
<path d="M18.3301 128.105L18.5544 128.396L18.3301 128.105Z" fill="#2F2F2F"/>
<path d="M13.9189 127.797L14.1432 128.088L13.9189 127.797Z" fill="#A2A2A2"/>
<path d="M13.6286 128.022L13.2714 128.761L13.6286 128.022ZM17.749 128.553L17.9733 128.844L17.749 128.553Z" fill="#A2A2A2"/>
<path d="M17.5195 128.962L17.5852 129.143L17.5195 128.962Z" fill="#A2A2A2"/>
<path d="M12.7559 128.694L12.9801 128.985L12.7559 128.694Z" fill="#2F2F2F"/>
<path d="M17.1338 129.26L17.3581 129.551L17.1338 129.26Z" fill="#A2A2A2"/>
<path d="M12.432 129.176L11.8173 129.882L12.432 129.176Z" fill="#2F2F2F"/>
<path d="M4.67285 128.437L4.89713 128.727L4.67285 128.437Z" fill="#A2A2A2"/>
<path d="M4.92969 128.47L5.15396 128.76L4.92969 128.47Z" fill="#2F2F2F"/>
<path d="M12.3984 129.434L12.6227 129.724L12.3984 129.434ZM16.5188 129.966L16.1948 130.447L16.5188 129.966Z" fill="#A2A2A2"/>
<path d="M12.1074 129.658L12.3317 129.949L12.1074 129.658Z" fill="#A2A2A2"/>
<path d="M16.4854 130.224L16.7096 130.514L16.4854 130.224Z" fill="#2F2F2F"/>
<path d="M11.8164 129.883L12.0407 130.174L11.8164 129.883Z" fill="#606060"/>
<path d="M11.7842 130.14L12.0085 130.43L11.7842 130.14Z" fill="#A2A2A2"/>
<path d="M11.4932 130.364L11.7174 130.655L11.4932 130.364Z" fill="#A2A2A2"/>
<path d="M11.2021 130.589L11.4264 130.88L11.2021 130.589ZM15.3225 131.121L14.6745 132.084L14.932 132.118L15.3225 131.121Z" fill="#A2A2A2"/>
<path d="M15.5801 131.153L15.8044 131.444L15.5801 131.153Z" fill="#2F2F2F"/>
<path d="M15.29 131.378L15.5143 131.669L15.29 131.378Z" fill="#606060"/>
<path d="M15.2559 131.636L15.4801 131.927L15.2559 131.636ZM29.1622 133.431L29.3864 133.722L29.1622 133.431Z" fill="#2F2F2F"/>
<path d="M29.4199 133.464L29.6442 133.755L29.4199 133.464Z" fill="#606060"/>
<path d="M29.6777 133.497L29.902 133.788L29.6777 133.497Z" fill="#A2A2A2"/>
<path d="M29.9346 133.53L30.0924 134.336L30.3499 134.369L29.9346 133.53Z" fill="#606060"/>
<path d="M30.1924 133.563L30.4167 133.854L30.1924 133.563Z" fill="#2F2F2F"/>
<path d="M10.3301 131.261L10.5544 131.552L10.3301 131.261Z" fill="#2F2F2F"/>
<path d="M10.5879 131.294L10.8122 131.585L10.5879 131.294ZM14.9658 131.859L15.1901 132.15L14.9658 131.859ZM28.0995 133.555L28.0663 133.812L29.0964 133.945L28.0995 133.555Z" fill="#606060"/>
<path d="M29.1299 133.688L29.3542 133.979L29.1299 133.688Z" fill="#A2A2A2"/>
<path d="M10.2969 131.519L10.5212 131.809L10.2969 131.519Z" fill="#606060"/>
<path d="M10.0059 131.743L10.2301 132.034L10.0059 131.743Z" fill="#2F2F2F"/>
<path d="M10.2637 131.776L10.4879 132.067L10.2637 131.776Z" fill="#A2A2A2"/>
<path d="M14.4465 132.492L14.5121 132.673L14.4465 132.492ZM27.0025 133.937L27.2267 134.228L27.0025 133.937Z" fill="#2F2F2F"/>
<path d="M27.2598 133.971L27.484 134.261L27.2598 133.971Z" fill="#606060"/>
<path d="M29.8975 134.486L29.9631 134.668L29.8975 134.486Z" fill="#2F2F2F"/>
<path d="M9.97266 132.001L10.1969 132.292L9.97266 132.001Z" fill="#606060"/>
<path d="M26.4541 134.129L26.6784 134.42L26.4541 134.129Z" fill="#A2A2A2"/>
<path d="M14.0596 132.79L14.2838 133.081L14.0596 132.79ZM25.6481 134.286L25.8724 134.577L25.6481 134.286Z" fill="#2F2F2F"/>
<path d="M26.0674 134.427L26.226 134.536L26.0674 134.427Z" fill="#A2A2A2"/>
<path d="M29.5117 134.785L29.736 135.076L29.5117 134.785Z" fill="#606060"/>
<path d="M4.49805 131.817L4.28166 137.549L4.53919 137.583L4.49805 131.817Z" fill="#A2A2A2"/>
<path d="M4.75586 131.851L4.98014 132.141L4.75586 131.851Z" fill="#2F2F2F"/>
<path d="M9.39062 132.449L9.6149 132.74L9.39062 132.449ZM13.7685 133.014L13.9928 133.305L13.7685 133.014Z" fill="#606060"/>
<path d="M24.8428 134.443L25.067 134.734L24.8428 134.443Z" fill="#2F2F2F"/>
<path d="M25.0996 134.478L25.3239 134.768L25.0996 134.478Z" fill="#606060"/>
<path d="M25.5195 134.618L25.6782 134.728L25.5195 134.618Z" fill="#A2A2A2"/>
<path d="M29.2207 135.009L29.445 135.3L29.2207 135.009Z" fill="#606060"/>
<path d="M9.35742 132.707L9.5817 132.998L9.35742 132.707ZM13.4778 133.239L13.1538 133.721L13.4778 133.239Z" fill="#A2A2A2"/>
<path d="M24.4551 134.742L24.6137 134.852L24.4551 134.742Z" fill="#606060"/>
<path d="M24.8096 134.701L25.0338 134.992L24.8096 134.701ZM28.6724 135.2L28.8967 135.491L28.6724 135.2Z" fill="#A2A2A2"/>
<path d="M28.9297 135.233L29.154 135.524L28.9297 135.233Z" fill="#606060"/>
<path d="M9.06641 132.931L9.29068 133.221L9.06641 132.931ZM13.4443 133.496L13.6686 133.787L13.4443 133.496Z" fill="#606060"/>
<path d="M23.164 135.275L23.9698 135.117L23.164 135.275Z" fill="#2F2F2F"/>
<path d="M24.0039 134.859L24.2282 135.15L24.0039 134.859ZM28.6393 135.458L28.8636 135.749L28.6393 135.458Z" fill="#606060"/>
<path d="M8.77539 133.155L8.99967 133.446L8.77539 133.155Z" fill="#2F2F2F"/>
<path d="M13.1533 133.721L13.3776 134.011L13.1533 133.721Z" fill="#606060"/>
<path d="M23.4551 135.051L23.6794 135.342L23.4551 135.051Z" fill="#A2A2A2"/>
<path d="M28.3477 135.682L28.5719 135.972L28.3477 135.682Z" fill="#606060"/>
<path d="M12.863 133.944L12.539 134.426L12.863 133.944Z" fill="#606060"/>
<path d="M22.9062 135.241L23.1305 135.532L22.9062 135.241ZM27.7992 135.873L28.0235 136.164L27.7992 135.873Z" fill="#A2A2A2"/>
<path d="M28.0576 135.906L28.2819 136.197L28.0576 135.906Z" fill="#2F2F2F"/>
<path d="M8.45215 133.637L8.67642 133.927L8.45215 133.637Z" fill="#A2A2A2"/>
<path d="M12.8301 134.202L13.0544 134.493L12.8301 134.202ZM22.1009 135.399L22.3252 135.69L22.1009 135.399Z" fill="#2F2F2F"/>
<path d="M22.3584 135.433L22.5827 135.723L22.3584 135.433Z" fill="#A2A2A2"/>
<path d="M8.16084 133.861L7.83683 134.343L8.16084 133.861Z" fill="#606060"/>
<path d="M12.6016 134.61L12.6672 134.792L12.6016 134.61Z" fill="#2F2F2F"/>
<path d="M21.5527 135.59L21.777 135.881L21.5527 135.59Z" fill="#606060"/>
<path d="M21.9724 135.73L22.1311 135.84L21.9724 135.73ZM26.9613 136.288L27.1856 136.579L26.9613 136.288Z" fill="#A2A2A2"/>
<path d="M27.2188 136.321L27.443 136.612L27.2188 136.321Z" fill="#606060"/>
<path d="M8.12793 134.119L8.35221 134.41L8.12793 134.119Z" fill="#A2A2A2"/>
<path d="M12.249 134.65L12.4733 134.941L12.249 134.65ZM21.0048 135.781L21.2291 136.072L21.0048 135.781Z" fill="#606060"/>
<path d="M21.4226 135.922L21.5813 136.031L21.4226 135.922ZM26.4115 136.48L25.5725 136.895L25.5392 137.152L26.4115 136.48Z" fill="#A2A2A2"/>
<path d="M26.6699 136.513L26.8942 136.803L26.6699 136.513Z" fill="#606060"/>
<path d="M26.9277 136.546L27.152 136.837L26.9277 136.546Z" fill="#2F2F2F"/>
<path d="M7.83789 134.343L8.06217 134.634L7.83789 134.343ZM11.9583 134.875L12.1826 135.165L11.9583 134.875Z" fill="#A2A2A2"/>
<path d="M20.6172 136.079L20.7758 136.189L20.6172 136.079Z" fill="#606060"/>
<path d="M7.54688 134.567L7.77115 134.858L7.54688 134.567ZM11.6673 135.099L11.8915 135.39L11.6673 135.099Z" fill="#A2A2A2"/>
<path d="M19.8115 136.237L19.9702 136.347L19.8115 136.237Z" fill="#2F2F2F"/>
<path d="M20.166 136.196L20.3903 136.487L20.166 136.196Z" fill="#606060"/>
<path d="M26.0889 136.961L26.3131 137.252L26.0889 136.961Z" fill="#2F2F2F"/>
<path d="M7.25586 134.792L7.48014 135.083L7.25586 134.792ZM11.3762 135.324L10.4374 136.512L11.3762 135.324ZM19.617 136.388L19.8413 136.679L19.617 136.388ZM25.2825 137.119L25.5068 137.41L25.2825 137.119Z" fill="#A2A2A2"/>
<path d="M19.0684 136.578L19.2926 136.869L19.0684 136.578ZM24.7339 137.31L24.9582 137.6L24.7339 137.31Z" fill="#A2A2A2"/>
<path d="M24.9912 137.343L25.2155 137.634L24.9912 137.343Z" fill="#2F2F2F"/>
<path d="M6.93164 135.273L7.15592 135.564L6.93164 135.273Z" fill="#A2A2A2"/>
<path d="M11.3096 135.839L11.5338 136.13L11.3096 135.839ZM18.2627 136.737L18.487 137.027L18.2627 136.737Z" fill="#2F2F2F"/>
<path d="M18.6826 136.877L18.8413 136.986L18.6826 136.877Z" fill="#A2A2A2"/>
<path d="M24.4438 137.534L23.8955 137.725L23.8622 137.983L24.4438 137.534Z" fill="#606060"/>
<path d="M6.3835 135.465L6.05948 135.947L6.3835 135.465Z" fill="#2F2F2F"/>
<path d="M6.64062 135.498L6.8649 135.789L6.64062 135.498Z" fill="#A2A2A2"/>
<path d="M11.0186 136.062L11.2428 136.353L11.0186 136.062Z" fill="#2F2F2F"/>
<path d="M17.7143 136.927L17.166 137.118L17.1327 137.375L17.7143 136.927Z" fill="#606060"/>
<path d="M18.1338 137.068L18.2924 137.178L18.1338 137.068Z" fill="#A2A2A2"/>
<path d="M24.4102 137.792L24.6344 138.083L24.4102 137.792Z" fill="#2F2F2F"/>
<path d="M10.7285 136.287L10.9528 136.578L10.7285 136.287Z" fill="#2F2F2F"/>
<path d="M17.6816 137.185L17.9059 137.475L17.6816 137.185ZM22.2506 138.298L22.2173 138.556L23.5714 138.207L22.2506 138.298Z" fill="#A2A2A2"/>
<path d="M23.6045 137.949L23.8288 138.24L23.6045 137.949Z" fill="#606060"/>
<path d="M10.5002 136.695L10.5658 136.876L10.5002 136.695ZM16.3605 137.276L15.8122 137.467L15.779 137.725L16.3605 137.276Z" fill="#2F2F2F"/>
<path d="M16.78 137.417L16.9387 137.527L16.78 137.417ZM23.0566 138.141L23.2808 138.432L23.0566 138.141Z" fill="#606060"/>
<path d="M6.02637 136.204L6.25064 136.495L6.02637 136.204ZM10.1468 136.736L10.371 137.027L10.1468 136.736ZM16.3273 137.534L16.5516 137.825L16.3273 137.534Z" fill="#A2A2A2"/>
<path d="M22.5078 138.332L22.7321 138.623L22.5078 138.332Z" fill="#606060"/>
<path d="M5.73535 136.428L5.95963 136.719L5.73535 136.428Z" fill="#A2A2A2"/>
<path d="M15.5215 137.691L15.7458 137.982L15.5215 137.691Z" fill="#606060"/>
<path d="M15.7783 137.725L16.0026 138.015L15.7783 137.725ZM21.4438 138.456L21.6681 138.747L21.4438 138.456Z" fill="#A2A2A2"/>
<path d="M5.44434 136.652L5.66861 136.943L5.44434 136.652ZM9.56472 137.184L8.62591 138.372L8.88344 138.405L9.56472 137.184Z" fill="#A2A2A2"/>
<path d="M9.82227 137.218L10.0465 137.509L9.82227 137.218ZM14.7152 137.849L14.9395 138.14L14.7152 137.849Z" fill="#2F2F2F"/>
<path d="M14.9736 137.883L15.1979 138.174L14.9736 137.883Z" fill="#A2A2A2"/>
<path d="M20.8965 138.647L21.1208 138.938L20.8965 138.647Z" fill="#606060"/>
<path d="M5.2168 137.061L5.28244 137.242L5.2168 137.061Z" fill="#A2A2A2"/>
<path d="M9.53125 137.442L9.75553 137.733L9.53125 137.442Z" fill="#2F2F2F"/>
<path d="M14.168 138.04L14.3922 138.331L14.168 138.04Z" fill="#606060"/>
<path d="M14.5869 138.181L14.7455 138.29L14.5869 138.181Z" fill="#A2A2A2"/>
<path d="M9.24023 137.666L9.46451 137.957L9.24023 137.666ZM13.6181 138.231L13.8424 138.522L13.6181 138.231Z" fill="#606060"/>
<path d="M13.877 138.265L14.1012 138.555L13.877 138.265ZM19.5425 138.996L19.7668 139.287L19.5425 138.996Z" fill="#A2A2A2"/>
<path d="M18.1875 139.345L18.1543 139.602L19.2176 139.478L18.1875 139.345Z" fill="#A2A2A2"/>
<path d="M19.252 139.22L19.4762 139.51L19.252 139.22Z" fill="#606060"/>
<path d="M19.5088 139.254L19.7331 139.545L19.5088 139.254Z" fill="#2F2F2F"/>
<path d="M4.54004 137.583L4.76432 137.874L4.54004 137.583ZM8.91795 138.148L9.14222 138.439L8.91795 138.148Z" fill="#606060"/>
<path d="M11.459 138.738L11.4257 138.996L12.7466 138.905L11.459 138.738Z" fill="#2F2F2F"/>
<path d="M12.7793 138.646L13.0036 138.937L12.7793 138.646Z" fill="#A2A2A2"/>
<path d="M18.7021 139.411L18.9264 139.702L18.7021 139.411Z" fill="#2F2F2F"/>
<path d="M8.33594 138.597L8.56021 138.887L8.33594 138.597ZM11.1687 138.962L11.393 139.253L11.1687 138.962Z" fill="#2F2F2F"/>
<path d="M7.78809 138.787L8.01236 139.078L7.78809 138.787Z" fill="#A2A2A2"/>
<path d="M8.04492 138.821L8.2692 139.112L8.04492 138.821Z" fill="#2F2F2F"/>
<path d="M10.6201 139.153L10.8444 139.444L10.6201 139.153Z" fill="#606060"/>
<path d="M10.8779 139.187L11.1022 139.477L10.8779 139.187ZM16.2859 139.885L16.5102 140.175L16.2859 139.885Z" fill="#A2A2A2"/>
<path d="M16.7041 140.025L16.8627 140.135L16.7041 140.025Z" fill="#2F2F2F"/>
<path d="M1.31543 138.214L1.53971 138.505L1.31543 138.214ZM7.75353 139.045L7.9778 139.336L7.75353 139.045Z" fill="#606060"/>
<path d="M10.2332 139.451L10.3918 139.561L10.2332 139.451ZM15.4796 140.042L15.7039 140.333L15.4796 140.042Z" fill="#A2A2A2"/>
<path d="M15.8984 140.183L16.0571 140.292L15.8984 140.183Z" fill="#606060"/>
<path d="M1.54004 138.505L1.4403 139.277L1.69782 139.311L1.54004 138.505ZM7.46309 139.27L6.8483 139.976L7.46309 139.27Z" fill="#A2A2A2"/>
<path d="M7.7207 139.303L7.94498 139.594L7.7207 139.303ZM9.00832 139.469L9.2326 139.76L9.00832 139.469Z" fill="#2F2F2F"/>
<path d="M9.42773 139.609L9.58637 139.719L9.42773 139.609Z" fill="#606060"/>
<path d="M9.78027 139.568L10.0046 139.859L9.78027 139.568ZM13.5766 140.582L13.5434 140.84L15.155 140.524L13.5766 140.582Z" fill="#A2A2A2"/>
<path d="M15.1885 140.267L15.4128 140.557L15.1885 140.267Z" fill="#606060"/>
<path d="M15.4463 140.3L15.6706 140.591L15.4463 140.3Z" fill="#2F2F2F"/>
<path d="M8.87988 139.8L9.03852 139.909L8.87988 139.8Z" fill="#606060"/>
<path d="M7.13965 139.751L7.36392 140.042L7.13965 139.751Z" fill="#606060"/>
<path d="M8.42676 139.917L8.65103 140.208L8.42676 139.917Z" fill="#A2A2A2"/>
<path d="M13.835 140.615L14.0592 140.906L13.835 140.615Z" fill="#606060"/>
<path d="M1.69824 139.311L2.11355 140.15L1.69824 139.311Z" fill="#A2A2A2"/>
<path d="M6.84874 139.976L6.00968 140.391L5.97643 140.649L7.2973 140.557L6.84874 139.976Z" fill="#606060"/>
<path d="M7.62109 140.075L7.84537 140.366L7.62109 140.075Z" fill="#2F2F2F"/>
<path d="M12.7715 140.74L12.9958 141.031L12.7715 140.74Z" fill="#A2A2A2"/>
<path d="M13.0283 140.773L13.2526 141.064L13.0283 140.773Z" fill="#2F2F2F"/>
<path d="M6.81543 140.232L7.03971 140.523L6.81543 140.232Z" fill="#010101"/>
<path d="M11.9658 140.897L12.1901 141.188L11.9658 140.897Z" fill="#A2A2A2"/>
<path d="M12.2236 140.931L12.4479 141.221L12.2236 140.931Z" fill="#606060"/>
<path d="M6.6863 140.564L6.84493 140.674L6.6863 140.564ZM11.1601 141.056L11.3844 141.346L11.1601 141.056Z" fill="#A2A2A2"/>
<path d="M11.418 141.089L11.6422 141.38L11.418 141.089Z" fill="#606060"/>
<path d="M11.8369 141.229L11.9955 141.339L11.8369 141.229Z" fill="#2F2F2F"/>
<path d="M1.85547 140.116L2.07974 140.407L1.85547 140.116Z" fill="#606060"/>
<path d="M6.13844 140.756L6.29708 140.865L6.13844 140.756ZM10.3548 141.214L10.579 141.505L10.3548 141.214Z" fill="#A2A2A2"/>
<path d="M10.7734 141.354L10.9321 141.463L10.7734 141.354Z" fill="#606060"/>
<path d="M11.127 141.313L11.3512 141.604L11.127 141.313Z" fill="#2F2F2F"/>
<path d="M2.08008 140.407L2.30436 140.698L2.08008 140.407ZM7.93663 141.687L7.90339 141.944L10.0301 141.695L7.93663 141.687Z" fill="#A2A2A2"/>
<path d="M10.0635 141.438L10.2878 141.728L10.0635 141.438Z" fill="#606060"/>
<path d="M10.3203 141.471L10.5446 141.761L10.3203 141.471Z" fill="#2F2F2F"/>
<path d="M4.62207 140.997L4.84635 141.288L4.62207 140.997Z" fill="#A2A2A2"/>
<path d="M6.87402 141.812L7.0983 142.102L6.87402 141.812Z" fill="#606060"/>
<path d="M2.71973 141.537L2.944 141.828L2.71973 141.537Z" fill="#606060"/>
<path d="M4.52246 141.77L4.74674 142.06L4.52246 141.77Z" fill="#A2A2A2"/>
<path d="M3.20215 141.861L3.42642 142.152L3.20215 141.861Z" fill="#A2A2A2"/>
<path d="M3.16895 142.118L3.1357 142.376L4.19904 142.251L3.16895 142.118Z" fill="#606060"/>
<path d="M4.39268 142.101L4.55131 142.211L4.39268 142.101ZM3.6828 142.185L3.90708 142.476L3.6828 142.185Z" fill="#2F2F2F"/>
</svg>
