<svg width="266" height="60" viewBox="0 0 266 60" fill="none" xmlns="http://www.w3.org/2000/svg">
<path d="M79.6341 0.369141C72.0457 0.369141 0.714869 50.5522 0.714869 57.1483C0.714869 57.1618 0.714869 57.1747 0.714869 57.1875C0.714869 57.2004 0.714869 57.2029 0.714869 57.2096C0.713721 57.459 0.752202 57.707 0.828926 57.9447C1.0745 58.8171 1.76384 59.5296 3.01039 59.6099C3.0842 59.6217 3.15876 59.6285 3.23353 59.6301H3.23789C3.33118 59.6279 3.42423 59.6199 3.5165 59.6062C3.55327 59.6013 3.59316 59.5933 3.63243 59.5866C3.7122 59.5731 3.79697 59.5559 3.88734 59.5345L3.97336 59.5143C10.9541 57.794 47.0972 36.8674 61.0655 36.8674C75.6333 36.8674 114.32 59.6301 118.897 59.6301C119.442 59.6301 121.419 59.1302 121.419 57.212C121.419 52.9641 92.5023 33.8711 74.5089 23.9019C76.5221 23.3254 78.2542 23.0068 79.631 23.0068C94.4101 23.0068 150.079 59.6301 156.027 59.6301C157.819 59.6301 158.55 58.395 158.55 57.1508C158.555 50.5522 87.2225 0.369141 79.6341 0.369141Z" fill="#FFFFF7"/>
<path d="M163.584 39.5199H168.447V32.2643H173.773V27.9932H168.447V24.7514H173.979V20.4803H163.584V39.5199Z" fill="#FFFFF7"/>
<path d="M180.407 30.2317C180.407 35.1202 184.421 39.8801 190.416 39.8801C196.334 39.8801 200.502 35.3003 200.502 30.0001C200.502 24.6999 196.308 20.1201 190.442 20.1201C185.193 20.1201 180.407 23.9795 180.407 30.2059V30.2317ZM185.27 29.9487C185.27 27.2728 187.097 24.3912 190.467 24.3912C193.967 24.3912 195.639 27.5558 195.639 30.0258C195.639 32.4701 193.967 35.6091 190.519 35.6091C187.251 35.6091 185.27 32.8818 185.27 29.9744V29.9487Z" fill="#FFFFF7"/>
<path d="M207.875 39.5199H218.373V35.2489H212.738V20.4803H207.875V39.5199Z" fill="#FFFFF7"/>
<path d="M225.43 39.5199H230.293V31.2866L235.542 39.5199H241.46L234.539 29.9487L240.817 20.4803H235.722L230.293 29.0481V20.4803H225.43V39.5199Z" fill="#FFFFF7"/>
<path d="M252.395 36.7669H259.059L259.96 39.5199H265.286L257.979 20.4803H253.785L246.246 39.5199H251.521L252.395 36.7669ZM257.799 32.9075H253.605L255.663 26.2694L257.799 32.9075Z" fill="#FFFFF7"/>
</svg>
