<svg width="276" height="62" viewBox="0 0 276 62" fill="none" xmlns="http://www.w3.org/2000/svg">
<path d="M159.547 16.627C162.187 16.627 164.289 18.8034 164.289 21.3481C164.289 23.9565 162.137 26.0699 159.51 26.0699C156.871 26.0699 154.721 23.9425 154.721 21.3481C154.721 20.7272 154.846 20.1124 155.089 19.539C155.331 18.9656 155.686 18.4448 156.133 18.0064C156.581 17.5679 157.111 17.2204 157.695 16.9837C158.279 16.747 158.905 16.6258 159.537 16.627H159.547ZM159.51 17.5736C157.396 17.5736 155.756 19.2824 155.756 21.3481C155.756 23.4386 157.457 25.1232 159.51 25.1232C161.564 25.1232 163.248 23.4602 163.248 21.3481C163.248 19.3199 161.634 17.5736 159.521 17.5736H159.51ZM159.71 18.6806C160.736 18.6806 161.662 19.0979 161.662 20.1559C161.662 20.5859 161.512 21.1025 160.799 21.4219C161.187 21.5822 161.511 21.8405 161.562 22.6389C161.627 23.5493 161.627 23.6479 161.725 23.9176H160.436C160.336 23.7338 160.286 22.8361 160.261 22.6637C160.223 22.3685 160.149 21.9003 159.31 21.9003H158.785V23.9164H157.459V18.6806H159.71ZM158.785 19.5776V21.0535H159.422C159.698 21.0535 160.336 21.0535 160.336 20.2539C160.336 19.5897 159.773 19.5776 159.498 19.5776H158.785Z" fill="#FFFFF7"/>
<path d="M82.4556 0.230469C74.5754 0.230469 0.501002 52.3437 0.501002 59.1935C0.501002 59.2075 0.501002 59.2208 0.501002 59.2342C0.501002 59.2476 0.501002 59.2501 0.501002 59.2571C0.499811 59.5161 0.539771 59.7737 0.619446 60.0205C0.874462 60.9264 1.59032 61.6663 2.88482 61.7497C2.96146 61.762 3.03889 61.769 3.11653 61.7707H3.12106C3.21794 61.7684 3.31458 61.7601 3.41039 61.7459C3.44857 61.7408 3.49 61.7325 3.53077 61.7255C3.61362 61.7115 3.70164 61.6937 3.7955 61.6714L3.88482 61.6504C11.134 59.864 48.6673 38.1325 63.1728 38.1325C78.3009 38.1325 118.476 61.7707 123.229 61.7707C123.794 61.7707 125.848 61.2515 125.848 59.2596C125.848 54.8483 95.8187 35.0209 77.1333 24.6683C79.2239 24.0696 81.0226 23.7388 82.4524 23.7388C97.7999 23.7388 155.61 61.7707 161.787 61.7707C163.647 61.7707 164.406 60.4881 164.406 59.196C164.412 52.3437 90.3359 0.230469 82.4556 0.230469Z" fill="#FFFFF7"/>
<path d="M169.635 40.8862H174.685V33.3515H180.215V28.9162H174.685V25.5496H180.429V21.1143H169.635V40.8862Z" fill="#FFFFF7"/>
<path d="M187.105 31.2407C187.105 36.3173 191.273 41.2602 197.499 41.2602C203.644 41.2602 207.972 36.5043 207.972 31.0002C207.972 25.4962 203.617 20.7402 197.525 20.7402C192.075 20.7402 187.105 24.748 187.105 31.214V31.2407ZM192.155 30.9468C192.155 28.168 194.052 25.1755 197.552 25.1755C201.186 25.1755 202.923 28.462 202.923 31.027C202.923 33.5652 201.186 36.8249 197.606 36.8249C194.212 36.8249 192.155 33.9927 192.155 30.9735V30.9468Z" fill="#FFFFF7"/>
<path d="M215.63 40.8862H226.531V36.4509H220.679V21.1143H215.63V40.8862Z" fill="#FFFFF7"/>
<path d="M233.86 40.8862H238.91V32.3362L244.36 40.8862H250.506L243.318 30.9468L249.838 21.1143H244.547L238.91 30.0116V21.1143H233.86V40.8862Z" fill="#FFFFF7"/>
<path d="M261.862 38.0273H268.782L269.717 40.8862H275.248L267.66 21.1143H263.305L255.476 40.8862H260.954L261.862 38.0273ZM267.473 34.0195H263.118L265.255 27.126L267.473 34.0195Z" fill="#FFFFF7"/>
</svg>
