<svg width="54" height="20" viewBox="0 0 54 20" fill="none" xmlns="http://www.w3.org/2000/svg">
<path d="M0.683114 19.0533C0.683114 16.8537 24.47 0.119019 27.0005 0.119019C29.531 0.119019 53.3183 16.8537 53.3167 19.0541C53.3167 19.469 53.0728 19.8809 52.4755 19.8809C51.7055 19.8809 48.4373 18.0408 44.4382 15.7891C38.1346 12.2398 30.0149 7.66806 26.9995 7.66806C26.5403 7.66806 25.9627 7.77429 25.2914 7.96653C31.2917 11.291 40.9347 17.658 40.9347 19.0746C40.9347 19.7142 40.2752 19.8809 40.0937 19.8809C39.5454 19.8809 37.5296 18.9015 34.946 17.6464C30.3371 15.4071 23.9214 12.2902 20.8084 12.2902C17.6952 12.2902 11.279 15.4073 6.6705 17.6462C4.38356 18.7573 2.54179 19.652 1.76973 19.8423L1.74105 19.849C1.71091 19.8562 1.68264 19.8619 1.65604 19.8664C1.652 19.8671 1.64794 19.8678 1.64389 19.8686C1.63483 19.8702 1.62586 19.8718 1.61738 19.8729C1.58661 19.8775 1.55558 19.8802 1.52447 19.8809H1.52302C1.49808 19.8804 1.47322 19.8781 1.44861 19.8742C1.03292 19.8474 0.80304 19.6098 0.721149 19.3189C0.695563 19.2396 0.682731 19.1569 0.683114 19.0737V19.0533Z" fill="#FFFFF7"/>
<path fill-rule="evenodd" clip-rule="evenodd" d="M52.435 6.51784C52.435 6.1781 52.1378 6.04409 51.8084 6.04409H51.0853V7.72542H51.5111V7.07801H51.6799C51.9491 7.07801 51.973 7.22837 51.985 7.32317C51.9871 7.3374 51.9897 7.36705 51.993 7.40424C52.0025 7.51164 52.0176 7.68197 52.0414 7.72583H52.4552C52.4263 7.64623 52.424 7.61304 52.4077 7.38132C52.4062 7.36088 52.4047 7.33889 52.403 7.3152C52.3866 7.05881 52.2827 6.97587 52.158 6.92439C52.3868 6.82183 52.435 6.65594 52.435 6.51784ZM51.5111 6.8061V6.33214H51.7402C51.8285 6.33214 52.0093 6.33602 52.0093 6.5493C52.0093 6.8061 51.8044 6.8061 51.7159 6.8061H51.5111Z" fill="#FFFFF7"/>
<path fill-rule="evenodd" clip-rule="evenodd" d="M53.2787 6.90069C53.2787 6.08352 52.6038 5.38463 51.756 5.38463H51.7527C51.5498 5.38425 51.3489 5.42318 51.1613 5.49919C50.9738 5.57519 50.8033 5.68679 50.6597 5.82759C50.516 5.96839 50.402 6.13563 50.3242 6.31976C50.2464 6.50389 50.2062 6.7013 50.2061 6.90069C50.2061 7.73379 50.8965 8.41695 51.7441 8.41695C52.5876 8.41695 53.2787 7.73829 53.2787 6.90069ZM50.5386 6.90069C50.5386 6.23735 51.0653 5.68862 51.7441 5.68862H51.7475C52.4261 5.68862 52.9442 6.2494 52.9442 6.90069C52.9442 7.57894 52.4034 8.11296 51.7441 8.11296C51.0848 8.11296 50.5386 7.57199 50.5386 6.90069Z" fill="#FFFFF7"/>
</svg>
