<svg width="196" height="44" viewBox="0 0 196 44" fill="none" xmlns="http://www.w3.org/2000/svg">
<path d="M58.5914 0.119141C52.9876 0.119141 0.312518 37.1774 0.312518 42.0484C0.312518 42.0583 0.312518 42.0678 0.312518 42.0773C0.312518 42.0868 0.312518 42.0887 0.312518 42.0936C0.311671 42.2778 0.340088 42.461 0.396745 42.6365C0.57809 43.2807 1.08714 43.8069 2.00767 43.8661C2.06218 43.8749 2.11724 43.8799 2.17245 43.8811H2.17567C2.24456 43.8795 2.31328 43.8736 2.38141 43.8634C2.40857 43.8598 2.43803 43.8539 2.46702 43.8489C2.52594 43.839 2.58853 43.8263 2.65527 43.8105L2.71879 43.7956C7.87376 42.5252 34.5641 27.0717 44.8791 27.0717C55.6369 27.0717 84.2056 43.8811 87.5858 43.8811C87.9876 43.8811 89.448 43.5119 89.448 42.0954C89.448 38.9585 68.094 24.859 54.8066 17.4971C56.2933 17.0714 57.5723 16.8362 58.5891 16.8362C69.5029 16.8362 110.612 43.8811 115.005 43.8811C116.328 43.8811 116.867 42.969 116.867 42.0502C116.871 37.1774 64.1951 0.119141 58.5914 0.119141Z" fill="#FFFFF7"/>
<path d="M120.585 29.0301H124.176V23.6721H128.109V20.5181H124.176V18.1241H128.261V14.9701H120.585V29.0301Z" fill="#FFFFF7"/>
<path d="M133.008 22.1711C133.008 25.7811 135.972 29.2961 140.399 29.2961C144.769 29.2961 147.847 25.9141 147.847 22.0001C147.847 18.0861 144.75 14.7041 140.418 14.7041C136.542 14.7041 133.008 17.5541 133.008 22.1521V22.1711ZM136.599 21.9621C136.599 19.9861 137.948 17.8581 140.437 17.8581C143.021 17.8581 144.256 20.1951 144.256 22.0191C144.256 23.8241 143.021 26.1421 140.475 26.1421C138.062 26.1421 136.599 24.1281 136.599 21.9811V21.9621Z" fill="#FFFFF7"/>
<path d="M153.292 29.0301H161.044V25.8761H156.883V14.9701H153.292V29.0301Z" fill="#FFFFF7"/>
<path d="M166.256 29.0301H169.847V22.9501L173.723 29.0301H178.093L172.982 21.9621L177.618 14.9701H173.856L169.847 21.2971V14.9701H166.256V29.0301Z" fill="#FFFFF7"/>
<path d="M186.169 26.9971H191.09L191.755 29.0301H195.688L190.292 14.9701H187.195L181.628 29.0301H185.523L186.169 26.9971ZM190.159 24.1471H187.062L188.582 19.2451L190.159 24.1471Z" fill="#FFFFF7"/>
</svg>
