<svg width="42" height="38" viewBox="0 0 42 38" fill="none" xmlns="http://www.w3.org/2000/svg">
<path d="M0.496094 9.19141C0.496094 23.7617 9.22656 33.332 22.6641 33.332C27.8398 33.332 32.1953 31.4766 35.0469 28.3711C36.2188 30.6172 36.7461 33.2148 37.6641 36.1641C37.957 37.1016 38.6016 37.4336 39.2852 37.4336C40.7305 37.4336 41.8828 36.0859 41.8828 34.4648C41.8828 32.0039 39.3047 27.8828 37.293 25.0312C38.1914 23.1562 38.6797 21.0273 38.6797 18.7227C38.6797 10.5 31.9805 4.5625 22.7422 4.5625C19.5586 4.5625 16.3359 5.46094 12.7617 5.46094C9.75391 5.46094 7.15625 4.54297 5.00781 2.10156C3.875 0.773438 1.62891 0.65625 1.08203 2.90234C0.613281 4.79688 0.496094 8.13672 0.496094 9.19141ZM11.9219 13.7422C13.1523 17.5508 16.8438 19.0742 21.4531 20.207C27.7031 21.6914 30.75 22.9219 33.3086 25.8711C31.0234 28.6836 27.2734 30.3828 22.6641 30.3828C10.8867 30.3828 3.44531 22.1406 3.44531 9.19141C3.44531 7.90234 3.46484 6.45703 3.64062 5.40234C3.67969 5.14844 3.81641 5.12891 3.99219 5.28516C6.17969 7.27734 9.61719 8.41016 12.7617 8.41016C14.8711 8.41016 16.7852 8.13672 18.5039 7.90234C20.0664 7.6875 21.4336 7.51172 22.7422 7.51172C30.3594 7.51172 35.7305 12.1797 35.7305 18.7227C35.7305 20.0898 35.5156 21.3594 35.125 22.5312C32.3906 20.1094 28.3086 18.6055 22.4492 17.6484C18.7383 17.0234 15.457 16.0469 13.2109 13.1172C12.5859 12.2773 11.6289 12.8633 11.9219 13.7422Z" fill="#3CA06C"/>
</svg>
