<svg width="115" height="16" viewBox="0 0 115 16" fill="none" xmlns="http://www.w3.org/2000/svg">
<path d="M3.5228 15.0301L3.4088 4.5041L6.4488 15.0301H8.8238L11.8638 4.5041L11.7498 15.0301H15.0558V0.970102H10.2298L7.6648 10.0331L5.0238 0.970102H0.216797V15.0301H3.5228Z" fill="#FFFFF7"/>
<path d="M20.4145 8.1711C20.4145 11.7811 23.3785 15.2961 27.8055 15.2961C32.1755 15.2961 35.2535 11.9141 35.2535 8.0001C35.2535 4.0861 32.1565 0.704102 27.8245 0.704102C23.9485 0.704102 20.4145 3.5541 20.4145 8.1521V8.1711ZM24.0055 7.9621C24.0055 5.9861 25.3545 3.8581 27.8435 3.8581C30.4275 3.8581 31.6625 6.1951 31.6625 8.0191C31.6625 9.8241 30.4275 12.1421 27.8815 12.1421C25.4685 12.1421 24.0055 10.1281 24.0055 7.9811V7.9621Z" fill="#FFFFF7"/>
<path d="M43.9097 15.0301L43.7957 4.5041L46.8357 15.0301H49.2107L52.2507 4.5041L52.1367 15.0301H55.4427V0.970102H50.6167L48.0517 10.0331L45.4107 0.970102H40.6037V15.0301H43.9097Z" fill="#FFFFF7"/>
<path d="M61.4094 15.0301H69.3704V11.8761H65.0004V9.4631H69.2374V6.3091H65.0004V4.1241H69.3704V0.970102H61.4094V15.0301Z" fill="#FFFFF7"/>
<path d="M77.9645 0.970102H74.8675V15.0301H78.3065L78.2305 6.5561L83.6075 15.0301H86.7235V0.970102H83.2845L83.3605 9.5391L77.9645 0.970102Z" fill="#FFFFF7"/>
<path d="M94.3955 15.0301H97.9865V4.1241H100.741V0.970102H91.6215V4.1241H94.3955V15.0301Z" fill="#FFFFF7"/>
<path d="M104.808 10.3751C104.713 13.1301 106.195 15.2961 109.881 15.2961C113.605 15.2961 114.783 13.0351 114.783 10.7931C114.783 9.1591 114.118 7.9431 111.496 6.7651C108.969 5.6251 108.589 5.4541 108.589 4.8081C108.589 4.1431 109.197 3.7061 109.824 3.7061C110.926 3.7061 111.04 4.5991 111.116 5.0741H114.669C114.612 1.6921 111.876 0.704102 109.938 0.704102C107.582 0.704102 105.017 2.2051 105.017 5.0361C105.017 7.6771 107.468 8.6651 108.456 9.0641C110.622 9.9761 111.211 10.2041 111.211 10.9451C111.211 11.5911 110.698 12.2941 109.843 12.2941C109.387 12.2941 108.38 12.0091 108.38 10.3751H104.808Z" fill="#FFFFF7"/>
</svg>
