<svg width="652" height="274" viewBox="0 0 652 274" fill="none" xmlns="http://www.w3.org/2000/svg">
<path d="M489.434 87.5488L652 245.986H295.316L465.517 87.2846C469.766 83.3225 471.891 81.3415 474.302 80.6127C476.424 79.9712 478.692 79.9963 480.799 80.6844C483.193 81.4663 485.274 83.4938 489.434 87.5488Z" fill="url(#paint0_linear_758_4414)"/>
<path d="M515.761 219.247L522.031 207.962L528.782 219.247L527.818 220.019L531.29 225.324L530.326 227.06L537.753 240.949H506.694L514.411 226.192L513.253 224.841L517.015 220.019L515.761 219.247Z" fill="url(#paint1_linear_758_4414)"/>
<path d="M560.066 212.8L566.335 201.515L573.087 212.8L572.123 213.571L575.595 218.876L574.63 220.613L582.057 234.502H550.999L558.715 219.745L557.558 218.394L561.32 213.571L560.066 212.8Z" fill="url(#paint2_linear_758_4414)"/>
<path d="M538.543 212.448L548.842 193.91L559.933 212.448L558.349 213.716L564.053 222.43L562.468 225.282L574.669 248.098H523.649L536.325 223.856L534.424 221.638L540.603 213.716L538.543 212.448Z" fill="url(#paint3_linear_758_4414)"/>
<path d="M256.623 235.007L259.069 238.813L47.8236 238.481C42.9965 238.473 40.583 238.47 39.6257 237.58C38.7976 236.81 38.4163 235.672 38.6129 234.559C38.8402 233.272 40.7636 231.814 44.6105 228.898L139.632 156.872C143.064 154.271 144.78 152.97 146.651 152.522C148.301 152.128 150.029 152.199 151.641 152.728C153.469 153.327 155.072 154.765 158.279 157.639L238.424 229.473L239.137 229.206C243.09 227.723 245.067 226.982 246.958 227.074C248.626 227.155 250.241 227.691 251.627 228.623C253.198 229.68 254.34 231.455 256.623 235.007Z" fill="url(#paint4_linear_758_4414)"/>
<path d="M48.0555 227.407L142.813 154.643C144.113 153.645 144.762 153.146 146.112 152.979C146.842 152.888 148.874 153.365 149.488 153.771C150.622 154.521 150.561 154.397 150.585 154.446C151.091 155.48 151.308 157.001 151.059 159.397C150.249 167.167 136.408 173.642 140.375 184.326C143.548 192.873 152.057 206.881 155.915 212.816L157.904 227.407H48.0555Z" fill="url(#paint5_linear_758_4414)"/>
<path d="M202.44 227.128L216.471 258.307H185.978L200.008 227.128C200.394 226.27 200.587 225.842 200.855 225.709C201.088 225.594 201.361 225.594 201.593 225.709C201.861 225.842 202.054 226.27 202.44 227.128Z" fill="url(#paint6_linear_758_4414)"/>
<path d="M156.014 211.6L146.709 194.851L136.688 211.6L138.12 212.745L132.966 220.618L134.398 223.195L123.375 243.809H169.471L158.018 221.907L159.736 219.903L154.153 212.745L156.014 211.6Z" fill="url(#paint7_linear_758_4414)"/>
<path d="M139.084 206.604L129.779 189.854L119.759 206.604L121.19 207.749L116.037 215.622L117.468 218.199L106.445 238.813H152.541L141.089 216.911L142.806 214.907L137.223 207.749L139.084 206.604Z" fill="url(#paint8_linear_758_4414)"/>
<path d="M71.1206 211.6L61.8155 194.851L51.7948 211.6L53.2263 212.745L48.0728 220.618L49.5043 223.195L38.4814 243.809H84.5771L73.1248 221.907L74.8426 219.903L69.2596 212.745L71.1206 211.6Z" fill="url(#paint9_linear_758_4414)"/>
<path d="M90.2583 202.03L80.9532 185.281L70.9325 202.03L72.364 203.176L67.2105 211.049L68.642 213.626L57.6191 234.24H103.715L92.2625 212.337L93.9803 210.333L88.3973 203.176L90.2583 202.03Z" fill="url(#paint10_linear_758_4414)"/>
<path d="M122.201 201.509L106.915 173.995L90.4544 201.509L92.806 203.39L84.3402 216.324L86.6918 220.556L68.5846 254.419H144.306L125.493 218.44L128.315 215.148L119.144 203.39L122.201 201.509Z" fill="url(#paint11_linear_758_4414)"/>
<path d="M97.7461 251.765C96.7813 252.868 93.2325 252.935 91.5787 252.83C79.2955 253.077 78.3754 251.765 78.1496 249.827C77.6328 245.391 74.058 241.989 73.3689 241.041C79.3986 242.247 82.8585 246.654 83.8347 248.707C85.1096 240.92 81.8966 236.16 80.1308 234.753L83.361 236.217C89.4596 239.18 90.0798 245.176 90.3813 247.157C90.8981 240.524 98.1768 236.303 99.4688 235.787C94.5073 239.232 93.7837 247.157 94.0421 250.689C96.8416 245.52 104.12 243.41 102.828 244.4C95.2481 250.387 98.952 250.387 97.7461 251.765Z" fill="url(#paint12_linear_758_4414)"/>
<path d="M82.543 251.248C82.2415 250.373 81.182 248.277 79.3559 246.898C79.7722 247.903 80.9925 250.18 82.543 251.248Z" fill="black"/>
<path d="M88.1416 250.042C88.0555 247.602 87.263 241.988 84.7822 239.06C85.5431 241.199 87.2802 246.39 88.1416 250.042Z" fill="black"/>
<path d="M94.6455 241.256C93.6118 242.993 91.4928 247.346 91.2861 250.86C91.0564 248.606 91.4067 243.53 94.6455 241.256Z" fill="black"/>
<path d="M77.805 16.2177H32.5616C30.5401 10.5382 37.0138 8.95792 40.5033 8.8777C40.5033 8.8777 42.5325 3.65909 48.4293 1.58275C55.2639 -0.823814 61.5206 2.9014 63.125 4.90687C75.0615 4.61808 77.8853 12.3271 77.805 16.2177Z" fill="url(#paint13_linear_758_4414)"/>
<path d="M0.38938 34.07H29.0368C30.3168 30.4738 26.2178 29.4732 24.0083 29.4224C24.0083 29.4224 22.7234 26.1181 18.9897 24.8034C14.6621 23.2796 10.7004 25.6383 9.68458 26.9081C2.12653 26.7253 0.338593 31.6065 0.38938 34.07Z" fill="url(#paint14_linear_758_4414)"/>
<path d="M625.304 51.5476H649.265C650.336 48.4781 646.907 47.624 645.059 47.5806C645.059 47.5806 643.984 44.7602 640.861 43.638C637.242 42.3373 633.928 44.3507 633.078 45.4346C626.757 45.2785 625.261 49.4449 625.304 51.5476Z" fill="url(#paint15_linear_758_4414)"/>
<ellipse cx="382.216" cy="116.62" rx="9.57395" ry="17.4536" transform="rotate(-108.048 382.216 116.62)" fill="url(#paint16_linear_758_4414)"/>
<path d="M321.466 27.5607C319.575 23.8699 315.727 24.8976 314.039 25.8728L308.413 27.5607L306.669 33.7494L309.707 38.2504L316.346 39.6569C318.897 39.7694 324.954 39.4994 328.78 37.519C333.562 35.0435 333.9 33.6932 333.9 32.0616C333.72 29.226 331.012 29.5673 329.68 30.0924C329.943 28.6296 329.68 25.6027 326.529 25.1977C323.379 24.7926 321.878 26.5104 321.466 27.5607Z" fill="url(#paint17_linear_758_4414)"/>
<path d="M290.145 91.7365C291.82 100.114 293.813 124.997 282.988 127.704C282.19 129.997 278.868 139.1 278.868 139.578C278.868 140.057 290.942 152.471 292.538 157.857L323.953 156.66C327.842 154.964 346.313 129.855 339.607 129.855C321.815 129.855 321.26 114.475 321.26 111.782C334.663 108.91 336.618 75.6802 335.92 59.4244L335.621 53.4407L317.071 41.7725L306.899 45.0635L303.309 47.7562L294.034 58.2277L288.649 72.2894C288.05 71.5913 286.674 70.0754 285.956 69.5967C279.075 67.2033 274.587 73.4862 277.579 81.265C280.451 89.8815 286.953 90.8389 289.845 90.2406L290.145 91.7365Z" fill="url(#paint18_linear_758_4414)"/>
<path d="M250.266 139.577C249.835 139.805 249.463 140.014 249.155 140.205C249.514 139.975 249.885 139.764 250.266 139.577C256.877 136.088 277.227 128.504 287.152 124.946C292.238 133.423 303.05 146.528 318.608 143.656C330.306 141.496 332.457 132.905 330.861 127.918C349.482 126.957 368.411 131.648 378.703 152.471L401.74 202.735C403.894 210.154 372.22 241.429 329.935 256.289C293.65 273.199 273.888 253.476 258.729 250.284L259.627 229.063L262.918 195.554C270.224 141.9 258.147 135.706 250.266 139.577Z" fill="url(#paint19_linear_758_4414)"/>
<path d="M291.055 92.7754C300.166 110.998 314.835 113.245 321.03 112.091C321.577 116.556 322.306 119.289 322.944 120.382C300.713 120.109 291.055 95.4176 291.055 92.7754Z" fill="url(#paint20_linear_758_4414)"/>
<path d="M359.579 99.34C356.575 98.0689 352.14 91.6124 347.418 87.8103L348.168 63.4981C349.396 63.0166 352.198 61.3315 353.585 58.4427C355.318 58.3705 360.012 57.4316 364.923 54.2539C365.718 54.2539 382.328 58.5355 385.145 84.8237C388.395 102.879 393.089 117.756 395.978 118.839C389.719 124.4 377.23 134.237 377.345 129.095C377.489 122.713 374.784 113.056 374.251 111.152L374.24 111.112C372.868 109.74 371.712 108.945 369.184 104.468C366.657 99.99 363.334 100.929 359.579 99.34Z" fill="url(#paint21_linear_758_4414)"/>
<path d="M319.388 66.5028C307.305 67.149 304.985 72.7488 305.335 75.468C304.495 83.9325 315.7 86.264 321.407 86.3716L331.503 74.6603C332.5 71.6719 331.471 65.8567 319.388 66.5028Z" fill="url(#paint22_linear_758_4414)"/>
<path d="M354.13 66.5028C342.047 67.149 339.726 72.7488 340.076 75.468C339.236 83.9325 350.441 86.264 356.149 86.3716L366.245 74.6603C367.241 71.6719 366.212 65.8567 354.13 66.5028Z" fill="url(#paint23_linear_758_4414)"/>
<path d="M268.005 85.7531C261.123 100.712 261.423 110.586 268.603 114.475C277.348 118.527 286.426 113.853 291.051 110.105C291.402 98.9488 290.365 92.236 289.802 90.2741C278.881 91.8862 273.426 75.6218 278.881 70.6511L280.127 69.7616L282.158 69.0797H284.263C284.732 69.223 285.766 69.5392 286.145 69.6578C286.75 70.1559 288.066 71.62 288.649 72.2897L291.94 67.2036L310.19 45.0638C322.157 39.3195 331.133 43.0693 334.125 45.6622L333.526 42.072C331.432 32.1988 320.362 36.6866 311.387 36.0883C309.951 27.2324 316.174 25.2178 319.465 25.3176C317.37 22.0265 314.379 19.3338 312.284 19.0347C307.497 17.8379 285.956 27.7111 277.28 36.0883C270.338 42.79 276.382 58.0285 280.271 64.8101C276.681 69.8963 270.757 79.7694 268.005 85.7531Z" fill="url(#paint24_linear_758_4414)"/>
<path d="M296.396 58.6563C283.252 78.2723 269.967 82.222 264.968 81.7449C283.439 85.0806 298.138 66.0414 303.179 56.1048C308.257 58.5941 313.717 57.9303 315.812 57.2872C313.622 55.4949 313.572 53.8851 313.821 53.3043C320.343 59.1791 325.79 57.868 327.699 56.4782C337.532 63.5728 342.801 55.1298 344.564 51.1883C338.341 52.433 336.741 44.28 327.699 42.5713C321.376 41.3764 313.369 42.6031 311.793 44.3664C307.006 45.8624 306.083 48.3463 305.668 49.9437C299.818 50.8772 299.072 54.2378 296.396 58.6563Z" fill="url(#paint25_linear_758_4414)"/>
<path d="M365.239 121.057C367.154 131.349 369.727 140.349 378.703 152.471L386.977 229.452C429.262 214.593 424.538 184.425 422.384 177.005C420.23 169.585 406.128 130.431 399.346 111.782C380.199 128.297 368.63 124.847 365.239 121.057Z" fill="url(#paint26_linear_758_4414)"/>
<path d="M322.02 38.5268C322.02 39.2551 321.632 39.8455 321.153 39.8455C320.673 39.8455 320.285 39.2551 320.285 38.5268C320.285 37.7984 320.673 37.208 321.153 37.208C321.632 37.208 322.02 37.7984 322.02 38.5268Z" fill="#C4C4C4"/>
<path d="M330.704 39.8455C330.704 40.5738 330.316 41.1643 329.837 41.1643C329.358 41.1643 328.969 40.5738 328.969 39.8455C328.969 39.1172 329.358 38.5268 329.837 38.5268C330.316 38.5268 330.704 39.1172 330.704 39.8455Z" fill="#C4C4C4"/>
<path d="M311.138 40.7094C311.617 40.7094 312.005 40.119 312.005 39.3907C312.005 38.6623 311.617 38.0719 311.138 38.0719C310.659 38.0719 310.271 38.6623 310.271 39.3907C310.271 40.119 310.659 40.7094 311.138 40.7094Z" fill="#C4C4C4"/>
<path d="M329.646 92.687C322.553 92.687 316.804 85.4006 316.804 76.4124C316.804 67.4241 322.553 60.1377 329.646 60.1377C333.862 60.1377 336.244 60.1377 340.461 60.1377C347.553 60.1377 353.303 67.4241 353.303 76.4124C353.303 85.4006 347.553 92.687 340.461 92.687C336.244 92.687 333.862 92.687 329.646 92.687Z" fill="url(#paint27_linear_758_4414)"/>
<path d="M364.387 92.687C357.295 92.687 351.545 85.4006 351.545 76.4124C351.545 67.4241 357.295 60.1377 364.387 60.1377C368.603 60.1377 370.986 60.1377 375.202 60.1377C382.294 60.1377 388.044 67.4241 388.044 76.4124C388.044 85.4006 382.294 92.687 375.202 92.687C370.986 92.687 368.603 92.687 364.387 92.687Z" fill="url(#paint28_linear_758_4414)"/>
<ellipse cx="339.075" cy="76.4124" rx="14.8252" ry="16.2747" fill="url(#paint29_linear_758_4414)"/>
<ellipse cx="373.816" cy="76.4124" rx="14.8252" ry="16.2747" fill="url(#paint30_linear_758_4414)"/>
<ellipse rx="11.6682" ry="12.5658" transform="matrix(1 0 0 -1 373.724 76.3795)" fill="url(#paint31_linear_758_4414)"/>
<ellipse rx="11.6682" ry="12.5658" transform="matrix(1 0 0 -1 338.42 76.3795)" fill="url(#paint32_linear_758_4414)"/>
<path d="M292.816 253.736V149.041L333.941 168.476L334.48 273.2L292.816 253.736Z" fill="url(#paint33_linear_758_4414)"/>
<path d="M375.312 253.519V149.041L416.975 168.436V273.2L375.312 253.519Z" fill="url(#paint34_linear_758_4414)"/>
<path d="M375.312 253.519V149.041L334.481 168.436V273.2L375.312 253.519Z" fill="url(#paint35_linear_758_4414)"/>
<ellipse cx="271.385" cy="232.105" rx="9.57395" ry="18.5382" transform="rotate(-6.48387 271.385 232.105)" fill="url(#paint36_linear_758_4414)"/>
<path d="M278.775 201.838C273.988 210.693 268.403 216.298 266.209 217.994C263.337 226.131 264.414 234.549 265.311 237.74C268.902 236.842 277.339 234.329 282.365 231.457C287.391 228.585 293.535 221.584 296.127 218.293C304.804 216.498 310.189 216.498 316.472 216.797C320.543 216.991 319.763 213.207 317.37 212.907L297.025 210.813C304.505 210.913 320.062 211.052 322.456 210.813C325.448 210.514 325.448 206.625 323.054 206.325C313.241 205.607 301.313 204.331 295.828 203.633C302.809 203.333 317.609 202.795 320.96 203.034C325.149 203.333 326.644 200.94 325.747 199.145C320.481 196.991 305.003 196.452 297.923 196.452C303.906 191.964 317.071 194.059 320.062 193.76C322.456 193.52 321.658 191.266 320.96 190.169C307.197 185.083 293.167 191.067 287.451 191.067C282.664 191.067 282.066 194.657 278.775 201.838Z" fill="url(#paint37_linear_758_4414)"/>
<path d="M206.372 252.4C256.157 257.187 272.592 252.998 274.586 250.306C267.107 245.219 257.832 228.585 269.799 213.506C265.212 214.603 253.524 216.617 243.471 215.899C243.471 213.984 256.436 201.538 262.918 195.555C266.309 173.016 268.304 130.392 249.156 140.205C219.536 160.849 195.302 215.301 191.413 228.166C187.523 241.031 194.405 250.904 206.372 252.4Z" fill="url(#paint38_linear_758_4414)"/>
<defs>
<linearGradient id="paint0_linear_758_4414" x1="477.38" y1="201.925" x2="485.623" y2="76.5586" gradientUnits="userSpaceOnUse">
<stop/>
<stop offset="1" stop-color="#303030"/>
</linearGradient>
<linearGradient id="paint1_linear_758_4414" x1="522.767" y1="245.019" x2="527.722" y2="194.586" gradientUnits="userSpaceOnUse">
<stop/>
<stop offset="1" stop-color="#2E2E2E"/>
</linearGradient>
<linearGradient id="paint2_linear_758_4414" x1="567.072" y1="238.572" x2="572.027" y2="188.139" gradientUnits="userSpaceOnUse">
<stop/>
<stop offset="1" stop-color="#2E2E2E"/>
</linearGradient>
<linearGradient id="paint3_linear_758_4414" x1="550.052" y1="254.783" x2="555.976" y2="194.492" gradientUnits="userSpaceOnUse">
<stop/>
<stop offset="1" stop-color="#303030"/>
</linearGradient>
<linearGradient id="paint4_linear_758_4414" x1="-55.2179" y1="355.04" x2="-67.7999" y2="-7.63879" gradientUnits="userSpaceOnUse">
<stop/>
<stop offset="1" stop-color="#303030"/>
</linearGradient>
<linearGradient id="paint5_linear_758_4414" x1="101.642" y1="264.713" x2="94.4201" y2="148.611" gradientUnits="userSpaceOnUse">
<stop/>
<stop offset="1" stop-color="#131313"/>
</linearGradient>
<linearGradient id="paint6_linear_758_4414" x1="200.69" y1="262.487" x2="196.819" y2="224.824" gradientUnits="userSpaceOnUse">
<stop/>
<stop offset="1" stop-color="#303030"/>
</linearGradient>
<linearGradient id="paint7_linear_758_4414" x1="145.616" y1="249.849" x2="138.262" y2="174.998" gradientUnits="userSpaceOnUse">
<stop/>
<stop offset="1"/>
</linearGradient>
<linearGradient id="paint8_linear_758_4414" x1="128.686" y1="244.853" x2="123.334" y2="190.38" gradientUnits="userSpaceOnUse">
<stop/>
<stop offset="1" stop-color="#303030"/>
</linearGradient>
<linearGradient id="paint9_linear_758_4414" x1="60.7222" y1="249.849" x2="55.3706" y2="195.376" gradientUnits="userSpaceOnUse">
<stop/>
<stop offset="1" stop-color="#303030"/>
</linearGradient>
<linearGradient id="paint10_linear_758_4414" x1="79.8599" y1="240.28" x2="72.5063" y2="165.429" gradientUnits="userSpaceOnUse">
<stop/>
<stop offset="1"/>
</linearGradient>
<linearGradient id="paint11_linear_758_4414" x1="105.119" y1="264.341" x2="96.3284" y2="174.859" gradientUnits="userSpaceOnUse">
<stop/>
<stop offset="1" stop-color="#303030"/>
</linearGradient>
<linearGradient id="paint12_linear_758_4414" x1="86.9327" y1="256.588" x2="86.4225" y2="234.782" gradientUnits="userSpaceOnUse">
<stop stop-color="#050505"/>
<stop offset="1" stop-color="#535353"/>
</linearGradient>
<linearGradient id="paint13_linear_758_4414" x1="55.8723" y1="27.3411" x2="57.5052" y2="0.90565" gradientUnits="userSpaceOnUse">
<stop/>
<stop offset="1" stop-color="#222222"/>
</linearGradient>
<linearGradient id="paint14_linear_758_4414" x1="14.2769" y1="41.1132" x2="13.243" y2="24.3746" gradientUnits="userSpaceOnUse">
<stop/>
<stop offset="1" stop-color="#222222"/>
</linearGradient>
<linearGradient id="paint15_linear_758_4414" x1="636.919" y1="57.5594" x2="636.019" y2="43.2743" gradientUnits="userSpaceOnUse">
<stop/>
<stop offset="1" stop-color="#222222"/>
</linearGradient>
<linearGradient id="paint16_linear_758_4414" x1="385.733" y1="92.7872" x2="354.017" y2="124.268" gradientUnits="userSpaceOnUse">
<stop stop-color="#3A3A3A"/>
<stop offset="1" stop-color="#1D1D1D"/>
</linearGradient>
<linearGradient id="paint17_linear_758_4414" x1="318.366" y1="24.958" x2="306.802" y2="47.507" gradientUnits="userSpaceOnUse">
<stop stop-color="#282828"/>
<stop offset="1" stop-color="#6B6B6B"/>
</linearGradient>
<linearGradient id="paint18_linear_758_4414" x1="333.091" y1="146.555" x2="262.749" y2="112.043" gradientUnits="userSpaceOnUse">
<stop stop-color="#A7A7A7"/>
<stop offset="1" stop-color="#CBCBCB"/>
</linearGradient>
<linearGradient id="paint19_linear_758_4414" x1="281.567" y1="254.451" x2="311.011" y2="133.516" gradientUnits="userSpaceOnUse">
<stop stop-color="#727272"/>
<stop offset="1" stop-color="#1D1D1D"/>
</linearGradient>
<linearGradient id="paint20_linear_758_4414" x1="319" y1="117.695" x2="297.853" y2="96.099" gradientUnits="userSpaceOnUse">
<stop stop-color="#929292"/>
<stop offset="1" stop-color="#B3B3B3"/>
</linearGradient>
<linearGradient id="paint21_linear_758_4414" x1="389.972" y1="123.11" x2="340.011" y2="94.9933" gradientUnits="userSpaceOnUse">
<stop stop-color="#A7A7A7"/>
<stop offset="1" stop-color="#CBCBCB"/>
</linearGradient>
<linearGradient id="paint22_linear_758_4414" x1="313.808" y1="84.2417" x2="325.473" y2="73.4354" gradientUnits="userSpaceOnUse">
<stop stop-color="#535353"/>
<stop offset="1" stop-color="#2B2B2B"/>
</linearGradient>
<linearGradient id="paint23_linear_758_4414" x1="348.549" y1="84.2417" x2="360.214" y2="73.4354" gradientUnits="userSpaceOnUse">
<stop stop-color="#535353"/>
<stop offset="1" stop-color="#2B2B2B"/>
</linearGradient>
<linearGradient id="paint24_linear_758_4414" x1="268.235" y1="112.377" x2="324.718" y2="42.2978" gradientUnits="userSpaceOnUse">
<stop stop-color="#282828"/>
<stop offset="1" stop-color="#6B6B6B"/>
</linearGradient>
<linearGradient id="paint25_linear_758_4414" x1="299.158" y1="41.9055" x2="297.771" y2="81.8894" gradientUnits="userSpaceOnUse">
<stop stop-color="#282828"/>
<stop offset="1" stop-color="#6B6B6B"/>
</linearGradient>
<linearGradient id="paint26_linear_758_4414" x1="405.479" y1="107.822" x2="387.911" y2="194.994" gradientUnits="userSpaceOnUse">
<stop stop-color="#1D1D1D"/>
<stop offset="1" stop-color="#383838"/>
</linearGradient>
<linearGradient id="paint27_linear_758_4414" x1="330.114" y1="55.6351" x2="358.014" y2="70.2427" gradientUnits="userSpaceOnUse">
<stop stop-color="#111111"/>
<stop offset="1" stop-color="#252525"/>
</linearGradient>
<linearGradient id="paint28_linear_758_4414" x1="364.855" y1="55.6351" x2="392.755" y2="70.2427" gradientUnits="userSpaceOnUse">
<stop stop-color="#111111"/>
<stop offset="1" stop-color="#252525"/>
</linearGradient>
<linearGradient id="paint29_linear_758_4414" x1="344.43" y1="58.647" x2="339.379" y2="92.0314" gradientUnits="userSpaceOnUse">
<stop stop-color="#1D1D1D"/>
<stop offset="1" stop-color="#3A3A3A"/>
</linearGradient>
<linearGradient id="paint30_linear_758_4414" x1="379.171" y1="58.647" x2="374.12" y2="92.0314" gradientUnits="userSpaceOnUse">
<stop stop-color="#1D1D1D"/>
<stop offset="1" stop-color="#3A3A3A"/>
</linearGradient>
<linearGradient id="paint31_linear_758_4414" x1="15.8825" y1="-1.15096" x2="12.0536" y2="24.6471" gradientUnits="userSpaceOnUse">
<stop stop-color="#1D1D1D"/>
<stop offset="1" stop-color="#3A3A3A"/>
</linearGradient>
<linearGradient id="paint32_linear_758_4414" x1="15.8825" y1="-1.15096" x2="12.0536" y2="24.6471" gradientUnits="userSpaceOnUse">
<stop stop-color="#1D1D1D"/>
<stop offset="1" stop-color="#3A3A3A"/>
</linearGradient>
<linearGradient id="paint33_linear_758_4414" x1="294.719" y1="149.361" x2="325.944" y2="231.63" gradientUnits="userSpaceOnUse">
<stop stop-color="#141414"/>
<stop offset="1" stop-color="#363636"/>
</linearGradient>
<linearGradient id="paint34_linear_758_4414" x1="406.914" y1="156.574" x2="349.341" y2="180.264" gradientUnits="userSpaceOnUse">
<stop stop-color="#292929"/>
<stop offset="1" stop-color="#363636"/>
</linearGradient>
<linearGradient id="paint35_linear_758_4414" x1="380.066" y1="146.715" x2="343.78" y2="146.308" gradientUnits="userSpaceOnUse">
<stop stop-color="#252525"/>
<stop offset="1" stop-color="#111111"/>
</linearGradient>
<linearGradient id="paint36_linear_758_4414" x1="262.312" y1="227.311" x2="268.079" y2="252.109" gradientUnits="userSpaceOnUse">
<stop stop-color="#727272"/>
<stop offset="1" stop-color="#1D1D1D"/>
</linearGradient>
<linearGradient id="paint37_linear_758_4414" x1="318.373" y1="232.909" x2="280.522" y2="191.332" gradientUnits="userSpaceOnUse">
<stop stop-color="#A7A7A7"/>
<stop offset="1" stop-color="#CBCBCB"/>
</linearGradient>
<linearGradient id="paint38_linear_758_4414" x1="247.672" y1="133.457" x2="225.451" y2="250.76" gradientUnits="userSpaceOnUse">
<stop stop-color="#1D1D1D"/>
<stop offset="1" stop-color="#383838"/>
</linearGradient>
</defs>
</svg>
