<svg width="380" height="244" viewBox="0 0 380 244" fill="none" xmlns="http://www.w3.org/2000/svg">
<path d="M210.54 229.901C197.796 227.848 188.175 232.313 178.923 231.03C171.545 230.006 167.7 222.543 157.785 220.429C160.143 219.038 162.89 217.298 164.204 216.034C166.756 213.576 170.419 208.661 164.204 208.467C159.732 208.327 156.247 215.777 154.645 219.969C153.177 219.846 151.588 219.837 149.856 219.965C151.903 213.369 155.895 200.602 156.871 198.15C158.198 194.813 152.619 183.686 146.044 196.173C141.43 204.931 144.562 215.054 146.845 220.317C145.043 220.608 143.343 221.026 141.718 221.535C136.285 209.136 118.997 173.79 100.258 178.183C79.828 182.97 123.598 206.733 134.636 224.351C125.618 228.531 117.695 233.608 103.997 229.901C67.5982 220.046 64.7109 242.219 64.7109 242.219L227.375 242.273C227.375 242.273 223.283 231.951 210.54 229.901Z" fill="black" fill-opacity="0.13"/>
<path d="M166.297 150.115C166.463 151.679 168.679 151.623 171.182 151.248C173.685 150.873 173.039 151.53 176.559 151.463C180.078 151.395 181.254 150.192 181.406 149.684C181.544 149.233 179.836 148.913 178.008 148.532C177.778 148.485 177.548 148.434 177.317 148.385C175.257 147.933 173.851 146.448 172.059 145.17C170.359 143.96 169.215 138.413 169.215 138.413L164.211 138.384C164.211 138.384 165.783 143.4 166.603 145.144C167.083 146.171 166.571 147.488 166.408 148.475C166.322 149.013 166.237 149.563 166.297 150.115Z" fill="#F8F9FA"/>
<path d="M171.179 151.248C173.682 150.873 173.035 151.53 176.556 151.463C180.074 151.395 181.25 150.192 181.403 149.684C181.54 149.233 179.833 148.913 178.005 148.532L177.984 148.566C177.984 148.566 175.76 149.857 172.852 149.663C170.483 149.504 168.041 148.598 166.405 148.475C166.318 149.013 166.233 149.563 166.294 150.115C166.46 151.679 168.676 151.623 171.179 151.248Z" fill="#2D2D2D"/>
<path d="M127.164 149.865C127.273 151.435 129.488 151.463 132.004 151.182C134.52 150.902 133.849 151.535 137.369 151.599C140.888 151.665 142.107 150.506 142.281 150.004C142.433 149.558 140.741 149.175 138.928 148.725C138.7 148.67 138.472 148.61 138.244 148.551C136.201 148.022 134.851 146.486 133.108 145.142C131.457 143.868 132.816 138.585 132.816 138.585L129.019 136.792C129.019 136.792 128.496 142.237 128.214 144.99C128.099 146.118 127.537 147.251 127.339 148.233C127.232 148.766 127.126 149.311 127.164 149.865Z" fill="#F8F9FA"/>
<path d="M132.004 151.182C134.52 150.902 133.849 151.535 137.369 151.599C140.888 151.665 142.107 150.506 142.281 150.004C142.433 149.558 140.741 149.175 138.928 148.725L138.907 148.759C138.907 148.759 136.634 149.965 133.736 149.66C131.374 149.413 128.968 148.416 127.339 148.233C127.232 148.766 127.126 149.311 127.164 149.865C127.273 151.435 129.488 151.463 132.004 151.182Z" fill="#2D2D2D"/>
<path d="M135.682 71.4607C135.682 71.4607 134.63 76.553 133.577 102.38C133.577 102.38 131.622 107.162 130.205 113.009C128.788 118.856 127.789 143.254 127.789 143.254C127.789 143.254 128.354 144.069 130.069 144.172C131.47 144.256 132.561 143.642 132.561 143.642C132.561 143.642 142.412 111.686 147.206 99.2804C152.003 86.8733 154.813 69.1596 154.813 69.1596L135.682 71.4607Z" fill="#3E3E3E"/>
<path d="M147.531 73.6492C147.531 73.6492 148.308 78.7905 156.261 103.385C156.261 103.385 156.084 108.548 156.779 114.524C157.475 120.5 165.526 144.029 165.526 144.029C165.526 144.029 166.594 144.4 168.198 143.977C169.689 143.584 170.859 142.687 170.859 142.687C170.859 142.687 167.772 109.056 167.976 95.7572C168.179 82.458 164.681 64.8668 164.681 64.8668L147.531 73.6492Z" fill="#3E3E3E"/>
<path d="M161.623 2.42153C160.376 1.6281 158.843 1.47167 157.764 1.48109C158.056 1.2097 158.606 1.13243 158.606 1.13243C157.943 0.998623 156.422 1.58662 156.422 1.58662C147.325 -2.45215 145.182 11.1342 145.219 14.3173C145.253 17.5005 145.095 21.1548 140.321 23.7688C130.93 28.9138 138.129 39.0739 138.129 39.0739C136.439 43.9249 142.698 49.8672 142.698 49.8672C142.59 47.2909 154.416 30.8795 160.792 27.1347C162.405 24.9976 163.135 21.1171 163.189 20.8099C162.775 23.8969 162.159 25.6082 161.636 26.5637C167.104 22.0142 164.927 4.5229 161.623 2.42153Z" fill="black"/>
<path d="M159.647 25.3781C159.679 25.3931 156.666 26.9593 154.397 26.3392C152.263 25.7569 150.869 22.9902 150.899 22.9846C151.802 22.8055 152.064 21.5636 152.043 16.2282L152.452 16.3092L159.073 17.6209L159.319 17.668C159.319 17.668 159.163 19.8297 159.157 21.867C159.155 22.2967 159.163 22.7207 159.178 23.1184C159.223 24.3 159.355 25.2405 159.647 25.3781Z" fill="#F8F9FA"/>
<path d="M159.17 21.858C159.168 22.2877 159.175 22.7117 159.19 23.1094C155.34 22.9548 153.12 18.5504 152.281 16.6187L159.085 17.6119L159.332 17.659C159.332 17.659 159.175 19.8207 159.17 21.858Z" fill="#F1F1F1"/>
<path d="M151.736 15.5703C151.736 15.5703 149.722 12.389 149.239 9.66763C148.892 7.72458 149.882 0.525283 157.119 1.56183C157.119 1.56183 159.22 1.76914 161.195 3.10346C162.767 4.16451 165.034 6.45434 162.497 12.7377L161.84 14.8598L151.736 15.5703Z" fill="black"/>
<path d="M159.733 20.865C159.733 20.865 150.717 19.6739 151.546 14.0709C152.375 8.46787 151.768 4.5403 157.56 5.06423C163.351 5.58816 164.15 7.89117 164.33 9.82858C164.507 11.766 162.098 21.0308 159.733 20.865Z" fill="#F8F9FA"/>
<path d="M161.667 5.53936C161.667 5.53936 158.225 11.7455 154.301 12.1526C150.378 12.5615 148.891 11.3045 148.891 11.3045C148.891 11.3045 152.132 9.4349 153.333 5.50544C153.333 5.50544 160.276 2.13571 161.667 5.53936Z" fill="black"/>
<path d="M160.984 5.98771C160.984 5.98771 162.605 7.72912 162.841 9.22175C163.076 10.7163 162.841 13.6827 163.711 13.7109C163.711 13.7109 166.231 9.51951 164.524 6.68125C162.713 3.67338 160.984 5.98771 160.984 5.98771Z" fill="black"/>
<path d="M207.037 74.7766C203.766 74.7766 200.88 75.8923 198.647 77.711C197.371 78.7513 195.445 78.0653 195.098 76.4559L191.222 58.4406C190.656 55.8134 188.069 54.1418 185.441 54.7072L122.7 68.2106C120.133 68.7628 118.499 71.2919 119.053 73.8588L132.542 136.532C133.114 139.196 135.74 140.892 138.405 140.318L155.873 136.559C158.133 136.072 159.051 133.338 157.532 131.596C156.066 129.912 155.01 127.827 154.56 125.465C153.293 118.808 157.407 112.215 163.949 110.443C171.224 108.472 178.57 113.013 180.134 120.287C180.724 123.023 180.407 125.743 179.388 128.136C178.726 129.691 180.087 131.347 181.74 130.992L200.967 126.854C203.594 126.288 205.266 123.699 204.7 121.071L200.848 103.167C200.49 101.51 202.002 100.058 203.643 100.48C205.541 100.968 207.578 101.033 209.625 100.593C217.67 98.8615 222.373 90.0554 218.617 82.0984C216.724 78.0936 211.468 74.7785 207.037 74.7766Z" fill="#E4F9E7"/>
<path d="M184.086 50.9503C184.086 50.9503 188 51.5911 189.026 54.1354C190.051 56.6815 188.618 58.4041 188.068 58.3984C187.518 58.3928 186.461 57.9857 185.967 56.6646C185.471 55.3453 184.086 50.9503 184.086 50.9503Z" fill="#FFB07B"/>
<path d="M130.219 62.3095C130.219 62.3095 134.612 62.3038 136.193 64.9008C137.772 67.4978 136.519 69.6407 135.916 69.733C135.313 69.8254 134.084 69.5709 133.306 68.2178C132.527 66.8646 130.219 62.3095 130.219 62.3095Z" fill="#FFB07B"/>
<path d="M184.206 53.9086C183.818 53.8257 182.114 53.626 179.948 53.2848C175.959 52.6591 170.399 51.5566 168.533 49.836C168.028 49.3686 166.85 46.7979 165.627 43.8503C164.391 50.3749 164.321 55.3805 164.649 59.1913L137.691 64.9922C140.002 60.3202 143.581 54.5249 142.91 49.836C142.661 48.0983 141.707 45.7124 141.351 43.0324C141.323 42.8025 141.297 42.5707 141.276 42.337C137.495 45.4504 133.129 48.8842 133.023 49.5702C132.85 50.7217 135.793 63.4656 135.793 63.4656C135.062 65.1486 131.887 64.7943 131.887 64.7943C128.913 62.6703 124.536 50.6313 124.887 47.9645C125.238 45.2978 136.086 30.0982 138.711 26.4665C141.304 22.8763 150.772 22.9667 151.001 22.9686H151.002C151.004 22.9686 151.004 22.9686 151.006 22.9686C158.535 27.4898 159.214 23.7319 159.214 23.7319C159.214 23.7319 166.008 25.0229 167.174 27.03C168.343 29.0371 173.463 44.2556 173.825 44.7908C174.583 45.9121 186.959 50.3957 187.182 51.6942C187.406 52.9927 185.316 54.1442 184.206 53.9086Z" fill="#3E3E3E"/>
<path d="M147.094 62.9794L137.695 64.9922C140.036 60.3315 143.112 54.5287 142.439 49.868C142.188 48.1285 141.623 46.0705 141.352 43.3773C141.325 43.1191 141.28 42.337 141.28 42.337C141.28 42.337 147.936 47.5763 148.053 53.2452C148.115 56.1872 147.601 60.0337 147.094 62.9794Z" fill="black"/>
<path d="M180.211 53.3125C176.174 52.6868 170.544 51.5843 168.656 49.8636C168.145 49.3943 166.952 46.8218 165.714 43.8705C165.714 43.8705 165.281 39.1269 166.521 39.304C167.761 39.4812 169.585 47.8942 170.887 48.4256C172.052 48.9025 178.494 51.3751 180.211 53.3125Z" fill="black"/>
<path d="M379.075 234.036C378.506 235.954 375.879 237.232 375.525 239.576C375.351 240.72 374.925 241.608 374.382 242.219H366.203C366.286 241.768 366.644 241.284 367.707 241.052C369.98 240.555 370.836 237.801 370.696 235.244C370.636 234.173 370.664 232.95 370.717 231.893C370.788 230.428 370.909 229.279 370.909 229.279L375.737 228.142L376.244 228.795L376.731 229.422C376.731 229.422 379.642 232.119 379.075 234.036Z" fill="#2D2D2D"/>
<path d="M340.979 242.219H324.43C324.805 241.78 325.44 241.356 326.516 241.18C329.062 240.768 333.472 239.29 334.456 236.033C334.488 235.93 334.516 235.822 334.541 235.713C335.321 232.234 341.003 236.78 341.003 236.78C341.003 236.78 341.02 236.919 341.046 237.155C341.146 238.135 341.367 240.792 340.979 242.219Z" fill="#2D2D2D"/>
<path d="M327.188 150.042C327.188 150.042 328.049 160.807 329.065 173.747C330.442 191.325 332.099 212.917 332.263 217.007C332.547 224.11 333.684 235.471 333.684 235.471C333.684 235.471 336.381 238.17 341.78 237.033C341.78 237.033 346.59 220.814 347.966 203.654C347.986 203.372 348.007 203.089 348.03 202.806C349.307 185.336 351.294 148.552 351.294 148.552L327.188 150.042Z" fill="#3E3E3E"/>
<path d="M327.188 150.036C327.188 150.036 328.049 160.801 329.065 173.741L347.966 203.648C347.986 203.366 348.007 203.083 348.03 202.8C349.307 185.33 351.294 148.546 351.294 148.546L327.188 150.036Z" fill="black"/>
<path d="M331.133 151.311C331.133 151.311 346.685 190.299 356.911 208.619C367.137 226.942 370.333 232.055 370.333 232.055C370.333 232.055 376.193 229.71 376.724 228.112C376.724 228.112 372.813 192.741 365.967 184.119C362.095 179.247 357.55 164.626 357.337 159.513C357.124 154.4 355.953 144.281 355.953 144.281L331.133 151.311Z" fill="#3E3E3E"/>
<path d="M339.114 91.1267C338.423 87.0439 338.4 84.624 338.4 84.624L346.291 78.2652C345.999 87.0081 351.602 91.2136 351.602 91.2136C351.602 91.2136 341.086 96.3896 335.008 94.4725C335.008 94.4725 336.504 92.56 339.114 91.1267Z" fill="#F1F1F1"/>
<path d="M336.544 84.4784C336.544 84.4784 346.583 86.1463 347.525 79.8799C348.468 73.6116 350.398 69.6068 344.028 68.2762C337.659 66.9475 336.052 69.1507 335.228 71.1653C334.405 73.1819 333.958 83.8847 336.544 84.4784Z" fill="#F8F9FA"/>
<path d="M301.286 97.4036L299.149 96.0804C299.149 96.0804 296.484 92.1468 291.932 94.5908C291.932 94.5908 290.131 95.74 291.339 96.7027C292.551 97.665 292.225 97.1213 293.9 98.5155C295.577 99.9096 297.745 100.408 299.145 99.6391L300.939 99.4695L301.286 97.4036Z" fill="#A16D3C"/>
<path d="M298.74 97.8142C299.29 96.092 299.552 95.9401 299.552 95.9401C299.552 95.9401 316.834 97.9823 318.464 98.1027C320.093 98.2233 342.721 93.5611 342.721 93.5611L353.405 106.535C353.405 106.535 321.904 107.723 317.782 107.337C310.969 106.699 298.613 100.356 298.613 100.356C298.613 100.356 298.306 99.1668 298.74 97.8142Z" fill="#F8F9FA"/>
<path d="M357.131 146.275C357.161 146.944 355.782 147.679 355.182 147.949C350.671 149.971 346.47 151.377 341.722 151.833C336.091 152.411 329.436 151.145 327.154 151.175C326.909 151.175 326.698 151.085 326.515 150.932C326.363 150.809 326.24 143.931 326.363 135.259C326.363 134.924 326.363 134.557 326.393 134.222V134.102C326.402 133.199 326.415 132.281 326.436 131.354C326.493 128.82 326.587 126.218 326.698 123.632C326.862 119.819 327.088 116.073 327.403 112.754C327.731 109.287 328.145 106.285 328.675 104.155C329.892 99.2557 332.693 96.0284 335.249 93.6547L337.348 91.8C339.447 92.2252 341.671 92.1029 343.891 91.0083C346.296 89.8208 348.914 88.543 349.338 88.8465C352.583 91.2724 354.768 96.7777 355.887 103.775C356.49 107.54 356.784 111.737 356.767 116.119C356.762 117.8 356.709 119.506 356.613 121.228C356.07 130.469 356.626 138.481 356.944 143.137C357.037 144.477 357.11 145.541 357.131 146.275Z" fill="#F8F9FA"/>
<path d="M349.581 103.576C349.581 103.576 344.715 126.285 326.445 131.344C326.502 128.809 326.596 126.207 326.707 123.621C326.871 119.809 327.097 116.062 327.412 112.743C327.738 112.575 328.044 112.444 328.324 112.351C334.523 110.307 349.581 103.576 349.581 103.576Z" fill="#F1F1F1"/>
<path d="M268.709 142.43C269.895 139.371 269.897 136.269 269.005 133.523C268.494 131.953 269.833 130.401 271.465 130.659L289.712 133.557C292.373 133.98 294.872 132.165 295.294 129.505L305.388 65.9517C305.801 63.3528 304.027 60.9103 301.428 60.4976L237.944 50.4148C235.246 49.987 232.711 51.8264 232.281 54.5252L229.471 72.22C229.107 74.5098 231.331 76.3568 233.512 75.569C235.615 74.8057 237.948 74.5758 240.319 75.0092C247.002 76.2343 251.676 82.4705 250.965 89.2269C250.174 96.7425 243.269 101.967 235.9 100.797C233.129 100.357 230.7 99.0766 228.83 97.2564C227.617 96.0738 225.576 96.747 225.31 98.4209L222.217 117.897C221.795 120.559 223.61 123.059 226.271 123.482L244.407 126.362C246.084 126.629 246.897 128.567 245.907 129.949C244.763 131.548 243.964 133.428 243.636 135.501C242.341 143.65 248.872 151.235 257.671 150.604C262.102 150.287 267.105 146.571 268.709 142.43Z" fill="#FFBC58"/>
<path d="M301.355 112.032L298.745 111.6C298.745 111.6 295.769 107.294 290.583 109.71C290.583 109.71 288.527 110.86 289.887 111.937C291.246 113.014 290.884 112.42 292.769 113.977C294.652 115.534 297.105 116.156 298.698 115.395L300.733 115.289L301.355 112.032Z" fill="#F8F9FA"/>
<path d="M299.357 113.367C299.441 111.446 300.465 111.242 300.465 111.242C300.465 111.242 320.237 109.934 321.942 109.603C323.648 109.272 339.396 96.2246 339.396 96.2246C339.396 96.2246 345.485 90.7511 349.752 92.598C353.461 94.203 354.622 97.3693 354.808 100.281C355.031 103.752 353.072 106.996 349.921 108.467C342.85 111.77 328.706 118.255 325.485 118.814C318.316 120.059 299.888 116.068 299.888 116.068C299.888 116.068 299.291 114.876 299.357 113.367Z" fill="#F8F9FA"/>
<path d="M335.239 71.1683C335.239 71.1683 331.164 68.1472 333.822 63.4545C333.822 63.4545 337.026 64.5155 341.579 63.4545C346.132 62.3915 350.207 63.8974 350.738 65.4899C350.738 65.4899 352.51 66.2004 352.687 68.8558C352.864 71.5132 347.536 79.8828 347.536 79.8828C347.536 79.8828 346.398 78.4656 346.707 77.4912C347.018 76.5169 347.992 74.3477 346.795 74.3477C345.601 74.3477 345.203 76.1192 344.715 75.4106C344.229 74.702 345.114 71.7356 343.697 71.2474C342.28 70.7612 336.833 72.0654 335.239 71.1683Z" fill="black"/>
<path d="M196.738 239.95L178.793 158.472H183.732C184.905 158.472 185.862 157.514 185.862 156.342V153.591C185.862 152.42 184.905 151.463 183.732 151.463H121.07C119.9 151.463 118.942 152.42 118.942 153.591V156.342C118.942 157.514 119.9 158.472 121.07 158.472H127.431L109.485 239.95C109.244 241.045 109.94 242.14 111.031 242.381C112.124 242.625 113.215 241.925 113.456 240.83L131.596 158.472H174.628L192.767 240.83C193.009 241.925 194.1 242.625 195.191 242.381C196.284 242.14 196.979 241.045 196.738 239.95Z" fill="#3E3E3E"/>
<path d="M315.757 190.057C309.113 183.681 285.203 223.914 285.203 223.914C285.203 223.914 322.398 196.434 315.757 190.057Z" fill="black" fill-opacity="0.13"/>
<path d="M314.952 208.657C309.072 206.305 290.28 226.117 286.048 230.691C282.81 230.261 279.257 229.982 275.364 229.912C245.607 229.381 232.109 242.858 232.109 242.858L315.118 243.141C315.118 243.141 307.766 233.804 286.905 230.809C292.003 228.403 307.078 221.39 312.561 220.043C319.204 218.409 321.594 211.313 314.952 208.657Z" fill="black" fill-opacity="0.13"/>
<path d="M206.968 217.99C210.176 218.682 213.238 218.195 215.811 216.884C217.283 216.134 219.026 217.213 219.026 218.864V237.339C219.026 240.034 221.21 242.219 223.903 242.219H288.252C290.885 242.219 293.019 240.085 293.019 237.453V173.173C293.019 170.441 290.804 168.224 288.071 168.224H270.154C267.836 168.224 266.36 170.71 267.482 172.74C268.564 174.7 269.159 176.967 269.101 179.376C268.939 186.168 263.515 191.763 256.73 192.121C249.184 192.517 242.94 186.517 242.94 179.057C242.94 176.251 243.824 173.65 245.328 171.52C246.306 170.135 245.32 168.224 243.626 168.224H223.905C221.21 168.224 219.026 170.41 219.026 173.105V191.467C219.026 193.167 217.237 194.272 215.718 193.512C213.96 192.634 211.977 192.138 209.878 192.138C201.627 192.138 195.161 199.779 197.164 208.371C198.172 212.696 202.626 217.055 206.968 217.99Z" fill="#FFBC58"/>
<path d="M20.6519 242.587L32.2171 242.672C32.2171 242.672 31.8148 239.873 24.0295 239.151C21.0113 230.769 12.1445 208.215 4.44479 209.28C-3.15744 210.333 14.8472 231.025 22.1718 239.07C21.1355 239.072 20.1694 239.155 19.2778 239.298C17.5134 235.785 14.0148 230.819 8.39988 231.046C2.42428 231.287 10.5653 236.745 16.1702 240.096C13.3312 241.113 11.7981 242.523 11.7981 242.523L20.5205 242.587C20.6232 242.642 20.6788 242.672 20.6788 242.672C20.6788 242.672 20.6698 242.642 20.6519 242.587Z" fill="black" fill-opacity="0.13"/>
<path d="M61.9746 149.126L63.6857 150.514C63.6857 150.514 68.367 148.835 69.4233 154.399C69.4233 154.399 69.7047 156.77 68.203 156.773C66.7013 156.779 67.3208 156.515 65.1943 156.577C63.0679 156.64 61.3054 155.518 60.9939 153.792L59.9766 152.329L61.9746 149.126Z" fill="#EA8E50"/>
<path d="M61.7724 152.113C63.1375 150.688 63.0276 149.635 63.0276 149.635C63.0276 149.635 47.2187 136.691 45.6154 135.637C44.5229 134.918 32.8804 124.597 27.4381 118.305C24.7388 115.183 21.3949 116.394 17.5693 117.492L14.4187 118.396C10.6144 119.487 9.62496 124.808 12.7465 127.394C21.5374 134.675 36.1616 142.865 38.8977 144.586C45.6904 148.86 58.9867 153.938 58.9867 153.938C58.9867 153.938 60.6 153.338 61.7724 152.113Z" fill="#1E3D70"/>
<path d="M80.2839 231.492C80.2839 231.492 84.1204 234.366 89.999 232.849C89.999 232.849 94.7392 231.767 95.7776 234.133C95.7776 234.133 88.5092 237.825 86.6696 238.835C85.2834 239.596 83.8366 240.797 82.8138 241.726C82.0044 242.461 80.7435 242.361 80.0536 241.513C79.7337 241.121 79.3678 240.652 78.9667 240.109C77.8461 238.59 75.2344 233.684 75.2344 233.684L80.2839 231.492Z" fill="#2D2D2D"/>
<path d="M82.0719 230.161C82.0719 230.161 79.7357 235.548 74.3432 234.558C74.3432 234.558 63.3392 225.471 55.7912 216.031C53.3399 212.964 51.2526 209.86 50.0261 207.02C45.0209 195.431 31.5113 178.147 22.9219 169.388L44.412 161.614C44.412 161.614 51.2954 175.46 60.4538 192.469C67.0544 204.723 74.8341 218.62 82.0719 230.161Z" fill="#F8F9FA"/>
<path d="M60.4538 192.47L55.7912 216.031C53.3399 212.965 51.2526 209.861 50.0261 207.021C45.0209 195.432 31.5113 178.148 22.9219 169.388L44.412 161.614C44.412 161.614 51.2954 175.461 60.4538 192.47Z" fill="#F1F1F1"/>
<path d="M42.8324 234.548C42.8324 234.548 42.5981 238.845 47.8089 239.42C47.8089 239.42 50.7865 239.435 50.7949 242.17L35.6506 242.219C35.6506 242.219 35.2109 241.114 35.1042 238.751C35.0222 236.936 36.8635 232.191 36.8635 232.191L42.8324 234.548Z" fill="#2D2D2D"/>
<path d="M37.3606 161.624C37.3606 161.624 46.9342 172.144 53.0114 191.096C56.3178 201.407 46.951 227.334 45.125 236.34C45.125 236.34 38.8414 236.874 34.545 235.213C34.545 235.213 34.2186 216.608 36.7314 202.268C38.1375 194.243 24.126 185.105 18.0036 170.604C13.8385 160.74 18.9056 160.908 25.1326 160.67L37.3606 161.624Z" fill="#F8F9FA"/>
<path d="M26.309 114.694C20.9824 117.701 10.0781 114.927 10.0781 114.927C10.0781 114.927 14.5065 109.865 12.4942 101.711L16.6764 103.835L21.1688 106.117C21.1688 106.117 21.4591 107.557 21.6611 110.143C21.7125 110.809 21.7585 111.553 21.7904 112.366C24.5252 113.195 26.309 114.694 26.309 114.694Z" fill="#F8F9FA"/>
<path d="M45.8455 161.078C45.8455 162.013 44.7672 162.462 44.538 162.507C42.3899 162.901 36.3913 165.234 30.9875 165.769C26.4374 166.246 22.2128 165.792 17.5717 164.861C16.9573 164.737 15.5144 164.348 15.4119 163.76C15.2839 163.116 -2.48968 127.527 11.3273 112.239C11.6517 111.88 14.3791 112.526 16.8732 113.118C19.1766 113.664 21.2895 113.36 23.1764 112.603L25.5154 113.834C28.3878 115.435 33.8231 121.121 34.459 125.583C34.782 127.853 36.0797 129.533 36.4552 131.529C36.5946 132.268 36.7371 132.989 36.882 133.692C37.1651 135.07 37.457 136.382 37.7571 137.63C38.5695 141.005 39.4274 143.91 40.2698 146.42C41.1662 149.085 42.0454 151.301 42.8307 153.155C43.8493 155.56 44.7102 157.358 45.2481 158.734C45.628 159.703 45.8455 160.462 45.8455 161.078Z" fill="#3E3E3E"/>
<path d="M45.2396 158.734C20.15 146.913 11.4609 124.215 11.4609 124.215C11.4609 124.215 31.8455 131.734 36.8735 133.692C37.1566 135.071 37.4485 136.383 37.7486 137.63C38.561 141.005 39.4189 143.911 40.2613 146.421C41.1577 149.085 42.0369 151.301 42.8222 153.156C43.8408 155.561 44.7017 157.359 45.2396 158.734Z" fill="black"/>
<path d="M42.5901 71.9984C42.8946 75.257 44.2755 78.0255 46.2951 80.0778C47.4494 81.252 46.9462 83.2327 45.3759 83.7284L27.8017 89.2711C25.2392 90.0796 23.8169 92.8121 24.625 95.3749L43.9276 156.583C44.7171 159.085 47.3869 160.474 49.8906 159.685L111.031 140.404C113.631 139.584 115.073 136.812 114.253 134.212L108.878 117.171C108.183 114.967 105.377 114.309 103.782 115.983C102.244 117.601 100.266 118.846 97.9569 119.515C91.4473 121.398 84.4981 117.916 82.1233 111.57C79.4818 104.511 83.3174 96.7723 90.4129 94.5347C93.0813 93.693 95.8197 93.7537 98.298 94.5454C99.9075 95.0599 101.43 93.55 100.921 91.9378L95.0055 73.1801C94.197 70.617 91.4637 69.1941 88.9003 70.0026L71.4342 75.5114C69.818 76.0202 68.2311 74.652 68.4978 72.9784C68.8059 71.0429 68.6813 69.0094 68.0519 67.0136C65.5766 59.1641 56.3709 55.3043 48.7994 59.786C44.9873 62.0438 42.1777 67.5884 42.5901 71.9984Z" fill="#FFBC58"/>
<path d="M59.928 151.882L62.0961 152.678C62.0961 152.678 66.4379 149.608 69.1407 154.6C69.1407 154.6 70.1186 156.78 68.571 157.253C67.0231 157.728 67.5859 157.282 65.4104 158.007C63.2352 158.731 61.092 158.209 60.2703 156.656L58.7969 155.574L59.928 151.882Z" fill="#F8F9FA"/>
<path d="M61.7098 154.945C62.5115 152.853 62.8777 151.905 62.8777 151.905C62.8777 151.905 46.4951 138.552 44.8261 137.407C43.6883 136.626 32.3643 128.162 26.8435 121.565C24.1047 118.293 19.7866 116.797 15.6103 117.673L12.1714 118.394C8.01879 119.265 6.66959 124.521 9.8908 127.282C18.9632 135.06 34.2648 144.081 37.1177 145.957C44.2004 150.614 59.866 157.141 59.866 157.141C59.866 157.141 61.0805 156.587 61.7098 154.945Z" fill="#3E3E3E"/>
<path d="M21.6597 110.126C16.4219 110.42 13.0156 106.096 13.0156 106.096C13.0156 106.096 15.3837 104.784 16.675 103.818L21.1674 106.1C21.1674 106.1 21.4576 107.54 21.6597 110.126Z" fill="#F1F1F1"/>
<path d="M23.8961 104.764C23.8961 104.764 15.9597 110.459 12.489 105.462C9.01825 100.465 5.65644 97.835 10.5768 93.9874C15.4974 90.139 17.8169 91.3555 19.3809 92.7415C20.9452 94.1276 25.871 103.154 23.8961 104.764Z" fill="#F8F9FA"/>
<path d="M20.2166 88.2263C19.932 86.3058 19.2918 84.9546 19.2918 84.9546C19.2918 84.9546 18.7937 87.0182 15.0233 86.7336C11.2531 86.4491 5.27725 87.103 3.28519 91.4002C3.15836 91.6737 3.04547 91.9552 2.94521 92.243C2.58449 91.2905 2.49761 89.8621 2.49761 89.8621C1.78126 91.7127 2.49761 94.0264 2.49761 94.0264H2.49779C2.48724 94.0937 2.4782 94.1614 2.4684 94.229C1.63652 94.9326 0.9375 97.1193 0.9375 97.1193C1.18872 96.5098 1.80104 96.1116 2.34721 95.8664C2.33025 99.2095 3.68586 102.478 6.06559 103.451C9.54557 104.874 9.51787 103.788 13.0176 106.109C13.0176 106.109 13.9562 104.945 13.3162 104.162C12.6756 103.38 10.257 102.242 11.6087 101.103C12.9603 99.9651 13.4583 101.246 13.9562 100.463C14.4543 99.6803 11.9645 97.4039 15.1655 95.2699C18.367 93.1358 20.5011 90.1467 20.2166 88.2263Z" fill="black"/>
<path d="M224.521 242.258C224.521 242.258 220.507 236.325 214.228 236.804C212.318 236.949 209.216 237.414 205.613 237.91C202.895 228.426 195.406 205.886 185.302 204.616C174.986 203.321 195.176 228.389 203.432 238.204C201.926 238.402 200.362 238.596 198.785 238.767C194.412 234.099 186.795 227.185 180.434 227.716C174.058 228.249 185.996 234.842 194.614 239.154C189.326 239.55 184.313 239.506 181.25 238.323C173.747 235.422 166.852 242.258 166.852 242.258H224.521Z" fill="#F8F9FA"/>
</svg>
