<svg width="76" height="68" viewBox="0 0 76 68" fill="none" xmlns="http://www.w3.org/2000/svg">
<path d="M54.5156 0.352639V0.661333L56.3678 0.0439453L54.5156 0.352639Z" fill="#A5A5A5"/>
<path d="M55.75 0.0439453L56.0587 0.352639L55.75 0.0439453Z" fill="#A5A5A5"/>
<path d="M40.6241 13.0089C38.3234 13.1663 31.2287 16.9503 30.4372 19.1828L29.2024 19.8002C27.0511 19.5742 25.123 21.5347 23.0285 22.0363C16.6463 23.565 9.67075 23.6943 3.88953 26.9001L4.19822 27.8262C2.11423 29.1666 1.20358 33.4867 1.11005 35.8569C0.870194 41.9449 1.33756 49.5752 7.28516 53.1842C9.89733 54.7693 12.0637 53.2243 14.6938 52.8304L15.0025 55.6086C13.4418 57.8368 14.7769 68.8136 18.3981 67.339L17.7808 66.4129L18.7068 66.7216V64.8695C19.7271 63.978 20.0549 59.8307 19.3242 58.6956C20.9257 56.557 18.9072 52.1349 21.2134 50.6816C22.8446 49.6539 25.203 49.7765 27.0416 49.319C34.6197 47.4338 42.6016 47.8521 50.1936 49.373C52.9549 49.9262 55.7905 50.1074 58.5283 50.7421C60.011 51.086 61.9903 51.7688 63.4492 50.9696C65.3653 49.92 64.4522 46.3398 64.5189 44.4957C64.718 38.983 63.674 33.2864 63.1822 27.8262C63.0217 26.0441 63.7447 22.8754 62.2327 21.6523C63.1927 20.1045 62.4821 17.5813 62.2342 15.8319C61.6378 11.6266 62.1453 7.97719 60.2388 4.05678C59.6582 2.86275 59.1658 1.0322 57.8168 0.500008C56.1619 -0.152879 54.5749 0.711464 53.3083 1.74281C50.4449 4.07407 47.833 6.69056 44.9338 8.99588C43.382 10.2294 41.4344 11.1237 40.6241 13.0089Z" fill="#A5A5A5"/>
<path d="M56.3672 0.0439453L56.6759 0.352639L56.3672 0.0439453Z" fill="#A5A5A5"/>
<path d="M56.6768 0.0439453L56.9855 0.352639L56.6768 0.0439453Z" fill="#A5A5A5"/>
<path d="M56.9854 0.0439453L57.294 0.352639L56.9854 0.0439453Z" fill="#FFFFF7"/>
<path d="M57.2939 0.0439453V0.352639H58.22L57.2939 0.0439453Z" fill="#A5A5A5"/>
<path d="M54.8242 0.352539L55.1329 0.661233L54.8242 0.352539ZM58.2199 0.352539L59.1459 1.27862L58.2199 0.352539Z" fill="#A5A5A5"/>
<path d="M58.5293 0.352539L58.838 0.661233L58.5293 0.352539Z" fill="#A5A5A5"/>
<path d="M54.207 0.662109L54.5157 0.970803L54.207 0.662109Z" fill="#FFFFF7"/>
<path d="M54.5156 0.662109L54.8243 0.970803L54.5156 0.662109Z" fill="#A5A5A5"/>
<path d="M58.8369 0.662109L59.1456 0.970803L58.8369 0.662109Z" fill="#A5A5A5"/>
<path d="M53.8984 0.969727L54.2071 1.27842L53.8984 0.969727Z" fill="#A5A5A5"/>
<path d="M53.2803 1.27832L53.589 1.58701L53.2803 1.27832Z" fill="#A5A5A5"/>
<path d="M53.5898 1.27832L53.8985 1.58701L53.5898 1.27832Z" fill="#A5A5A5"/>
<path d="M59.1465 1.27832L59.7639 1.89571L59.1465 1.27832ZM52.9727 1.58701L53.2814 1.89571L52.9727 1.58701Z" fill="#A5A5A5"/>
<path d="M59.1455 1.58789L59.4542 2.82267H59.7629L59.1455 1.58789Z" fill="#A5A5A5"/>
<path d="M52.6633 1.89648L52.972 2.20518L52.6633 1.89648ZM52.3546 2.20518L52.6633 2.51387L52.3546 2.20518ZM55.7502 3.13126L56.985 2.51387V4.36604H57.2937V2.20518L55.7502 3.13126ZM52.0459 2.51387L52.3546 2.82257L52.0459 2.51387Z" fill="#A5A5A5"/>
<path d="M55.75 2.51367L56.0587 2.82237L55.75 2.51367Z" fill="#A5A5A5"/>
<path d="M22.4117 47.583C26.5846 46.8736 30.5877 45.2239 34.8474 44.9733C43.6523 44.4544 53.0807 46.8609 61.6158 48.8177C61.6146 36.7379 60.4381 24.6998 59.0947 12.7006C58.7076 9.24042 57.1385 6.02784 56.9854 2.51367C53.9383 3.69412 51.206 6.94343 48.6507 8.99593C42.816 13.6828 37.2083 18.2975 30.4377 21.573C27.971 22.7662 25.3585 23.8173 22.7204 24.5671C21.8798 24.806 20.2246 24.8057 19.8474 25.7626C19.3081 27.1305 20.2274 29.6247 20.3095 31.0913C20.6185 36.616 21.3584 42.1512 22.4117 47.583Z" fill="#010101"/>
<path d="M52.0459 2.82227L52.3546 3.13096L52.0459 2.82227ZM55.4415 2.82227L55.7502 3.13096L55.4415 2.82227Z" fill="#A5A5A5"/>
<path d="M59.7635 2.82227L60.0722 3.13096L59.7635 2.82227ZM51.1201 3.13096L51.4288 3.43965L51.1201 3.13096Z" fill="#A5A5A5"/>
<path d="M51.4287 3.13086L51.7374 3.43955L51.4287 3.13086ZM55.133 3.13086L55.4417 3.43955L55.133 3.13086ZM59.7634 3.13086L60.0721 3.43955L59.7634 3.13086Z" fill="#A5A5A5"/>
<path d="M51.1201 3.43945L51.4288 3.74815L51.1201 3.43945Z" fill="#FFFFF7"/>
<path d="M54.8242 3.43945L55.1329 3.74815L54.8242 3.43945Z" fill="#A5A5A5"/>
<path d="M60.1748 3.64551L60.2779 3.85109L60.1748 3.64551Z" fill="#A5A5A5"/>
<path d="M50.8115 3.74805L51.1202 4.05674L50.8115 3.74805Z" fill="#A5A5A5"/>
<path d="M54.5156 3.74805L54.8243 4.05674L54.5156 3.74805Z" fill="#A5A5A5"/>
<path d="M50.502 4.05664L50.8106 4.36533L50.502 4.05664ZM53.8976 4.05664L54.2063 4.36533L53.8976 4.05664Z" fill="#A5A5A5"/>
<path d="M54.207 4.05664L54.5157 4.36533L54.207 4.05664Z" fill="#A5A5A5"/>
<path d="M60.0723 4.05664L60.381 4.36533L60.0723 4.05664Z" fill="#A5A5A5"/>
<path d="M69.0244 4.05664L69.3331 4.36533L69.0244 4.05664Z" fill="#A5A5A5"/>
<path d="M69.333 4.05664L70.2591 4.98272L69.333 4.05664Z" fill="#A5A5A5"/>
<path d="M69.6422 4.05664L69.9508 4.36533L69.6422 4.05664ZM49.8857 4.36533L50.1944 4.67403L49.8857 4.36533Z" fill="#A5A5A5"/>
<path d="M50.1934 4.36523L50.5021 4.67393L50.1934 4.36523Z" fill="#A5A5A5"/>
<path d="M53.8984 4.36523L54.2071 4.67393L53.8984 4.36523Z" fill="#A5A5A5"/>
<path d="M57.3965 4.57227L57.4996 4.77785L57.3965 4.57227Z" fill="#A5A5A5"/>
<path d="M60.3809 4.36523L60.6896 4.67393L60.3809 4.36523Z" fill="#FFFFF7"/>
<path d="M68.4062 4.36523L68.7149 4.67393L68.4062 4.36523Z" fill="#A5A5A5"/>
<path d="M68.7148 4.36523L69.0235 4.67393L68.7148 4.36523Z" fill="#A5A5A5"/>
<path d="M67.4804 5.90958L68.0978 5.60089V5.90958C66.3993 6.61587 65.473 7.63086 64.7021 9.30521L65.9369 7.76174C67.6511 7.41693 69.1791 6.25377 69.9499 4.6748L67.4804 5.90958Z" fill="#A5A5A5"/>
<path d="M69.9502 4.36523L70.2589 4.67393L69.9502 4.36523Z" fill="#A5A5A5"/>
<path d="M49.5762 4.6748L49.8849 4.9835L49.5762 4.6748Z" fill="#A5A5A5"/>
<path d="M53.5898 4.6748L53.8985 4.9835L53.5898 4.6748Z" fill="#A5A5A5"/>
<path d="M68.0986 4.6748L68.4073 4.9835L68.0986 4.6748Z" fill="#FFFFF7"/>
<path d="M49.2679 4.98242L48.3418 6.2172L49.2679 4.98242Z" fill="#A5A5A5"/>
<path d="M53.2803 4.98242L53.589 5.29112L53.2803 4.98242ZM57.3961 5.18832L57.4992 5.39391L57.3961 5.18832ZM60.6889 4.98242L61.3063 5.59981L60.6889 4.98242Z" fill="#A5A5A5"/>
<path d="M67.7891 4.98242L68.0978 5.29112L67.7891 4.98242Z" fill="#A5A5A5"/>
<path d="M69.9503 4.98242L70.259 5.29112L69.9503 4.98242ZM48.6504 5.29112L48.9591 5.59981L48.6504 5.29112Z" fill="#A5A5A5"/>
<path d="M52.6632 5.29199L52.3545 5.90938L52.6632 5.29199Z" fill="#A5A5A5"/>
<path d="M52.9727 5.29199L53.2814 5.60069L52.9727 5.29199Z" fill="#A5A5A5"/>
<path d="M60.6895 5.29199L60.9981 5.60069L60.6895 5.29199ZM67.4807 5.29199L67.7894 5.60069L67.4807 5.29199ZM69.3329 5.29199V5.90938L69.9503 5.29199H69.3329Z" fill="#A5A5A5"/>
<path d="M48.3418 5.60059L48.6505 5.90928L48.3418 5.60059ZM52.6635 5.60059L52.9722 5.90928L52.6635 5.60059Z" fill="#A5A5A5"/>
<path d="M57.6025 5.60059V6.83536H57.9112L57.6025 5.60059ZM60.9982 5.60059L61.3069 5.90928L60.9982 5.60059ZM66.8634 5.90928V6.21797L68.0981 5.60059L66.8634 5.90928Z" fill="#A5A5A5"/>
<path d="M69.6412 5.60059L69.9498 5.90928L69.6412 5.60059ZM52.0456 5.90928L52.3543 6.21797L52.0456 5.90928ZM61.3064 5.90928L61.6151 6.21797L61.3064 5.90928ZM69.0238 5.90928L69.3325 6.21797L69.0238 5.90928ZM47.6211 6.32077L47.8267 6.42387L47.6211 6.32077Z" fill="#A5A5A5"/>
<path d="M48.0332 6.21875L48.3419 6.52744L48.0332 6.21875Z" fill="#A5A5A5"/>
<path d="M51.7373 6.21875L52.046 6.52744L51.7373 6.21875Z" fill="#A5A5A5"/>
<path d="M61.3066 6.21875L61.6153 6.52744L61.3066 6.21875Z" fill="#A5A5A5"/>
<path d="M66.2461 6.21875L66.5548 6.52744L66.2461 6.21875Z" fill="#A5A5A5"/>
<path d="M66.5547 6.21875L66.8634 6.52744L66.5547 6.21875ZM68.4069 6.21875L68.0982 6.83614L68.4069 6.21875Z" fill="#A5A5A5"/>
<path d="M68.7148 6.21875L69.0235 6.52744L68.7148 6.21875Z" fill="#A5A5A5"/>
<path d="M47.416 6.52637L47.7247 6.83506L47.416 6.52637Z" fill="#A5A5A5"/>
<path d="M51.4287 6.52637L51.7374 6.83506L51.4287 6.52637ZM61.6156 6.52637V7.76114H61.9243L61.6156 6.52637ZM65.9373 6.52637L66.246 6.83506L65.9373 6.52637ZM68.4069 6.52637L68.7156 6.83506L68.4069 6.52637Z" fill="#A5A5A5"/>
<path d="M47.1074 6.83496L47.4161 7.14365L47.1074 6.83496ZM47.7248 6.83496L48.0335 7.14365L47.7248 6.83496ZM50.8117 6.83496L51.1204 7.14365L50.8117 6.83496Z" fill="#A5A5A5"/>
<path d="M57.6025 6.83496V7.76104H57.9112L57.6025 6.83496Z" fill="#A5A5A5"/>
<path d="M65.9365 6.83496L66.2452 7.14365L65.9365 6.83496ZM67.7887 6.83496L68.0974 7.14365L67.7887 6.83496Z" fill="#A5A5A5"/>
<path d="M46.7988 7.14453L47.1075 7.45323L46.7988 7.14453Z" fill="#A5A5A5"/>
<path d="M50.502 7.14453L50.8106 7.45323L50.502 7.14453ZM65.628 7.14453L65.9366 7.45323L65.628 7.14453Z" fill="#A5A5A5"/>
<path d="M67.4805 7.14453L67.7892 7.45323L67.4805 7.14453ZM46.1807 7.45323L46.4894 7.76192L46.1807 7.45323Z" fill="#A5A5A5"/>
<path d="M46.4893 7.45312L46.798 7.76182L46.4893 7.45312ZM50.1936 7.45312L50.5023 7.76182L50.1936 7.45312ZM57.9109 7.45312L58.2196 9.30529H58.5283L57.9109 7.45312Z" fill="#A5A5A5"/>
<path d="M65.3203 7.45312L65.629 7.76182L65.3203 7.45312Z" fill="#FFFFF7"/>
<path d="M66.8633 7.45312L67.172 7.76182L66.8633 7.45312Z" fill="#A5A5A5"/>
<path d="M67.172 7.45312L67.4807 7.76182L67.172 7.45312ZM45.8722 7.76182L45.5635 8.37921L45.8722 7.76182Z" fill="#A5A5A5"/>
<path d="M49.8857 7.76172L50.1944 8.07041L49.8857 7.76172ZM61.6161 7.76172L61.9248 8.07041L61.6161 7.76172Z" fill="#A5A5A5"/>
<path d="M65.012 7.76172L64.0859 9.30519H64.3946L65.012 7.76172Z" fill="#A5A5A5"/>
<path d="M65.3204 7.76172L65.0117 8.37911H65.6291L65.3204 7.76172ZM65.9378 7.76172V8.07041H66.8639V7.76172H65.9378Z" fill="#A5A5A5"/>
<path d="M66.2461 7.76172L66.5548 8.07041L66.2461 7.76172Z" fill="#FFFFF7"/>
<path d="M45.8721 8.06934L46.1808 8.37803L45.8721 8.06934ZM49.2677 8.06934L49.5764 8.37803L49.2677 8.06934Z" fill="#A5A5A5"/>
<path d="M49.5766 8.06934L49.8853 8.37803L49.5766 8.06934ZM57.9113 8.06934L58.22 8.37803L57.9113 8.06934ZM61.9244 8.06934V9.30411H62.233L61.9244 8.06934ZM66.5548 8.06934L66.8635 8.37803L66.5548 8.06934ZM45.2549 8.37803L45.5636 8.68672L45.2549 8.37803Z" fill="#A5A5A5"/>
<path d="M48.959 8.37891L49.2677 8.6876L48.959 8.37891ZM64.7024 8.37891L65.0111 8.6876L64.7024 8.37891ZM65.9371 8.37891L66.2458 8.6876L65.9371 8.37891Z" fill="#A5A5A5"/>
<path d="M44.6367 8.6875L44.9454 8.99619L44.6367 8.6875Z" fill="#A5A5A5"/>
<path d="M44.9453 8.6875L45.254 8.99619L44.9453 8.6875ZM48.6496 8.6875L48.9583 8.99619L48.6496 8.6875ZM61.6148 8.6875L61.9235 8.99619L61.6148 8.6875ZM65.3191 8.6875L65.6278 8.99619L65.3191 8.6875Z" fill="#A5A5A5"/>
<path d="M65.6289 8.6875L65.9376 8.99619L65.6289 8.6875Z" fill="#A5A5A5"/>
<path d="M44.6367 8.99609L44.9454 9.30479L44.6367 8.99609ZM48.341 8.99609L48.6497 9.30479L48.341 8.99609ZM61.3062 8.99609L61.6149 9.30479L61.3062 8.99609ZM64.3931 8.99609V9.61348H65.0105L64.3931 8.99609Z" fill="#A5A5A5"/>
<path d="M65.3204 8.99609L65.6291 9.30479L65.3204 8.99609ZM44.0205 9.30479L44.3292 9.61348L44.0205 9.30479Z" fill="#A5A5A5"/>
<path d="M44.3291 9.30469L44.6378 9.61338L44.3291 9.30469ZM47.7247 9.30469L48.0334 9.61338L47.7247 9.30469Z" fill="#A5A5A5"/>
<path d="M48.0327 9.30469L48.3413 9.61338L48.0327 9.30469ZM58.2195 9.30469L58.5282 9.61338L58.2195 9.30469ZM65.0108 9.30469L65.3195 9.61338L65.0108 9.30469ZM43.7109 9.61338L44.0196 9.92208L43.7109 9.61338Z" fill="#A5A5A5"/>
<path d="M47.416 9.61328L47.7247 9.92198L47.416 9.61328ZM58.529 9.61328L58.8377 9.92198L58.529 9.61328ZM61.7187 9.81918L61.8218 10.0248L61.7187 9.81918Z" fill="#A5A5A5"/>
<path d="M42.4766 10.5401L43.4026 10.2314L42.4766 10.5401Z" fill="#A5A5A5"/>
<path d="M43.4023 9.92188L43.711 10.2306L43.4023 9.92188ZM44.0197 9.92188L44.3284 10.2306L44.0197 9.92188Z" fill="#A5A5A5"/>
<path d="M47.1074 9.92188L47.4161 10.2306L47.1074 9.92188ZM58.6319 10.1278L58.735 10.3334L58.6319 10.1278ZM61.9247 9.92188V13.3175H62.2334L61.9247 9.92188Z" fill="#A5A5A5"/>
<path d="M42.7852 10.2314L43.0939 10.5401L42.7852 10.2314Z" fill="#A5A5A5"/>
<path d="M46.7988 10.2314L47.1075 10.5401L46.7988 10.2314Z" fill="#A5A5A5"/>
<path d="M42.4766 10.5391L42.7853 10.8478L42.4766 10.5391ZM46.1809 10.5391L46.4896 10.8478L46.1809 10.5391Z" fill="#A5A5A5"/>
<path d="M46.4893 10.5391L46.798 10.8478L46.4893 10.5391Z" fill="#A5A5A5"/>
<path d="M58.8369 10.5391L59.1456 10.8478L58.8369 10.5391Z" fill="#A5A5A5"/>
<path d="M41.8594 10.8477L42.1681 11.1564L41.8594 10.8477Z" fill="#FFFFF7"/>
<path d="M42.168 10.8477L42.4767 11.1564L42.168 10.8477ZM45.8723 10.8477L46.181 11.1564L45.8723 10.8477Z" fill="#A5A5A5"/>
<path d="M58.8376 10.8477V12.0824H59.1463L58.8376 10.8477ZM41.5508 11.1564L41.8595 11.465L41.5508 11.1564Z" fill="#A5A5A5"/>
<path d="M45.5635 11.1572L45.8722 11.4659L45.5635 11.1572Z" fill="#A5A5A5"/>
<path d="M40.9326 11.4658L41.2413 11.7745L40.9326 11.4658Z" fill="#A5A5A5"/>
<path d="M41.2422 11.4658L41.5509 11.7745L41.2422 11.4658ZM44.9465 11.4658L45.2552 11.7745L44.9465 11.4658Z" fill="#A5A5A5"/>
<path d="M45.2549 11.4658L45.5636 11.7745L45.2549 11.4658Z" fill="#A5A5A5"/>
<path d="M40.624 11.7744L40.9327 12.0831L40.624 11.7744Z" fill="#FFFFF7"/>
<path d="M44.6367 11.7744L44.9454 12.0831L44.6367 11.7744ZM59.1453 11.7744V12.7005H59.454L59.1453 11.7744Z" fill="#A5A5A5"/>
<path d="M40.0068 12.7003L40.9329 12.3916L40.0068 12.7003Z" fill="#A5A5A5"/>
<path d="M44.3291 12.083L44.6378 12.3917L44.3291 12.083Z" fill="#FFFFF7"/>
<path d="M40.3164 12.3916V13.009L40.9338 12.3916H40.3164Z" fill="#A5A5A5"/>
<path d="M44.0205 12.3916L44.3292 12.7003L44.0205 12.3916Z" fill="#FFFFF7"/>
<path d="M39.3892 12.7002L37.8457 13.6263V13.935L39.6979 13.0089L39.3892 12.7002Z" fill="#A5A5A5"/>
<path d="M39.6982 12.7002L40.0069 13.0089L39.6982 12.7002Z" fill="#A5A5A5"/>
<path d="M43.7109 12.7002L44.0196 13.0089L43.7109 12.7002ZM59.1456 12.7002V13.935H59.4543L59.1456 12.7002Z" fill="#A5A5A5"/>
<path d="M39.3896 13.0098L39.6983 13.3185L39.3896 13.0098Z" fill="#A5A5A5"/>
<path d="M43.4023 13.0098L43.711 13.3185L43.4023 13.0098Z" fill="#A5A5A5"/>
<path d="M38.7725 13.3184L39.0812 13.6271L38.7725 13.3184ZM42.7855 13.3184L42.4768 13.9357L42.7855 13.3184Z" fill="#A5A5A5"/>
<path d="M43.0938 13.3184L43.4024 13.6271L43.0938 13.3184Z" fill="#A5A5A5"/>
<path d="M61.9238 13.3184L62.2325 13.6271L61.9238 13.3184Z" fill="#FFFFF7"/>
<path d="M38.1543 13.626L38.463 13.9347L38.1543 13.626Z" fill="#A5A5A5"/>
<path d="M42.7849 13.626L43.0936 13.9347L42.7849 13.626ZM61.9239 13.626L62.2326 13.9347L61.9239 13.626ZM37.5371 13.9347L37.8458 14.2434L37.5371 13.9347Z" fill="#A5A5A5"/>
<path d="M42.168 13.9346L42.4767 14.2433L42.168 13.9346ZM59.2489 14.1405L59.352 14.3461L59.2489 14.1405Z" fill="#A5A5A5"/>
<path d="M62.2328 13.9346V16.4041H62.5415L62.2328 13.9346ZM36.9199 14.2433L37.2286 14.552L36.9199 14.2433Z" fill="#A5A5A5"/>
<path d="M37.2285 14.2441L37.5372 14.5528L37.2285 14.2441Z" fill="#A5A5A5"/>
<path d="M41.8593 14.2441L42.168 14.5528L41.8593 14.2441ZM36.3028 14.5528L35.9941 15.1702L36.3028 14.5528Z" fill="#A5A5A5"/>
<path d="M36.6113 14.5527L36.92 14.8614L36.6113 14.5527ZM41.2417 14.5527L41.5504 14.8614L41.2417 14.5527Z" fill="#A5A5A5"/>
<path d="M59.1455 14.5527L59.4542 14.8614L59.1455 14.5527Z" fill="#A5A5A5"/>
<path d="M61.9243 14.5527L62.233 14.8614L61.9243 14.5527ZM36.3027 14.8614L36.6114 15.1701L36.3027 14.8614Z" fill="#A5A5A5"/>
<path d="M40.9334 14.8613L41.2421 15.17L40.9334 14.8613ZM35.377 15.17L35.6856 15.4787L35.377 15.17Z" fill="#A5A5A5"/>
<path d="M35.8916 15.2727L36.0972 15.3758L35.8916 15.2727ZM40.3161 15.1699L40.6248 15.4786L40.3161 15.1699ZM59.4551 15.1699V16.096H59.7638L59.4551 15.1699ZM61.9247 15.1699L62.2334 15.4786L61.9247 15.1699Z" fill="#A5A5A5"/>
<path d="M34.7598 15.4785L35.0685 15.7872L34.7598 15.4785Z" fill="#A5A5A5"/>
<path d="M35.0674 15.4785L35.3761 15.7872L35.0674 15.4785ZM40.0065 15.4785L40.3152 15.7872L40.0065 15.4785Z" fill="#A5A5A5"/>
<path d="M34.1416 15.7871L34.4503 16.0958L34.1416 15.7871Z" fill="#A5A5A5"/>
<path d="M34.6562 15.8906L34.8618 15.9937L34.6562 15.8906Z" fill="#A5A5A5"/>
<path d="M39.6983 15.7871L40.007 16.0958L39.6983 15.7871ZM33.5244 16.0958L33.8331 16.4045L33.5244 16.0958Z" fill="#A5A5A5"/>
<path d="M33.833 16.0957L34.1417 16.4044L33.833 16.0957Z" fill="#A5A5A5"/>
<path d="M39.3899 16.0957L39.6986 16.4044L39.3899 16.0957ZM32.9073 16.4044L32.5986 17.0218L32.9073 16.4044Z" fill="#A5A5A5"/>
<path d="M33.2158 16.4043L33.5245 16.713L33.2158 16.4043Z" fill="#FFFFF7"/>
<path d="M33.5244 16.4043L33.8331 16.713L33.5244 16.4043ZM38.7722 16.4043L39.0809 16.713L38.7722 16.4043Z" fill="#A5A5A5"/>
<path d="M39.0801 16.4043L39.3888 16.713L39.0801 16.4043Z" fill="#A5A5A5"/>
<path d="M59.4549 16.4043L59.7636 16.713L59.4549 16.4043ZM62.2331 16.4043L62.5418 16.713L62.2331 16.4043ZM32.9072 16.713L33.2159 17.0217L32.9072 16.713ZM38.4637 16.713L38.7724 17.0217L38.4637 16.713Z" fill="#A5A5A5"/>
<path d="M59.4551 16.7139L59.7638 17.0226L59.4551 16.7139Z" fill="#FFFFF7"/>
<path d="M32.1865 17.125L32.3921 17.2281L32.1865 17.125Z" fill="#A5A5A5"/>
<path d="M38.0518 17.125L38.2574 17.2281L38.0518 17.125Z" fill="#A5A5A5"/>
<path d="M59.4551 17.0225L59.7638 17.3312L59.4551 17.0225Z" fill="#A5A5A5"/>
<path d="M62.2334 17.0225L62.5421 17.3312L62.2334 17.0225Z" fill="#A5A5A5"/>
<path d="M31.3634 17.3311L31.0547 17.9484L31.3634 17.3311Z" fill="#A5A5A5"/>
<path d="M31.6729 17.3311L31.9815 17.6397L31.6729 17.3311ZM37.2293 17.3311L37.538 17.6397L37.2293 17.3311Z" fill="#A5A5A5"/>
<path d="M37.5371 17.3311L37.8458 17.6397L37.5371 17.3311Z" fill="#FFFFF7"/>
<path d="M31.3633 17.6396L31.672 17.9483L31.3633 17.6396ZM36.9198 17.6396L37.2285 17.9483L36.9198 17.6396Z" fill="#A5A5A5"/>
<path d="M30.4375 17.9482L30.7462 18.2569L30.4375 17.9482Z" fill="#A5A5A5"/>
<path d="M30.9521 18.051L31.1577 18.1541L30.9521 18.051ZM36.6114 17.9482L36.9201 18.2569L36.6114 17.9482Z" fill="#A5A5A5"/>
<path d="M59.4551 17.9482L59.7638 18.2569L59.4551 17.9482Z" fill="#A5A5A5"/>
<path d="M62.2334 17.9482L62.5421 19.4917H62.8508L62.2334 17.9482Z" fill="#A5A5A5"/>
<path d="M62.5422 17.9482L62.8509 18.2569L62.5422 17.9482ZM28.8945 18.8743V19.183L30.438 18.5656L28.8945 18.8743ZM36.3032 18.2569L36.6119 18.5656L36.3032 18.2569Z" fill="#A5A5A5"/>
<path d="M59.7637 18.2568V19.4916H60.0724L59.7637 18.2568Z" fill="#A5A5A5"/>
<path d="M71.4932 18.2568L71.8019 18.5655L71.4932 18.2568Z" fill="#A5A5A5"/>
<path d="M29.8203 18.5664L30.4377 19.1838V18.5664H29.8203ZM35.6855 18.5664L35.9942 18.8751L35.6855 18.5664Z" fill="#A5A5A5"/>
<path d="M69.333 18.5664L69.6417 18.8751L69.333 18.5664ZM70.465 18.6692L70.6706 18.7723L70.465 18.6692Z" fill="#A5A5A5"/>
<path d="M71.082 18.6689L71.2876 18.7721L71.082 18.6689Z" fill="#A5A5A5"/>
<path d="M66.5547 19.8011C67.4317 20.286 68.1537 20.6679 68.4069 19.4924H68.7155V20.4185L70.5677 19.4924H70.8764C71.6086 20.3002 72.1312 19.7523 72.4199 18.875L66.5547 19.8011Z" fill="#A5A5A5"/>
<path d="M71.8027 18.5664L72.1114 18.8751L71.8027 18.5664Z" fill="#A5A5A5"/>
<path d="M72.1113 18.5664L72.42 18.8751L72.1113 18.5664Z" fill="#A5A5A5"/>
<path d="M29.5107 18.875L29.8194 19.1837L29.5107 18.875ZM35.0672 18.875L35.3759 19.1837L35.0672 18.875Z" fill="#A5A5A5"/>
<path d="M35.377 18.875L35.6856 19.1837L35.377 18.875ZM67.4811 18.875L67.7898 19.1837L67.4811 18.875Z" fill="#A5A5A5"/>
<path d="M67.9951 18.9766L68.2007 19.0797L67.9951 18.9766Z" fill="#A5A5A5"/>
<path d="M68.4062 18.875L68.7149 19.1837L68.4062 18.875Z" fill="#FFFFF7"/>
<path d="M68.7148 18.875V19.1837H69.6409L68.7148 18.875Z" fill="#A5A5A5"/>
<path d="M72.4196 18.875L72.7283 19.1837L72.4196 18.875ZM28.2764 19.1837L28.5851 19.4924L28.2764 19.1837Z" fill="#A5A5A5"/>
<path d="M28.585 19.1826L29.2023 19.8V19.1826H28.585ZM34.4501 19.1826L34.7588 19.4913L34.4501 19.1826Z" fill="#A5A5A5"/>
<path d="M34.7598 19.1826L35.0685 19.4913L34.7598 19.1826ZM66.2465 19.1826L65.9378 19.8L66.2465 19.1826Z" fill="#A5A5A5"/>
<path d="M66.7607 19.2854L66.9663 19.3885L66.7607 19.2854ZM72.42 19.1826L72.7287 19.4913L72.42 19.1826Z" fill="#A5A5A5"/>
<path d="M27.6592 19.4912L27.9679 19.7999L27.6592 19.4912Z" fill="#A5A5A5"/>
<path d="M27.9678 19.4912L28.2765 19.7999L27.9678 19.4912ZM34.1417 19.4912L34.4503 19.7999L34.1417 19.4912Z" fill="#A5A5A5"/>
<path d="M59.7637 19.4912L60.0724 21.6521H60.3811L59.7637 19.4912Z" fill="#A5A5A5"/>
<path d="M66.2461 19.4912L67.4809 20.4173V20.1086L66.2461 19.4912ZM68.407 19.4912V20.4173H68.7156L68.407 19.4912ZM69.0243 19.4912L69.333 19.7999L69.0243 19.4912ZM70.5678 19.4912C70.7697 20.434 71.1874 20.3975 72.1113 20.4173V20.1086L70.5678 19.4912Z" fill="#A5A5A5"/>
<path d="M72.4199 19.4912L72.7286 19.7999L72.4199 19.4912Z" fill="#A5A5A5"/>
<path d="M27.3506 19.8008L27.6593 20.1095L27.3506 19.8008Z" fill="#A5A5A5"/>
<path d="M33.0098 20.0068L33.1129 20.2124L33.0098 20.0068Z" fill="#A5A5A5"/>
<path d="M33.4219 19.9033L33.6275 20.0064L33.4219 19.9033Z" fill="#A5A5A5"/>
<path d="M33.833 19.8008L34.1417 20.1095L33.833 19.8008Z" fill="#A5A5A5"/>
<path d="M62.542 19.8008V20.7269H62.8507L62.542 19.8008Z" fill="#A5A5A5"/>
<path d="M62.8496 19.8008V21.9616H63.1583L62.8496 19.8008Z" fill="#A5A5A5"/>
<path d="M72.1113 19.8008L72.42 20.1095L72.1113 19.8008Z" fill="#A5A5A5"/>
<path d="M26.4238 20.1094L26.7325 20.4181L26.4238 20.1094Z" fill="#A5A5A5"/>
<path d="M26.7324 20.1094L27.0411 20.4181L26.7324 20.1094Z" fill="#FFFFF7"/>
<path d="M27.042 20.1094L27.3507 20.4181L27.042 20.1094ZM32.5985 20.1094L32.9072 20.4181L32.5985 20.1094Z" fill="#A5A5A5"/>
<path d="M66.5547 20.1094L66.8634 20.4181L66.5547 20.1094Z" fill="#A5A5A5"/>
<path d="M69.0244 20.1094L69.3331 20.4181L69.0244 20.1094ZM69.8477 20.2122L70.0533 20.3153L69.8477 20.2122Z" fill="#A5A5A5"/>
<path d="M26.0129 20.5208L26.2185 20.6239L26.0129 20.5208ZM32.2896 20.418L32.5983 20.7267L32.2896 20.418ZM67.4807 20.418V20.7267H69.6415L67.4807 20.418ZM69.9502 20.418L70.2589 20.7267L69.9502 20.418ZM70.7735 20.5208L70.9791 20.6239L70.7735 20.5208ZM25.3955 20.8295L25.6011 20.9326L25.3955 20.8295Z" fill="#A5A5A5"/>
<path d="M31.3633 20.7266L31.672 21.0353L31.3633 20.7266Z" fill="#A5A5A5"/>
<path d="M31.6729 20.7266L31.9815 21.0353L31.6729 20.7266Z" fill="#FFFFF7"/>
<path d="M24.5723 21.0352L24.881 21.3439L24.5723 21.0352Z" fill="#A5A5A5"/>
<path d="M24.8809 21.0352V21.3439H25.8069L24.8809 21.0352ZM30.746 21.0352L31.0547 21.3439L30.746 21.0352Z" fill="#A5A5A5"/>
<path d="M31.0547 21.0352L31.3634 21.3439L31.0547 21.0352Z" fill="#A5A5A5"/>
<path d="M60.0723 21.0352L60.381 21.3439L60.0723 21.0352Z" fill="#A5A5A5"/>
<path d="M23.6466 21.3438L23.3379 21.9611L23.6466 21.3438Z" fill="#A5A5A5"/>
<path d="M23.9551 21.3438V21.6524H24.8812L23.9551 21.3438ZM30.129 21.3438L30.4376 21.6524L30.129 21.3438Z" fill="#A5A5A5"/>
<path d="M30.4375 21.3438L30.7462 21.6524L30.4375 21.3438Z" fill="#A5A5A5"/>
<path d="M62.4395 21.4463L62.645 21.5494L62.4395 21.4463Z" fill="#A5A5A5"/>
<path d="M22.6172 21.7559L22.8228 21.859L22.6172 21.7559Z" fill="#A5A5A5"/>
<path d="M23.6465 21.6523L23.9552 21.961L23.6465 21.6523ZM28.8943 22.2697L29.8204 21.961L28.8943 22.2697Z" fill="#A5A5A5"/>
<path d="M29.8203 21.6523L30.129 21.961L29.8203 21.6523Z" fill="#A5A5A5"/>
<path d="M60.0723 21.6523L60.381 21.961L60.0723 21.6523Z" fill="#A5A5A5"/>
<path d="M20.251 22.2695V22.5782L21.7944 22.2695H20.251Z" fill="#A5A5A5"/>
<path d="M21.7939 21.9609V22.2696H22.72L21.7939 21.9609ZM23.2346 22.0637L23.4402 22.1668L23.2346 22.0637Z" fill="#A5A5A5"/>
<path d="M29.2031 21.9609L29.5118 22.2696L29.2031 21.9609ZM59.7638 21.9609L60.0725 22.2696L59.7638 21.9609Z" fill="#A5A5A5"/>
<path d="M62.8496 21.9609V22.887H63.1583L62.8496 21.9609Z" fill="#A5A5A5"/>
<path d="M19.6328 22.2695L19.9415 22.5782L19.6328 22.2695Z" fill="#A5A5A5"/>
<path d="M20.8672 22.2695L21.1759 22.5782L20.8672 22.2695ZM28.2758 22.2695L28.5845 22.5782L28.2758 22.2695ZM60.0713 22.2695V23.5043H60.38L60.0713 22.2695Z" fill="#A5A5A5"/>
<path d="M17.7812 22.5791L18.0899 22.8878L17.7812 22.5791Z" fill="#A5A5A5"/>
<path d="M18.0898 22.5791V22.8878H19.0159L18.0898 22.5791ZM19.3246 22.5791L19.6333 22.8878L19.3246 22.5791ZM20.1479 22.6819L20.3535 22.785L20.1479 22.6819Z" fill="#A5A5A5"/>
<path d="M27.6589 22.5791L27.9676 22.8878L27.6589 22.5791ZM17.0605 22.9906L17.2661 23.0937L17.0605 22.9906Z" fill="#A5A5A5"/>
<path d="M17.6787 22.9905L17.8843 23.0936L17.6787 22.9905ZM20.5597 22.8877L20.8684 23.1964L20.5597 22.8877ZM26.4249 22.8877V23.1964H27.351L26.4249 22.8877Z" fill="#A5A5A5"/>
<path d="M15.8262 23.2988L16.0318 23.4019L15.8262 23.2988Z" fill="#A5A5A5"/>
<path d="M16.2373 23.1953L16.546 23.504L16.2373 23.1953Z" fill="#A5A5A5"/>
<path d="M16.5469 23.1953L16.8556 23.504L16.5469 23.1953Z" fill="#FFFFF7"/>
<path d="M16.8545 23.1953L17.1632 23.504L16.8545 23.1953Z" fill="#A5A5A5"/>
<path d="M25.4982 23.1953V23.504H26.4243L25.4982 23.1953ZM63.1589 23.1953V25.0475H63.4676L63.1589 23.1953ZM12.8418 23.504V23.8127H14.694L12.8418 23.504Z" fill="#A5A5A5"/>
<path d="M14.6943 23.5049V23.8136H15.6204L14.6943 23.5049ZM24.8812 23.5049L25.1899 23.8136L24.8812 23.5049Z" fill="#A5A5A5"/>
<path d="M25.1901 23.5049L25.4988 23.8136L25.1901 23.5049ZM60.0725 23.5049V25.0484H60.3812L60.0725 23.5049ZM11.8135 23.9164L12.0191 24.0195L11.8135 23.9164Z" fill="#A5A5A5"/>
<path d="M12.2246 23.8135V24.1222H13.1507L12.2246 23.8135ZM23.955 23.8135L24.2637 24.1222L23.955 23.8135Z" fill="#A5A5A5"/>
<path d="M24.4693 23.916L24.6749 24.0191L24.4693 23.916ZM10.0635 24.1219V24.4306H11.2983L10.0635 24.1219Z" fill="#A5A5A5"/>
<path d="M11.5039 24.2249L11.7095 24.328L11.5039 24.2249ZM23.0284 24.1221L23.3371 24.4308L23.0284 24.1221Z" fill="#A5A5A5"/>
<path d="M23.338 24.1221L23.6467 24.4308L23.338 24.1221ZM7.90332 24.4308V24.7395H9.1381L7.90332 24.4308Z" fill="#A5A5A5"/>
<path d="M9.1377 24.4307V24.7394H10.0638L9.1377 24.4307ZM21.6913 24.5335L21.8969 24.6366L21.6913 24.5335Z" fill="#A5A5A5"/>
<path d="M22.1026 24.4307V24.7394H23.0286L22.1026 24.4307ZM6.97656 24.7394L7.28526 25.0481L6.97656 24.7394Z" fill="#A5A5A5"/>
<path d="M7.28516 24.7393V25.048H8.21124L7.28516 24.7393ZM20.2503 24.7393V25.048H21.1764L20.2503 24.7393Z" fill="#A5A5A5"/>
<path d="M21.1768 24.7393L21.4855 25.048L21.1768 24.7393Z" fill="#A5A5A5"/>
<path d="M62.8496 24.7393L63.1583 25.048L62.8496 24.7393Z" fill="#A5A5A5"/>
<path d="M6.25684 25.1514L6.46242 25.2545L6.25684 25.1514Z" fill="#A5A5A5"/>
<path d="M6.66797 25.0479L6.97666 25.3565L6.66797 25.0479Z" fill="#A5A5A5"/>
<path d="M19.6328 25.0479L19.9415 25.3565L19.6328 25.0479Z" fill="#FFFFF7"/>
<path d="M5.43409 25.3564L3.89062 26.8999L5.43409 25.3564Z" fill="#A5A5A5"/>
<path d="M5.94727 25.4592L6.15285 25.5623L5.94727 25.4592ZM18.3978 25.3564L18.7065 25.6651L18.3978 25.3564Z" fill="#A5A5A5"/>
<path d="M19.3242 25.3564L19.6329 25.6651L19.3242 25.3564Z" fill="#A5A5A5"/>
<path d="M60.4839 25.5623L60.587 25.7679L60.4839 25.5623ZM62.8507 25.3564V26.2825H63.1593L62.8507 25.3564ZM5.43359 25.6651L5.74229 25.9738L5.43359 25.6651Z" fill="#A5A5A5"/>
<path d="M17.7812 25.666L18.0899 25.9747L17.7812 25.666Z" fill="#A5A5A5"/>
<path d="M18.0894 25.666C14.5734 27.1786 8.94094 28.355 5.12425 28.4443C3.83051 35.0932 2.67229 40.5938 5.78393 46.9659C6.564 48.5631 7.83458 49.8337 8.82858 51.2876L17.1633 49.2752L19.9209 48.0269L19.2454 42.3355L18.0536 32.678L18.0894 25.666Z" fill="#010101"/>
<path d="M18.3984 25.666L18.7071 25.9747L18.3984 25.666Z" fill="#A5A5A5"/>
<path d="M19.3242 25.666L19.6329 26.5921L19.3242 25.666Z" fill="#A5A5A5"/>
<path d="M63.1582 25.666L63.4669 25.9747L63.1582 25.666Z" fill="#A5A5A5"/>
<path d="M5.125 25.9746L5.43369 26.2833L5.125 25.9746ZM15.9293 25.9746L16.238 26.2833L15.9293 25.9746Z" fill="#A5A5A5"/>
<path d="M16.2373 25.9746L16.546 26.2833L16.2373 25.9746Z" fill="#FFFFF7"/>
<path d="M16.5469 25.9746L16.8556 26.2833L16.5469 25.9746Z" fill="#A5A5A5"/>
<path d="M16.8545 25.9746L17.1632 26.2833L16.8545 25.9746Z" fill="#FFFFF7"/>
<path d="M18.3984 25.9746V26.9007H18.7071L18.3984 25.9746Z" fill="#A5A5A5"/>
<path d="M60.4834 26.1797L60.5865 26.3853L60.4834 26.1797Z" fill="#A5A5A5"/>
<path d="M4.50684 26.2822L4.81553 26.5909L4.50684 26.2822ZM14.6937 26.2822L15.0024 26.5909L14.6937 26.2822Z" fill="#A5A5A5"/>
<path d="M15.0029 26.2822L15.3116 26.5909L15.0029 26.2822Z" fill="#A5A5A5"/>
<path d="M15.3105 26.2822L15.6192 26.5909L15.3105 26.2822Z" fill="#A5A5A5"/>
<path d="M15.6201 26.2822L15.9288 26.5909L15.6201 26.2822Z" fill="#A5A5A5"/>
<path d="M63.1588 26.2822V27.8257H63.4675L63.1588 26.2822ZM4.19824 26.5909L4.50694 26.8996L4.19824 26.5909ZM12.8417 26.5909L13.1504 26.8996L12.8417 26.5909ZM13.9737 26.6937L14.1792 26.7968L13.9737 26.6937Z" fill="#A5A5A5"/>
<path d="M14.3857 26.5918L14.6944 26.9005L14.3857 26.5918ZM19.6335 26.5918V28.444H19.9422L19.6335 26.5918Z" fill="#A5A5A5"/>
<path d="M10.6816 26.9004V27.2091H11.9164L10.6816 26.9004Z" fill="#A5A5A5"/>
<path d="M11.916 26.9004L12.2247 27.2091L11.916 26.9004ZM18.1927 27.1063L18.2958 27.3119L18.1927 27.1063Z" fill="#A5A5A5"/>
<path d="M19.016 26.9004L19.3246 27.2091L19.016 26.9004ZM9.65234 27.3119L9.85793 27.415L9.65234 27.3119Z" fill="#A5A5A5"/>
<path d="M10.0635 27.209L10.3722 27.5177L10.0635 27.209Z" fill="#A5A5A5"/>
<path d="M60.6903 27.209V28.7525H60.999L60.6903 27.209ZM3.89062 27.5177L4.19932 27.8264L3.89062 27.5177Z" fill="#A5A5A5"/>
<path d="M7.90332 27.5176V27.8263H9.44679L7.90332 27.5176Z" fill="#A5A5A5"/>
<path d="M18.0898 27.5176L18.3985 27.8263L18.0898 27.5176Z" fill="#A5A5A5"/>
<path d="M3.58105 27.8262L3.88975 28.1349L3.58105 27.8262Z" fill="#A5A5A5"/>
<path d="M7.28516 27.8262L7.59385 28.1349L7.28516 27.8262Z" fill="#A5A5A5"/>
<path d="M7.5934 27.8262L7.90209 28.1349L7.5934 27.8262ZM18.089 27.8262V29.3696H18.3977L18.089 27.8262ZM63.1583 27.8262L63.467 28.1349L63.1583 27.8262ZM2.96299 28.1349L2.6543 28.7523L2.96299 28.1349Z" fill="#A5A5A5"/>
<path d="M5.125 28.1357V28.4444H6.66847L5.125 28.1357Z" fill="#A5A5A5"/>
<path d="M6.87402 28.2383L7.07961 28.3414L6.87402 28.2383Z" fill="#A5A5A5"/>
<path d="M18.3984 28.1357L19.0158 28.7531L18.3984 28.1357Z" fill="#A5A5A5"/>
<path d="M18.707 28.1357L19.0157 28.4444L18.707 28.1357Z" fill="#A5A5A5"/>
<path d="M63.1583 28.1357V29.0618H63.467L63.1583 28.1357ZM2.96299 28.4444L3.27168 28.7531L2.96299 28.4444ZM19.6325 28.4444L19.9412 28.7531L19.6325 28.4444ZM2.6543 28.7531V29.6792H2.96299L2.6543 28.7531ZM4.81515 28.7531L5.12385 29.0618L4.81515 28.7531Z" fill="#A5A5A5"/>
<path d="M19.9414 28.752V30.2954H20.2501L19.9414 28.752ZM60.689 28.752V30.2954H60.9977L60.689 28.752ZM4.81543 29.0606L5.12412 29.3693L4.81543 29.0606ZM63.4673 29.0606V30.2954H63.776L63.4673 29.0606Z" fill="#A5A5A5"/>
<path d="M4.50684 29.3701L4.81553 29.6788L4.50684 29.3701ZM18.0894 29.3701L18.3981 29.6788L18.0894 29.3701Z" fill="#A5A5A5"/>
<path d="M4.50684 29.6787L4.81553 29.9874L4.50684 29.6787Z" fill="#FFFFF7"/>
<path d="M2.44922 30.1932L2.55233 30.3988L2.44922 30.1932ZM4.50728 29.9873V30.9134H4.81598L4.50728 29.9873ZM17.7811 29.9873L18.0898 30.296L17.7811 29.9873Z" fill="#A5A5A5"/>
<path d="M18.0901 30.2959L18.3988 30.6046L18.0901 30.2959ZM19.9422 30.2959L20.2509 30.6046L19.9422 30.2959ZM60.9985 30.2959V31.5307H61.3072L60.9985 30.2959ZM63.4681 30.2959L63.7768 30.6046L63.4681 30.2959ZM2.34668 30.6046L2.65537 30.9133L2.34668 30.6046Z" fill="#A5A5A5"/>
<path d="M18.0902 30.6045L18.3989 30.9132L18.0902 30.6045ZM63.7769 30.6045L64.0856 30.9132L63.7769 30.6045ZM2.03809 30.9132L2.34678 31.2219L2.03809 30.9132Z" fill="#A5A5A5"/>
<path d="M18.0898 30.9131V32.1479H18.3985L18.0898 30.9131Z" fill="#A5A5A5"/>
<path d="M20.251 30.9131L20.5597 31.2218L20.251 30.9131Z" fill="#A5A5A5"/>
<path d="M2.03809 31.2227L2.34678 31.5314L2.03809 31.2227Z" fill="#A5A5A5"/>
<path d="M4.19807 31.2227L4.50676 31.5314L4.19807 31.2227ZM1.72852 31.5314L2.03721 31.84L1.72852 31.5314Z" fill="#A5A5A5"/>
<path d="M3.89062 31.5312L4.19932 31.8399L3.89062 31.5312ZM19.9427 31.5312L20.2514 31.8399L19.9427 31.5312Z" fill="#A5A5A5"/>
<path d="M61.1016 31.7372L61.2047 31.9427L61.1016 31.7372ZM63.777 31.5312V32.4573H64.0857L63.777 31.5312Z" fill="#A5A5A5"/>
<path d="M1.72852 31.8389L2.03721 32.1476L1.72852 31.8389Z" fill="#A5A5A5"/>
<path d="M3.88947 31.8389V34.3084H4.19817L3.88947 31.8389ZM19.9416 31.8389L20.2502 34.3084H20.5589L19.9416 31.8389ZM1.41992 32.1476L1.72862 32.4563L1.41992 32.1476ZM18.1922 32.3535L18.2953 32.559L18.1922 32.3535Z" fill="#A5A5A5"/>
<path d="M19.9417 32.1484L20.2503 32.4571L19.9417 32.1484ZM60.9979 32.1484V33.0745H61.3066L60.9979 32.1484ZM1.42002 32.4571L1.11133 33.6919H1.42002V32.4571Z" fill="#A5A5A5"/>
<path d="M63.7764 32.457L64.0851 32.7657L63.7764 32.457Z" fill="#FFFFF7"/>
<path d="M1.11133 32.7656L1.42002 33.0743L1.11133 32.7656Z" fill="#A5A5A5"/>
<path d="M18.0898 32.7656V34.3091H18.3985L18.0898 32.7656Z" fill="#A5A5A5"/>
<path d="M63.7764 32.7656V34.0004H64.0851L63.7764 32.7656Z" fill="#A5A5A5"/>
<path d="M3.58105 33.0742L3.88975 33.3829L3.58105 33.0742Z" fill="#A5A5A5"/>
<path d="M17.7809 33.0742L18.0896 33.3829L17.7809 33.0742ZM61.1008 33.2801L61.2039 33.4857L61.1008 33.2801ZM0.802734 33.6916L1.11143 34.0003L0.802734 33.6916ZM48.0329 33.6916L48.3416 34.0003L48.0329 33.6916ZM48.959 33.6916L49.2677 34.0003L48.959 33.6916ZM49.7823 33.7944L49.9879 33.8975L49.7823 33.7944Z" fill="#A5A5A5"/>
<path d="M1.11133 34.001L1.42002 34.3097L1.11133 34.001ZM3.68367 34.2069L3.78678 34.4125L3.68367 34.2069Z" fill="#A5A5A5"/>
<path d="M47.3125 34.1035L47.5181 34.2066L47.3125 34.1035Z" fill="#A5A5A5"/>
<path d="M63.7764 34.001V36.1618H64.0851L63.7764 34.001Z" fill="#A5A5A5"/>
<path d="M0.802734 34.3086V35.5434H1.11143L0.802734 34.3086ZM18.0896 34.3086V35.5434H18.3983L18.0896 34.3086Z" fill="#A5A5A5"/>
<path d="M20.251 34.3086V35.2347H20.5597L20.251 34.3086Z" fill="#A5A5A5"/>
<path d="M3.27246 35.2354L3.58115 35.544L3.27246 35.2354Z" fill="#A5A5A5"/>
<path d="M43.6084 35.3381L43.814 35.4412L43.6084 35.3381ZM55.1329 35.2354L55.4416 35.544L55.1329 35.2354Z" fill="#A5A5A5"/>
<path d="M61.4102 35.4414L61.5133 35.647L61.4102 35.4414Z" fill="#A5A5A5"/>
<path d="M0.802734 35.5439L1.11143 35.8526L0.802734 35.5439Z" fill="#FFFFF7"/>
<path d="M3.68457 35.75L3.78768 35.9556L3.68457 35.75Z" fill="#A5A5A5"/>
<path d="M18.501 35.75L18.6041 35.9556L18.501 35.75Z" fill="#A5A5A5"/>
<path d="M61.3069 36.1611V37.7046H61.6156L61.3069 36.1611ZM3.27246 36.4698V37.7046H3.58115L3.27246 36.4698ZM20.5593 36.4698V38.322H20.868L20.5593 36.4698Z" fill="#A5A5A5"/>
<path d="M41.8595 36.4697L42.1682 36.7784L41.8595 36.4697ZM56.9855 36.4697L57.2942 36.7784L56.9855 36.4697ZM64.0854 36.4697V38.0132H64.3941L64.0854 36.4697ZM41.5508 36.7784L41.8595 37.0871L41.5508 36.7784ZM57.2942 36.7784L57.6029 37.0871L57.2942 36.7784ZM57.6029 37.0871L57.9116 37.3958L57.6029 37.0871Z" fill="#A5A5A5"/>
<path d="M68.0986 37.0879L70.2595 38.9401V38.014H68.716L69.0247 37.0879H68.0986Z" fill="#A5A5A5"/>
<path d="M69.0244 37.0879L69.3331 37.3966L69.0244 37.0879Z" fill="#A5A5A5"/>
<path d="M69.333 37.7042L70.2591 37.3955L69.333 37.7042Z" fill="#A5A5A5"/>
<path d="M70.2588 37.0879V37.3966L71.8023 37.7053V37.3966L70.2588 37.0879Z" fill="#A5A5A5"/>
<path d="M0.802734 37.3955L1.11143 37.7042L0.802734 37.3955ZM18.3983 37.3955L18.707 37.7042L18.3983 37.3955Z" fill="#A5A5A5"/>
<path d="M40.9326 37.3955L41.2413 37.7042L40.9326 37.3955ZM55.7499 37.3955L56.0586 37.7042L55.7499 37.3955Z" fill="#A5A5A5"/>
<path d="M68.7148 37.7048L70.2583 38.0135V38.9396L71.4931 38.6309C71.6579 39.8437 73.4869 40.0311 74.58 40.1743C74.4936 37.756 71.2887 36.7083 68.7148 37.7048Z" fill="#A5A5A5"/>
<path d="M70.877 37.3955L71.1856 37.7042L70.877 37.3955ZM72.0089 37.4983L72.2145 37.6014L72.0089 37.4983Z" fill="#A5A5A5"/>
<path d="M72.4198 37.3955L72.7285 37.7042L72.4198 37.3955ZM0.494141 37.7042V38.939H0.802834L0.494141 37.7042ZM3.27239 37.7042L3.58108 38.0129L3.27239 37.7042ZM18.3984 37.7042V39.2477H18.7071L18.3984 37.7042ZM57.9112 37.7042L58.2199 38.0129L57.9112 37.7042ZM61.3068 37.7042L61.6155 38.0129L61.3068 37.7042ZM68.0981 37.7042L68.4068 38.0129L68.0981 37.7042Z" fill="#A5A5A5"/>
<path d="M72.7285 37.7041L73.0372 38.0128L72.7285 37.7041Z" fill="#A5A5A5"/>
<path d="M73.0371 37.7041V38.0128L74.5806 38.3215L73.0371 37.7041Z" fill="#A5A5A5"/>
<path d="M3.375 38.2197L3.47811 38.4253L3.375 38.2197Z" fill="#A5A5A5"/>
<path d="M40.1104 38.2196L40.2135 38.4252L40.1104 38.2196ZM53.8988 38.0137L54.2075 38.3224L53.8988 38.0137ZM58.2205 38.0137L58.5292 38.3224L58.2205 38.0137Z" fill="#A5A5A5"/>
<path d="M64.0859 38.0137L64.3946 38.3224L64.0859 38.0137Z" fill="#FFFFF7"/>
<path d="M68.4062 38.0137L68.7149 38.3224L68.4062 38.0137Z" fill="#A5A5A5"/>
<path d="M73.9629 38.0137L74.2716 38.3224L73.9629 38.0137Z" fill="#A5A5A5"/>
<path d="M20.8672 38.3223V39.557H21.1759L20.8672 38.3223ZM56.6757 38.3223L56.9844 38.631L56.6757 38.3223Z" fill="#A5A5A5"/>
<path d="M61.3066 38.3223L61.6153 38.631L61.3066 38.3223Z" fill="#A5A5A5"/>
<path d="M64.0859 38.3223L64.3946 38.631L64.0859 38.3223ZM69.025 38.3223L69.3337 38.631L69.025 38.3223Z" fill="#A5A5A5"/>
<path d="M71.803 38.3223V39.2483H72.7291L71.803 38.3223ZM74.5813 38.3223L74.89 38.631L74.5813 38.3223ZM0.90625 38.8369L1.00936 39.0425L0.90625 38.8369Z" fill="#A5A5A5"/>
<path d="M3.27246 38.6309L3.58115 38.9396L3.27246 38.6309Z" fill="#FFFFF7"/>
<path d="M64.1875 38.8359L64.2906 39.0415L64.1875 38.8359Z" fill="#A5A5A5"/>
<path d="M69.6416 38.6309L69.9503 38.9396L69.6416 38.6309Z" fill="#A5A5A5"/>
<path d="M70.5674 39.2482L71.4935 38.6309L70.5674 39.2482Z" fill="#A5A5A5"/>
<path d="M74.8896 38.6309L75.1983 38.9396L74.8896 38.6309Z" fill="#A5A5A5"/>
<path d="M3.27246 38.9395V39.8655H3.58115L3.27246 38.9395ZM18.7072 38.9395V39.8655H19.0158L18.7072 38.9395Z" fill="#A5A5A5"/>
<path d="M39.3896 38.9395L39.6983 39.2481L39.3896 38.9395ZM52.9722 38.9395L53.2809 39.2481L52.9722 38.9395ZM57.9113 38.9395L58.22 39.2481L57.9113 38.9395Z" fill="#A5A5A5"/>
<path d="M61.5127 39.042L61.7183 39.1451L61.5127 39.042Z" fill="#A5A5A5"/>
<path d="M70.2588 38.9395L70.5675 39.2481L70.2588 38.9395Z" fill="#A5A5A5"/>
<path d="M74.8889 38.9395L74.2715 39.5568V39.8655C74.9664 39.7195 75.234 39.6001 74.8889 38.9395Z" fill="#A5A5A5"/>
<path d="M61.3066 39.248V41.4089H61.6153L61.3066 39.248ZM71.1848 39.248L71.4935 39.5567L71.1848 39.248Z" fill="#A5A5A5"/>
<path d="M71.4932 39.248L71.8019 39.5567L71.4932 39.248Z" fill="#A5A5A5"/>
<path d="M75.1982 39.248L75.5069 39.5567L75.1982 39.248Z" fill="#A5A5A5"/>
<path d="M0.90625 39.7635L1.00936 39.9691L0.90625 39.7635ZM20.8686 39.5576L21.1772 39.8663L20.8686 39.5576Z" fill="#A5A5A5"/>
<path d="M39.0801 39.5576L39.3888 39.8663L39.0801 39.5576ZM64.393 39.5576L64.7017 39.8663L64.393 39.5576ZM71.8016 39.5576L72.1103 39.8663L71.8016 39.5576Z" fill="#A5A5A5"/>
<path d="M72.3174 39.6602L72.523 39.7633L72.3174 39.6602Z" fill="#A5A5A5"/>
<path d="M3.58105 39.8652L3.88975 40.1739L3.58105 39.8652ZM18.7071 39.8652L19.0157 40.1739L18.7071 39.8652ZM20.8679 39.8652L21.1766 40.1739L20.8679 39.8652ZM57.9112 39.8652L58.2199 40.1739L57.9112 39.8652ZM59.2487 40.0711L59.3518 40.2767L59.2487 40.0711Z" fill="#A5A5A5"/>
<path d="M64.0859 39.8652V40.7913H64.3946L64.0859 39.8652Z" fill="#A5A5A5"/>
<path d="M72.7285 39.8652L73.0372 40.1739L72.7285 39.8652Z" fill="#A5A5A5"/>
<path d="M73.2432 39.9688L73.4488 40.0718L73.2432 39.9688Z" fill="#A5A5A5"/>
<path d="M74.5801 39.8652L74.8888 40.1739L74.5801 39.8652Z" fill="#A5A5A5"/>
<path d="M3.27246 40.1738V41.4086H3.58115L3.27246 40.1738ZM19.0158 40.1738L19.3245 42.9521H19.6332L19.9419 41.7173L19.0158 40.1738ZM20.868 40.1738V41.4086H21.1767L20.868 40.1738Z" fill="#A5A5A5"/>
<path d="M61.6152 40.4824L61.9239 40.7911L61.6152 40.4824Z" fill="#A5A5A5"/>
<path d="M64.3939 40.4824V41.4085H64.7026L64.3939 40.4824ZM21.1768 40.7911L21.4855 41.0998L21.1768 40.7911ZM59.5576 40.997L59.6607 41.2026L59.5576 40.997ZM38.5664 41.3057L38.6695 41.5113L38.5664 41.3057Z" fill="#A5A5A5"/>
<path d="M61.6161 41.1006V42.3354H61.9248L61.6161 41.1006ZM0.90625 41.6152L1.00936 41.8208L0.90625 41.6152Z" fill="#A5A5A5"/>
<path d="M3.68457 41.6141L3.78768 41.8197L3.68457 41.6141ZM21.1773 41.4082L21.486 41.7169L21.1773 41.4082Z" fill="#A5A5A5"/>
<path d="M64.3936 41.4082L64.7022 41.7169L64.3936 41.4082Z" fill="#FFFFF7"/>
<path d="M19.1191 41.9238L19.2222 42.1294L19.1191 41.9238Z" fill="#A5A5A5"/>
<path d="M21.1768 41.7178V43.2612H21.4855L21.1768 41.7178Z" fill="#A5A5A5"/>
<path d="M64.3936 41.7178V43.8786H64.7022L64.3936 41.7178Z" fill="#A5A5A5"/>
<path d="M0.90625 42.2324L1.00936 42.438L0.90625 42.2324Z" fill="#A5A5A5"/>
<path d="M3.58105 42.0264L3.88975 42.3351L3.58105 42.0264Z" fill="#A5A5A5"/>
<path d="M21.1768 42.0264L21.4855 42.3351L21.1768 42.0264Z" fill="#A5A5A5"/>
<path d="M1.21484 42.541L1.31795 42.7466L1.21484 42.541Z" fill="#A5A5A5"/>
<path d="M3.89062 42.335L4.19932 42.6437L3.89062 42.335ZM42.786 42.335L43.0947 42.6437L42.786 42.335Z" fill="#A5A5A5"/>
<path d="M3.58105 42.6445L4.19844 43.2619V42.6445H3.58105Z" fill="#A5A5A5"/>
<path d="M1.11133 42.9521V44.1869H1.42002L1.11133 42.9521ZM19.3243 42.9521L19.633 43.2608L19.3243 42.9521Z" fill="#A5A5A5"/>
<path d="M20.1475 43.0547L20.353 43.1578L20.1475 43.0547Z" fill="#A5A5A5"/>
<path d="M38.1543 42.9521L38.463 43.2608L38.1543 42.9521ZM61.3063 42.9521V44.1869H61.615L61.3063 42.9521Z" fill="#A5A5A5"/>
<path d="M61.6149 42.9521L61.9236 43.2608L61.6149 42.9521ZM19.7354 43.4667L19.8385 43.6723L19.7354 43.4667Z" fill="#A5A5A5"/>
<path d="M4.19824 43.5703L4.50694 43.879L4.19824 43.5703Z" fill="#FFFFF7"/>
<path d="M38.4639 43.5703L38.7726 43.879L38.4639 43.5703Z" fill="#A5A5A5"/>
<path d="M61.6153 43.5703V44.8051H61.924L61.6153 43.5703ZM4.19824 43.879V45.1138H4.50694L4.19824 43.879Z" fill="#A5A5A5"/>
<path d="M19.6328 43.8789V45.1137H19.9415L19.6328 43.8789Z" fill="#A5A5A5"/>
<path d="M21.4855 43.8789L21.1768 44.805L21.4855 43.8789Z" fill="#A5A5A5"/>
<path d="M39.0801 43.8789L39.3888 44.1876L39.0801 43.8789ZM64.8045 44.0848L64.9076 44.2904L64.8045 44.0848Z" fill="#A5A5A5"/>
<path d="M1.41992 44.1875L1.72862 44.4962L1.41992 44.1875Z" fill="#A5A5A5"/>
<path d="M64.3936 44.4961V48.2004H64.7022L64.3936 44.4961Z" fill="#A5A5A5"/>
<path d="M4.91895 45.3193L5.02205 45.5249L4.91895 45.3193Z" fill="#A5A5A5"/>
<path d="M21.7939 45.1133V46.3481H22.1026L21.7939 45.1133ZM31.878 45.2161L32.0836 45.3192L31.878 45.2161Z" fill="#A5A5A5"/>
<path d="M32.2891 45.1133V46.0394H32.5978L32.2891 45.1133Z" fill="#A5A5A5"/>
<path d="M32.5986 45.1133L32.9073 45.422L32.5986 45.1133Z" fill="#A5A5A5"/>
<path d="M32.9072 45.1133V45.422H34.142L32.9072 45.1133ZM34.6566 45.2161L34.8622 45.3192L34.6566 45.2161ZM35.8914 45.2161L36.097 45.3192L35.8914 45.2161ZM38.7724 45.1133L39.0811 45.422L38.7724 45.1133Z" fill="#A5A5A5"/>
<path d="M40.624 45.1133L40.9327 45.422L40.624 45.1133Z" fill="#FFFFF7"/>
<path d="M41.1387 45.2168L41.3443 45.3199L41.1387 45.2168Z" fill="#A5A5A5"/>
<path d="M41.5508 45.1133L41.8595 45.422L41.5508 45.1133Z" fill="#FFFFF7"/>
<path d="M19.9414 45.4219L20.2501 45.7306L19.9414 45.4219Z" fill="#A5A5A5"/>
<path d="M30.1289 45.4219L30.4376 45.7306L30.1289 45.4219ZM31.055 45.4219L31.3637 45.7306L31.055 45.4219Z" fill="#A5A5A5"/>
<path d="M31.3633 45.4219L31.672 45.7306L31.3633 45.4219Z" fill="#FFFFF7"/>
<path d="M31.6729 45.4219L31.9815 45.7306L31.6729 45.4219ZM40.625 45.4219L40.3163 46.0393H40.9337L40.625 45.4219ZM42.7858 45.4219V45.7306H43.7119L42.7858 45.4219Z" fill="#A5A5A5"/>
<path d="M43.7109 45.4219L44.0196 45.7306L43.7109 45.4219Z" fill="#A5A5A5"/>
<path d="M44.0205 45.4219V45.7306L45.2553 46.0393V45.7306L44.0205 45.4219Z" fill="#A5A5A5"/>
<path d="M44.3291 45.4219L44.6378 45.7306L44.3291 45.4219ZM52.2524 45.5247L52.458 45.6278L52.2524 45.5247ZM53.2812 45.4219L53.5899 45.7306L53.2812 45.4219ZM54.516 45.4219L54.8247 45.7306L54.516 45.4219ZM56.3682 45.4219L56.6769 45.7306L56.3682 45.4219ZM57.8089 45.5247L58.0144 45.6278L57.8089 45.5247ZM5.125 45.7306L5.43369 46.0393L5.125 45.7306Z" fill="#A5A5A5"/>
<path d="M19.9414 45.7305L20.2501 46.0392L19.9414 45.7305Z" fill="#FFFFF7"/>
<path d="M29.4082 45.833L29.6138 45.9361L29.4082 45.833Z" fill="#A5A5A5"/>
<path d="M29.8203 45.7305V46.0392H31.0551L29.8203 45.7305ZM35.9942 45.7305L36.3029 46.0392L35.9942 45.7305ZM42.4768 45.7305L42.7855 46.0392L42.4768 45.7305Z" fill="#A5A5A5"/>
<path d="M5.125 46.0391L5.43369 46.3478L5.125 46.0391Z" fill="#A5A5A5"/>
<path d="M19.9414 46.0391V46.9651H20.2501L19.9414 46.0391ZM28.482 46.1419L28.6876 46.245L28.482 46.1419Z" fill="#A5A5A5"/>
<path d="M29.0996 46.1419L29.3052 46.245L29.0996 46.1419ZM35.0676 46.0391L35.3763 46.3478L35.0676 46.0391ZM47.0039 46.1419L47.2094 46.245L47.0039 46.1419Z" fill="#A5A5A5"/>
<path d="M47.6211 46.1426L47.8267 46.2457L47.6211 46.1426Z" fill="#A5A5A5"/>
<path d="M2.03809 46.3477L2.65547 47.2737L2.03809 46.3477Z" fill="#A5A5A5"/>
<path d="M5.53613 46.5547L5.63924 46.7603L5.53613 46.5547Z" fill="#A5A5A5"/>
<path d="M21.7939 46.3477L22.1026 46.6564L21.7939 46.3477Z" fill="#A5A5A5"/>
<path d="M27.3506 46.3477L27.6593 46.6564L27.3506 46.3477Z" fill="#A5A5A5"/>
<path d="M27.6592 46.3477L27.9679 46.6564L27.6592 46.3477Z" fill="#FFFFF7"/>
<path d="M27.9678 46.3477V46.965H28.5852V46.3477H27.9678ZM29.5112 46.3477L29.8199 46.6564L29.5112 46.3477ZM48.2388 46.4505L48.4444 46.5536L48.2388 46.4505Z" fill="#A5A5A5"/>
<path d="M48.8571 46.4512L49.0627 46.5543L48.8571 46.4512ZM22.1035 46.6571V47.5831H22.4122L22.1035 46.6571ZM25.1905 46.6571V46.9658H26.4252L25.1905 46.6571Z" fill="#A5A5A5"/>
<path d="M26.4238 46.6572V46.9659H27.3499L26.4238 46.6572ZM48.9585 46.6572V46.9659H49.8846L48.9585 46.6572Z" fill="#A5A5A5"/>
<path d="M49.8857 46.6572V46.9659H50.8118L49.8857 46.6572ZM51.1205 46.6572L51.4292 46.9659L51.1205 46.6572Z" fill="#A5A5A5"/>
<path d="M61.6152 46.6572L61.9239 46.9659L61.6152 46.6572Z" fill="#FFFFF7"/>
<path d="M2.03809 46.9648L2.34678 47.2735L2.03809 46.9648ZM20.251 46.9648L20.5597 47.2735L20.251 46.9648Z" fill="#A5A5A5"/>
<path d="M21.8975 47.1709L22.0006 47.3765L21.8975 47.1709Z" fill="#A5A5A5"/>
<path d="M23.9551 46.9648L24.2638 47.2735L23.9551 46.9648Z" fill="#A5A5A5"/>
<path d="M24.2637 46.9648V47.2735H25.4984L24.2637 46.9648ZM51.4287 46.9648L51.7374 47.2735L51.4287 46.9648Z" fill="#A5A5A5"/>
<path d="M51.7373 46.9648V47.2735H52.6634L51.7373 46.9648ZM53.4867 47.0676L53.6923 47.1707L53.4867 47.0676Z" fill="#A5A5A5"/>
<path d="M61.6152 46.9648L61.9239 47.2735L61.6152 46.9648Z" fill="#A5A5A5"/>
<path d="M2.34668 47.2734L2.65537 47.5821L2.34668 47.2734Z" fill="#FFFFF7"/>
<path d="M5.74121 47.2734L6.0499 47.5821L5.74121 47.2734Z" fill="#A5A5A5"/>
<path d="M20.251 47.2734V48.5082H20.5597L20.251 47.2734Z" fill="#A5A5A5"/>
<path d="M23.3379 47.2734L23.6466 47.5821L23.3379 47.2734Z" fill="#A5A5A5"/>
<path d="M23.6465 47.2734L23.9552 47.5821L23.6465 47.2734ZM53.5898 47.2734L53.8985 47.5821L53.5898 47.2734Z" fill="#A5A5A5"/>
<path d="M53.8984 47.2734L54.2071 47.5821L53.8984 47.2734Z" fill="#FFFFF7"/>
<path d="M54.2072 47.2734V47.5821H55.7507L54.2072 47.2734ZM61.6159 47.2734L61.9246 47.5821L61.6159 47.2734ZM2.34668 47.5821L2.65537 47.8908L2.34668 47.5821ZM6.05101 47.5821L6.3597 47.8908L6.05101 47.5821Z" fill="#A5A5A5"/>
<path d="M20.251 47.583L20.5597 47.8917L20.251 47.583Z" fill="#FFFFF7"/>
<path d="M22.6172 47.6855L22.8228 47.7886L22.6172 47.6855ZM55.6474 47.6855L55.853 47.7886L55.6474 47.6855Z" fill="#A5A5A5"/>
<path d="M56.0586 47.583V47.8917H57.6021L56.0586 47.583Z" fill="#A5A5A5"/>
<path d="M61.6152 47.583L61.9239 47.8917L61.6152 47.583Z" fill="#FFFFF7"/>
<path d="M2.6543 47.8916L2.96299 48.2003L2.6543 47.8916Z" fill="#A5A5A5"/>
<path d="M6.05078 47.8916L6.35948 48.2003L6.05078 47.8916Z" fill="#FFFFF7"/>
<path d="M35.377 47.8916L35.6856 48.2003L35.377 47.8916ZM38.6698 47.9944L38.8754 48.0975L38.6698 47.9944ZM39.9046 47.9944L40.1102 48.0975L39.9046 47.9944ZM57.5001 47.9944L57.7057 48.0975L57.5001 47.9944Z" fill="#A5A5A5"/>
<path d="M57.9105 47.8916V48.2003H58.8366L57.9105 47.8916ZM61.7176 48.0975L61.8207 48.3031L61.7176 48.0975ZM2.6543 48.2003L2.96299 48.509L2.6543 48.2003ZM6.35862 48.2003L7.2847 49.1264L6.35862 48.2003ZM19.9412 48.2003L20.2498 48.509L19.9412 48.2003Z" fill="#A5A5A5"/>
<path d="M31.9805 48.2002V48.5089H34.45L31.9805 48.2002Z" fill="#A5A5A5"/>
<path d="M34.4502 48.2002L34.7589 48.5089L34.4502 48.2002Z" fill="#FFFFF7"/>
<path d="M34.7598 48.2002V48.5089H36.3032L34.7598 48.2002Z" fill="#A5A5A5"/>
<path d="M36.3027 48.2002L36.6114 48.5089L36.3027 48.2002Z" fill="#A5A5A5"/>
<path d="M36.8174 48.3027L37.023 48.4058L36.8174 48.3027Z" fill="#A5A5A5"/>
<path d="M37.2285 48.2002L37.5372 48.5089L37.2285 48.2002Z" fill="#A5A5A5"/>
<path d="M37.5371 48.2002V48.5089H39.698L37.5371 48.2002ZM40.3154 48.2002V48.5089H41.5501L40.3154 48.2002Z" fill="#A5A5A5"/>
<path d="M41.5508 48.2002V48.5089H45.2551L41.5508 48.2002ZM58.8376 48.2002L59.1463 48.5089L58.8376 48.2002Z" fill="#A5A5A5"/>
<path d="M59.1455 48.2002L59.4542 48.5089L59.1455 48.2002Z" fill="#FFFFF7"/>
<path d="M59.6607 48.3027L59.8663 48.4058L59.6607 48.3027ZM2.96387 48.5086L3.27256 48.8173L2.96387 48.5086Z" fill="#A5A5A5"/>
<path d="M6.35938 48.5088L6.66807 48.8175L6.35938 48.5088Z" fill="#A5A5A5"/>
<path d="M18.9131 48.6113L19.1187 48.7144L18.9131 48.6113Z" fill="#A5A5A5"/>
<path d="M19.5303 48.6116L19.7359 48.7147L19.5303 48.6116ZM29.2026 48.5088V48.8175H30.4374L29.2026 48.5088Z" fill="#A5A5A5"/>
<path d="M30.4375 48.5088V48.8175H31.981L30.4375 48.5088ZM43.7113 48.5088L44.02 48.8175L43.7113 48.5088ZM45.5635 48.5088V48.8175H46.4896L45.5635 48.5088Z" fill="#A5A5A5"/>
<path d="M46.4893 48.5088V48.8175H47.4153L46.4893 48.5088ZM59.969 48.6116L60.1746 48.7147L59.969 48.6116Z" fill="#A5A5A5"/>
<path d="M60.5869 48.6113L60.7925 48.7144L60.5869 48.6113Z" fill="#A5A5A5"/>
<path d="M61.6152 48.5088L61.9239 48.8175L61.6152 48.5088Z" fill="#A5A5A5"/>
<path d="M64.7023 48.5088L65.011 48.8175L64.7023 48.5088ZM3.375 49.0234L3.47811 49.229L3.375 49.0234Z" fill="#A5A5A5"/>
<path d="M3.58105 48.8174V49.7435H3.88975L3.58105 48.8174ZM6.66799 48.8174L6.97669 49.1261L6.66799 48.8174Z" fill="#A5A5A5"/>
<path d="M17.9863 48.9199L18.1919 49.023L17.9863 48.9199Z" fill="#A5A5A5"/>
<path d="M18.3984 48.8174L18.7071 49.1261L18.3984 48.8174ZM28.2766 48.8174L28.5853 49.1261L28.2766 48.8174Z" fill="#A5A5A5"/>
<path d="M28.791 48.9202L28.9966 49.0233L28.791 48.9202ZM47.4154 48.8174L47.7241 49.1261L47.4154 48.8174ZM48.0328 48.8174L48.3415 49.1261L48.0328 48.8174Z" fill="#A5A5A5"/>
<path d="M61.2039 48.9202L61.4095 49.0233L61.2039 48.9202ZM64.7023 48.8174L65.011 49.1261L64.7023 48.8174ZM6.97656 49.1261L7.28526 49.4348L6.97656 49.1261Z" fill="#A5A5A5"/>
<path d="M17.1641 49.127L17.4728 49.4356L17.1641 49.127Z" fill="#A5A5A5"/>
<path d="M17.4727 49.127L17.7814 49.4356L17.4727 49.127ZM27.0422 49.127L27.3509 49.4356L27.0422 49.127Z" fill="#A5A5A5"/>
<path d="M27.3506 49.127L27.6593 49.4356L27.3506 49.127Z" fill="#FFFFF7"/>
<path d="M27.6592 49.127L27.9679 49.4356L27.6592 49.127ZM48.3417 49.127V49.4356H49.5764L48.3417 49.127Z" fill="#A5A5A5"/>
<path d="M49.5762 49.127L49.8849 49.4356L49.5762 49.127Z" fill="#A5A5A5"/>
<path d="M64.7021 49.127L65.0108 49.4356L64.7021 49.127Z" fill="#FFFFF7"/>
<path d="M7.28516 49.4355L7.59385 49.7442L7.28516 49.4355ZM15.9286 49.4355L16.2373 49.7442L15.9286 49.4355Z" fill="#A5A5A5"/>
<path d="M16.2373 49.4355V49.7442H17.1634L16.2373 49.4355ZM25.8068 49.4355L26.1155 49.7442L25.8068 49.4355Z" fill="#A5A5A5"/>
<path d="M26.1162 49.4355L26.4249 49.7442L26.1162 49.4355Z" fill="#A5A5A5"/>
<path d="M26.4238 49.4355L26.7325 49.7442L26.4238 49.4355Z" fill="#A5A5A5"/>
<path d="M26.9385 49.5383L27.1441 49.6414L26.9385 49.5383ZM50.502 49.4355L50.8107 49.7442L50.502 49.4355Z" fill="#A5A5A5"/>
<path d="M50.8115 49.4355L51.1202 49.7442L50.8115 49.4355Z" fill="#FFFFF7"/>
<path d="M51.1201 49.4355L51.4288 49.7442L51.1201 49.4355Z" fill="#A5A5A5"/>
<path d="M64.8057 49.6406L64.9088 49.8462L64.8057 49.6406Z" fill="#A5A5A5"/>
<path d="M3.89062 49.7441L4.19932 50.0528L3.89062 49.7441Z" fill="#A5A5A5"/>
<path d="M7.59375 49.7441L8.51983 50.6702L7.59375 49.7441ZM14.6937 49.7441V50.0528H15.6198L14.6937 49.7441Z" fill="#A5A5A5"/>
<path d="M15.6201 49.7441L15.9288 50.0528L15.6201 49.7441ZM22.7201 49.7441L22.1027 50.0528V50.3615L22.7201 49.7441ZM23.9549 49.7441V50.0528H25.1896L23.9549 49.7441Z" fill="#A5A5A5"/>
<path d="M25.1895 49.7441V50.0528H26.1155L25.1895 49.7441ZM52.0458 49.7441L52.3545 50.0528L52.0458 49.7441Z" fill="#A5A5A5"/>
<path d="M52.5605 49.8457L52.7661 49.9488L52.5605 49.8457Z" fill="#A5A5A5"/>
<path d="M3.89062 50.0527L4.19932 50.3614L3.89062 50.0527Z" fill="#A5A5A5"/>
<path d="M7.59375 50.0527L7.90244 50.3614L7.59375 50.0527Z" fill="#A5A5A5"/>
<path d="M13.9736 50.1553L14.1792 50.2584L13.9736 50.1553Z" fill="#A5A5A5"/>
<path d="M14.3857 50.0527L14.6944 50.3614L14.3857 50.0527Z" fill="#A5A5A5"/>
<path d="M22.9258 50.1555L23.1314 50.2586L22.9258 50.1555ZM53.898 50.0527V50.3614H54.824L53.898 50.0527Z" fill="#A5A5A5"/>
<path d="M54.824 50.0527L55.1327 50.3614L54.824 50.0527ZM55.7501 50.0527L56.0588 50.3614L55.7501 50.0527ZM64.3935 50.0527L63.4675 51.2875L64.3935 50.0527ZM4.19824 50.3614L4.50694 50.6701L4.19824 50.3614ZM7.90257 50.3614L8.21126 50.6701L7.90257 50.3614Z" fill="#A5A5A5"/>
<path d="M12.2246 50.3613L12.5333 50.67L12.2246 50.3613Z" fill="#A5A5A5"/>
<path d="M12.5332 50.3613V50.67H14.0767L12.5332 50.3613Z" fill="#A5A5A5"/>
<path d="M21.1768 50.3613L21.4855 50.67L21.1768 50.3613Z" fill="#FFFFF7"/>
<path d="M21.6914 50.4641L21.897 50.5672L21.6914 50.4641ZM55.339 50.4641L55.5446 50.5672L55.339 50.4641ZM56.0592 50.3613V50.67H56.9853L56.0592 50.3613Z" fill="#A5A5A5"/>
<path d="M57.1914 50.4639L57.397 50.567L57.1914 50.4639Z" fill="#A5A5A5"/>
<path d="M64.3936 50.3613L64.7022 50.67L64.3936 50.3613Z" fill="#A5A5A5"/>
<path d="M4.50684 50.6699L4.81553 50.9786L4.50684 50.6699Z" fill="#A5A5A5"/>
<path d="M8.51953 50.6699L8.82823 50.9786L8.51953 50.6699ZM11.195 50.7727L11.4006 50.8758L11.195 50.7727Z" fill="#A5A5A5"/>
<path d="M11.6074 50.6699L11.9161 50.9786L11.6074 50.6699Z" fill="#FFFFF7"/>
<path d="M11.916 50.6699L12.2247 50.9786L11.916 50.6699Z" fill="#A5A5A5"/>
<path d="M20.5596 50.6699L20.8683 50.9786L20.5596 50.6699ZM58.1174 50.7727L58.323 50.8758L58.1174 50.7727Z" fill="#A5A5A5"/>
<path d="M58.7344 50.7725L58.94 50.8756L58.7344 50.7725Z" fill="#A5A5A5"/>
<path d="M64.0859 50.6699L64.3946 50.9786L64.0859 50.6699Z" fill="#A5A5A5"/>
<path d="M4.81543 50.9785L5.12412 51.2872L4.81543 50.9785Z" fill="#FFFFF7"/>
<path d="M8.51953 50.9785L8.82823 51.2872L8.51953 50.9785Z" fill="#A5A5A5"/>
<path d="M9.96094 51.082L10.1665 51.1851L9.96094 51.082Z" fill="#A5A5A5"/>
<path d="M10.3721 50.9785L10.6808 51.2872L10.3721 50.9785ZM18.7068 50.9785V51.9046H19.0155L18.7068 50.9785ZM20.2503 50.9785L20.559 51.2872L20.2503 50.9785Z" fill="#A5A5A5"/>
<path d="M59.4551 50.9785V51.2872L60.6899 51.5959V51.2872L59.4551 50.9785Z" fill="#A5A5A5"/>
<path d="M59.7637 50.9785L60.0724 51.2872L59.7637 50.9785Z" fill="#A5A5A5"/>
<path d="M63.7768 50.9785L64.0855 51.2872L63.7768 50.9785ZM5.125 51.2872L5.43369 51.5959L5.125 51.2872Z" fill="#A5A5A5"/>
<path d="M8.8291 51.2871V51.5958H9.75518L8.8291 51.2871ZM10.0639 51.2871L10.3726 51.5958L10.0639 51.2871ZM17.6784 51.3899L17.884 51.493L17.6784 51.3899Z" fill="#A5A5A5"/>
<path d="M18.2959 51.3899L18.5015 51.493L18.2959 51.3899ZM20.2509 51.2871V52.2132H20.5595L20.2509 51.2871Z" fill="#A5A5A5"/>
<path d="M60.6895 51.2871V51.5958H63.159L60.6895 51.2871Z" fill="#A5A5A5"/>
<path d="M63.3652 51.3896L63.5708 51.4927L63.3652 51.3896ZM5.43359 51.5955L5.74229 51.9042L5.43359 51.5955Z" fill="#A5A5A5"/>
<path d="M16.752 51.6982L16.9575 51.8013L16.752 51.6982Z" fill="#A5A5A5"/>
<path d="M17.1641 51.5957L17.4728 51.9044L17.1641 51.5957Z" fill="#A5A5A5"/>
<path d="M15.9287 52.2131C16.1223 56.6617 15.7203 61.5338 17.1635 65.7956H17.4722L18.707 51.5957L15.9287 52.2131Z" fill="#010101"/>
<path d="M19.9414 51.5957L20.2501 51.9044L19.9414 51.5957Z" fill="#A5A5A5"/>
<path d="M5.74121 51.9043L6.0499 52.213L5.74121 51.9043Z" fill="#A5A5A5"/>
<path d="M15.9287 51.9043L16.2374 52.213L15.9287 51.9043Z" fill="#A5A5A5"/>
<path d="M16.4436 52.0078L16.6492 52.1109L16.4436 52.0078ZM6.05078 52.2137L6.35948 52.5224L6.05078 52.2137Z" fill="#A5A5A5"/>
<path d="M15.6202 52.2139L15.9289 52.5226L15.6202 52.2139ZM6.35938 52.5226L6.66807 52.8313L6.35938 52.5226Z" fill="#A5A5A5"/>
<path d="M20.251 52.5215L20.5597 52.8302L20.251 52.5215Z" fill="#A5A5A5"/>
<path d="M6.66797 52.8301L6.97666 53.1388L6.66797 52.8301ZM9.75491 52.8301L10.0636 53.1388L9.75491 52.8301ZM13.6651 52.9329L13.8707 53.036L13.6651 52.9329Z" fill="#A5A5A5"/>
<path d="M14.0762 52.8301L14.3849 53.1388L14.0762 52.8301Z" fill="#A5A5A5"/>
<path d="M14.3857 52.8301V53.7562H14.6944L14.3857 52.8301Z" fill="#A5A5A5"/>
<path d="M18.501 53.0361L18.6041 53.2417L18.501 53.0361Z" fill="#A5A5A5"/>
<path d="M19.9414 52.8301L20.2501 53.1388L19.9414 52.8301Z" fill="#A5A5A5"/>
<path d="M6.97656 53.1396L7.28526 53.4483L6.97656 53.1396Z" fill="#A5A5A5"/>
<path d="M10.6816 53.1396L10.9903 53.4483L10.6816 53.1396ZM12.7397 53.2424L12.9453 53.3455L12.7397 53.2424Z" fill="#A5A5A5"/>
<path d="M13.1504 53.1396L13.4591 53.4483L13.1504 53.1396Z" fill="#A5A5A5"/>
<path d="M15.6201 53.1396L15.9288 53.4483L15.6201 53.1396Z" fill="#A5A5A5"/>
<path d="M20.251 53.1396V54.3744H20.5597L20.251 53.1396Z" fill="#A5A5A5"/>
<path d="M7.59375 53.4482L7.90244 53.7569L7.59375 53.4482Z" fill="#FFFFF7"/>
<path d="M7.90332 53.4482L8.21201 53.7569L7.90332 53.4482ZM11.9163 53.4482L12.225 53.7569L11.9163 53.4482Z" fill="#A5A5A5"/>
<path d="M12.224 53.4482L12.5327 53.7569L12.224 53.4482ZM15.9283 53.4482L16.237 53.7569L15.9283 53.4482ZM8.21094 53.7569L8.51963 54.0656L8.21094 53.7569Z" fill="#A5A5A5"/>
<path d="M8.51953 53.7568V54.0655H9.44561L8.51953 53.7568ZM10.063 53.7568L10.3717 54.0655L10.063 53.7568ZM10.9891 53.7568L11.2978 54.0655L10.9891 53.7568Z" fill="#A5A5A5"/>
<path d="M11.5044 53.8596L11.7099 53.9627L11.5044 53.8596ZM18.3984 53.7568L18.7071 54.0655L18.3984 53.7568ZM9.44629 54.0655V54.3742H10.9898L9.44629 54.0655ZM14.1795 54.2714L14.2826 54.477L14.1795 54.2714ZM16.0317 54.2714L16.1348 54.477L16.0317 54.2714Z" fill="#A5A5A5"/>
<path d="M18.8096 54.2705L18.9127 54.4761L18.8096 54.2705Z" fill="#A5A5A5"/>
<path d="M20.251 54.374L20.5597 54.6827L20.251 54.374Z" fill="#FFFFF7"/>
<path d="M14.0762 54.6826L14.3849 54.9913L14.0762 54.6826Z" fill="#A5A5A5"/>
<path d="M18.3984 54.6826L18.7071 54.9913L18.3984 54.6826Z" fill="#A5A5A5"/>
<path d="M20.0449 54.8887L20.148 55.0943L20.0449 54.8887Z" fill="#A5A5A5"/>
<path d="M20.25 54.6826V55.6087H20.5587L20.25 54.6826ZM14.0762 54.9913V56.2261H14.3849L14.0762 54.9913ZM15.9283 54.9913V56.8435H16.237L15.9283 54.9913Z" fill="#A5A5A5"/>
<path d="M14.3857 55.3008L14.6944 55.6095L14.3857 55.3008ZM14.6944 55.6095L15.0031 55.9182L14.6944 55.6095ZM15.6205 55.6095L15.9292 55.9182L15.6205 55.6095ZM19.0161 55.9182L19.3248 56.2269L19.0161 55.9182Z" fill="#A5A5A5"/>
<path d="M19.3242 55.918L19.6329 56.2267L19.3242 55.918Z" fill="#FFFFF7"/>
<path d="M20.251 55.918L20.5597 56.2267L20.251 55.918Z" fill="#A5A5A5"/>
<path d="M14.0762 56.2266L14.3849 56.5353L14.0762 56.2266Z" fill="#FFFFF7"/>
<path d="M18.501 56.4326L18.6041 56.6382L18.501 56.4326Z" fill="#A5A5A5"/>
<path d="M19.9414 56.2266V57.77H20.25L19.9414 56.2266ZM14.0762 56.5353V58.6961H14.3849L14.0762 56.5353ZM15.6196 56.5353L15.9283 56.844L15.6196 56.5353Z" fill="#A5A5A5"/>
<path d="M18.7071 56.8438L18.3984 57.4611L18.7071 56.8438Z" fill="#A5A5A5"/>
<path d="M18.707 57.1523L19.0157 57.461L18.707 57.1523Z" fill="#A5A5A5"/>
<path d="M19.9415 57.1523L20.2501 57.461L19.9415 57.1523ZM13.7676 57.461L14.0763 57.7697L13.7676 57.461ZM15.9284 57.461V58.3871H16.2371L15.9284 57.461Z" fill="#A5A5A5"/>
<path d="M18.3984 57.4609L18.7071 57.7696L18.3984 57.4609Z" fill="#A5A5A5"/>
<path d="M18.501 57.9754L18.6041 58.181L18.501 57.9754ZM19.9417 57.7695L19.633 59.0043H19.9417V57.7695Z" fill="#A5A5A5"/>
<path d="M15.9287 58.3867L16.2374 58.6954L15.9287 58.3867ZM18.5011 58.5926L18.6042 58.7982L18.5011 58.5926ZM19.633 58.3867L19.9417 58.6954L19.633 58.3867Z" fill="#A5A5A5"/>
<path d="M14.0762 58.6953V60.2388H14.3849L14.0762 58.6953Z" fill="#A5A5A5"/>
<path d="M15.9287 58.6953L16.2374 59.004L15.9287 58.6953Z" fill="#FFFFF7"/>
<path d="M19.3242 58.6953L19.6329 59.004L19.3242 58.6953Z" fill="#A5A5A5"/>
<path d="M15.9287 59.0049V60.2397H16.2374L15.9287 59.0049ZM18.0896 59.0049V60.2397H18.3983L18.0896 59.0049ZM19.9417 59.0049L20.2504 59.3136L19.9417 59.0049Z" fill="#A5A5A5"/>
<path d="M14.9003 59.416L15.1059 59.5191L14.9003 59.416ZM15.6205 59.6219L15.9292 59.9306L15.6205 59.6219ZM19.7363 60.1365L19.8394 60.3421L19.7363 60.1365ZM14.3857 60.2393L14.6944 60.548L14.3857 60.2393ZM15.9292 60.2393V62.0915H16.2379L15.9292 60.2393ZM18.0901 60.2393L18.3988 60.548L18.0901 60.2393Z" fill="#A5A5A5"/>
<path d="M14.4883 60.7547L14.5914 60.9603L14.4883 60.7547ZM17.8839 60.7547L17.987 60.9603L17.8839 60.7547ZM19.6333 60.5488V61.4749H19.942L19.6333 60.5488Z" fill="#A5A5A5"/>
<path d="M19.3247 60.8574L19.6334 61.1661L19.3247 60.8574ZM14.6943 61.4748V62.4009H15.003L14.6943 61.4748Z" fill="#A5A5A5"/>
<path d="M17.7812 61.4736L18.0899 61.7823L17.7812 61.4736Z" fill="#A5A5A5"/>
<path d="M19.3242 61.4736V64.2519H19.6329L19.3242 61.4736Z" fill="#A5A5A5"/>
<path d="M17.7813 62.0918V63.944H18.09L17.7813 62.0918ZM19.6334 62.0918V63.0179H19.9421L19.6334 62.0918ZM14.6943 62.4005L15.003 62.7092L14.6943 62.4005ZM16.3406 62.6064L16.4437 62.812L16.3406 62.6064Z" fill="#A5A5A5"/>
<path d="M14.6943 62.709L15.003 63.0177L14.6943 62.709Z" fill="#FFFFF7"/>
<path d="M14.6943 63.0176L15.003 64.561H15.3117L14.6943 63.0176Z" fill="#A5A5A5"/>
<path d="M16.2373 63.0176L16.546 63.3263L16.2373 63.0176Z" fill="#FFFFF7"/>
<path d="M18.0898 63.0176V63.635L18.7072 63.0176H18.0898Z" fill="#A5A5A5"/>
<path d="M14.6943 63.3262L15.003 63.6349L14.6943 63.3262ZM16.2378 63.3262L16.5465 63.6349L16.2378 63.3262Z" fill="#A5A5A5"/>
<path d="M16.2373 63.6348L16.546 63.9435L16.2373 63.6348Z" fill="#A5A5A5"/>
<path d="M16.6484 64.1494L16.7515 64.355L16.6484 64.1494Z" fill="#A5A5A5"/>
<path d="M17.7812 63.9434L18.0899 64.2521L17.7812 63.9434Z" fill="#A5A5A5"/>
<path d="M17.4727 64.252L17.7814 64.5606L17.4727 64.252ZM19.3248 64.252L19.6335 64.5606L19.3248 64.252Z" fill="#A5A5A5"/>
<path d="M15.0029 64.5615L15.3116 64.8702L15.0029 64.5615Z" fill="#FFFFF7"/>
<path d="M16.6484 64.7674L16.7515 64.973L16.6484 64.7674ZM17.4717 64.5615V65.7963H17.7804L17.4717 64.5615Z" fill="#A5A5A5"/>
<path d="M15.0029 64.8701L15.3116 65.1788L15.0029 64.8701Z" fill="#A5A5A5"/>
<path d="M18.7062 64.8701L19.3236 65.4875V64.8701H18.7062ZM15.3105 65.1788V66.1049H15.6192L15.3105 65.1788ZM16.5453 65.4875L17.1627 66.1049L16.5453 65.4875Z" fill="#A5A5A5"/>
<path d="M16.8545 65.4873L17.1632 65.796L16.8545 65.4873ZM19.0153 65.4873V66.4134H19.324L19.0153 65.4873ZM17.1632 65.796L17.4719 66.1047L17.1632 65.796Z" fill="#A5A5A5"/>
<path d="M17.781 65.7959L18.0897 66.1046L17.781 65.7959ZM15.6201 66.1046L15.9288 66.4133L15.6201 66.1046Z" fill="#A5A5A5"/>
<path d="M15.6201 66.4141L15.9288 66.7228L15.6201 66.4141Z" fill="#FFFFF7"/>
<path d="M17.7812 66.4141L18.7073 67.0315V66.7228L17.7812 66.4141Z" fill="#A5A5A5"/>
<path d="M18.707 66.4141L19.0157 66.7228L18.707 66.4141Z" fill="#A5A5A5"/>
<path d="M16.2373 66.7217L16.546 67.0304L16.2373 66.7217Z" fill="#A5A5A5"/>
<path d="M17.7809 66.7217L18.0896 67.0304L17.7809 66.7217ZM15.9287 67.0304L16.2374 67.3391L15.9287 67.0304Z" fill="#FFFFF7"/>
<path d="M18.3984 67.0303L18.7071 67.339L18.3984 67.0303Z" fill="#A5A5A5"/>
<path d="M16.2373 67.3389L16.8547 67.9563L16.2373 67.3389ZM18.0895 67.3389L18.3982 67.6476L18.0895 67.3389Z" fill="#A5A5A5"/>
<path d="M16.2373 67.6484L16.546 67.9571L16.2373 67.6484Z" fill="#A5A5A5"/>
<path d="M17.4727 67.6484L17.7814 67.9571L17.4727 67.6484Z" fill="#A5A5A5"/>
<path d="M17.7812 67.6484L18.0899 67.9571L17.7812 67.6484Z" fill="#FFFFF7"/>
<path d="M18.0898 67.6484L18.3985 67.9571L18.0898 67.6484Z" fill="#A5A5A5"/>
</svg>
