<svg width="58" height="16" viewBox="0 0 58 16" fill="none" xmlns="http://www.w3.org/2000/svg">
<path d="M0.17615 10.3751C0.0811502 13.1301 1.56315 15.2961 5.24915 15.2961C8.97315 15.2961 10.1511 13.0351 10.1511 10.7931C10.1511 9.1591 9.48615 7.9431 6.86415 6.7651C4.33715 5.6251 3.95715 5.4541 3.95715 4.8081C3.95715 4.1431 4.56515 3.7061 5.19215 3.7061C6.29415 3.7061 6.40815 4.5991 6.48415 5.0741H10.0372C9.98015 1.6921 7.24415 0.704102 5.30615 0.704102C2.95015 0.704102 0.38515 2.2051 0.38515 5.0361C0.38515 7.6771 2.83615 8.6651 3.82415 9.0641C5.99015 9.9761 6.57915 10.2041 6.57915 10.9451C6.57915 11.5911 6.06615 12.2941 5.21115 12.2941C4.75515 12.2941 3.74815 12.0091 3.74815 10.3751H0.17615Z" fill="#FFFFF7"/>
<path d="M15.2858 0.970102V15.0301H18.8768V10.6221H20.2828C22.4678 10.6221 23.4178 10.2231 24.3868 9.4061C25.2798 8.6461 25.8688 7.1451 25.8688 5.7201C25.8688 4.2951 25.3178 2.9081 24.2158 1.9961C23.4558 1.3691 22.4868 0.970102 19.8838 0.970102H15.2858ZM18.8768 4.1241H20.0548C20.4538 4.1241 21.0428 4.1241 21.5368 4.3331C22.0308 4.5421 22.4298 4.9411 22.4298 5.7771C22.4298 6.6131 22.0498 7.0501 21.5748 7.2591C21.0998 7.4681 20.5298 7.4681 20.1878 7.4681H18.8768V4.1241Z" fill="#FFFFF7"/>
<path d="M30.1769 8.1711C30.1769 11.7811 33.1409 15.2961 37.5679 15.2961C41.9379 15.2961 45.0159 11.9141 45.0159 8.0001C45.0159 4.0861 41.9189 0.704102 37.5869 0.704102C33.7109 0.704102 30.1769 3.5541 30.1769 8.1521V8.1711ZM33.7679 7.9621C33.7679 5.9861 35.1169 3.8581 37.6059 3.8581C40.1899 3.8581 41.4249 6.1951 41.4249 8.0191C41.4249 9.8241 40.1899 12.1421 37.6439 12.1421C35.2309 12.1421 33.7679 10.1281 33.7679 7.9811V7.9621Z" fill="#FFFFF7"/>
<path d="M51.4818 15.0301H55.0728V4.1241H57.8278V0.970102H48.7078V4.1241H51.4818V15.0301Z" fill="#FFFFF7"/>
</svg>
