<svg width="71" height="16" viewBox="0 0 71 16" fill="none" xmlns="http://www.w3.org/2000/svg">
<path d="M0.0970486 10.3751C0.00204864 13.1301 1.48405 15.2961 5.17005 15.2961C8.89405 15.2961 10.072 13.0351 10.072 10.7931C10.072 9.1591 9.40705 7.9431 6.78505 6.7651C4.25805 5.6251 3.87805 5.4541 3.87805 4.8081C3.87805 4.1431 4.48605 3.7061 5.11305 3.7061C6.21505 3.7061 6.32905 4.5991 6.40505 5.0741H9.95805C9.90105 1.6921 7.16505 0.704102 5.22705 0.704102C2.87105 0.704102 0.306049 2.2051 0.306049 5.0361C0.306049 7.6771 2.75705 8.6651 3.74505 9.0641C5.91105 9.9761 6.50005 10.2041 6.50005 10.9451C6.50005 11.5911 5.98705 12.2941 5.13205 12.2941C4.67605 12.2941 3.66905 12.0091 3.66905 10.3751H0.0970486Z" fill="#FFFFF7"/>
<path d="M16.8977 15.0301H20.4887V4.1241H23.2437V0.970102H14.1236V4.1241H16.8977V15.0301Z" fill="#FFFFF7"/>
<path d="M26.9249 8.1711C26.9249 11.7811 29.8889 15.2961 34.3159 15.2961C38.6859 15.2961 41.7639 11.9141 41.7639 8.0001C41.7639 4.0861 38.6669 0.704102 34.3349 0.704102C30.4589 0.704102 26.9249 3.5541 26.9249 8.1521V8.1711ZM30.5159 7.9621C30.5159 5.9861 31.8649 3.8581 34.3539 3.8581C36.9379 3.8581 38.1729 6.1951 38.1729 8.0191C38.1729 9.8241 36.9379 12.1421 34.3919 12.1421C31.9789 12.1421 30.5159 10.1281 30.5159 7.9811V7.9621Z" fill="#FFFFF7"/>
<path d="M47.114 15.0301H50.705V4.1241H52.035C52.529 4.1241 53.099 4.2571 53.498 4.5041C53.973 4.8081 54.334 5.3971 54.334 6.1381C54.334 6.9171 53.973 7.5821 53.536 7.8671C53.061 8.1711 52.282 8.2471 51.37 8.2471H50.781L54.448 15.0301H58.153L55.246 9.8621C55.911 9.5771 56.595 9.1021 57.07 8.3611C57.469 7.7341 57.773 6.8981 57.773 5.8151C57.773 4.2761 57.241 2.8891 56.063 1.9771C55.284 1.3691 53.916 0.970102 51.712 0.970102H47.114V15.0301Z" fill="#FFFFF7"/>
<path d="M62.9471 15.0301H70.9081V11.8761H66.5381V9.4631H70.7751V6.3091H66.5381V4.1241H70.9081V0.970102H62.9471V15.0301Z" fill="#FFFFF7"/>
</svg>
