<svg width="96" height="16" viewBox="0 0 96 16" fill="none" xmlns="http://www.w3.org/2000/svg">
<path d="M0.478885 10.3751C0.383885 13.1301 1.86588 15.2961 5.55189 15.2961C9.27589 15.2961 10.4539 13.0351 10.4539 10.7931C10.4539 9.1591 9.78889 7.9431 7.16688 6.7651C4.63988 5.6251 4.25988 5.4541 4.25988 4.8081C4.25988 4.1431 4.86789 3.7061 5.49488 3.7061C6.59688 3.7061 6.71089 4.5991 6.78689 5.0741H10.3399C10.2829 1.6921 7.54689 0.704102 5.60889 0.704102C3.25289 0.704102 0.687885 2.2051 0.687885 5.0361C0.687885 7.6771 3.13888 8.6651 4.12688 9.0641C6.29288 9.9761 6.88189 10.2041 6.88189 10.9451C6.88189 11.5911 6.36889 12.2941 5.51389 12.2941C5.05788 12.2941 4.05088 12.0091 4.05088 10.3751H0.478885Z" fill="#FFFFF7"/>
<path d="M17.2795 15.0301H20.8705V4.1241H23.6255V0.970102H14.5055V4.1241H17.2795V15.0301Z" fill="#FFFFF7"/>
<path d="M27.3067 8.1711C27.3067 11.7811 30.2707 15.2961 34.6977 15.2961C39.0677 15.2961 42.1457 11.9141 42.1457 8.0001C42.1457 4.0861 39.0487 0.704102 34.7167 0.704102C30.8407 0.704102 27.3067 3.5541 27.3067 8.1521V8.1711ZM30.8977 7.9621C30.8977 5.9861 32.2467 3.8581 34.7357 3.8581C37.3197 3.8581 38.5547 6.1951 38.5547 8.0191C38.5547 9.8241 37.3197 12.1421 34.7737 12.1421C32.3607 12.1421 30.8977 10.1281 30.8977 7.9811V7.9621Z" fill="#FFFFF7"/>
<path d="M47.4959 15.0301H51.0869V4.1241H52.4169C52.9109 4.1241 53.4809 4.2571 53.8799 4.5041C54.3549 4.8081 54.7159 5.3971 54.7159 6.1381C54.7159 6.9171 54.3549 7.5821 53.9179 7.8671C53.4429 8.1711 52.6639 8.2471 51.7519 8.2471H51.1629L54.8299 15.0301H58.5349L55.6279 9.8621C56.2929 9.5771 56.9769 9.1021 57.4519 8.3611C57.8509 7.7341 58.1549 6.8981 58.1549 5.8151C58.1549 4.2761 57.6229 2.8891 56.4449 1.9771C55.6659 1.3691 54.2979 0.970102 52.0939 0.970102H47.4959V15.0301Z" fill="#FFFFF7"/>
<path d="M63.329 15.0301H66.92V0.970102H63.329V15.0301Z" fill="#FFFFF7"/>
<path d="M72.8906 15.0301H80.8516V11.8761H76.4816V9.4631H80.7186V6.3091H76.4816V4.1241H80.8516V0.970102H72.8906V15.0301Z" fill="#FFFFF7"/>
<path d="M85.5506 10.3751C85.4556 13.1301 86.9377 15.2961 90.6236 15.2961C94.3476 15.2961 95.5256 13.0351 95.5256 10.7931C95.5256 9.1591 94.8606 7.9431 92.2386 6.7651C89.7116 5.6251 89.3316 5.4541 89.3316 4.8081C89.3316 4.1431 89.9396 3.7061 90.5666 3.7061C91.6686 3.7061 91.7826 4.5991 91.8586 5.0741H95.4116C95.3546 1.6921 92.6187 0.704102 90.6806 0.704102C88.3246 0.704102 85.7596 2.2051 85.7596 5.0361C85.7596 7.6771 88.2106 8.6651 89.1986 9.0641C91.3646 9.9761 91.9536 10.2041 91.9536 10.9451C91.9536 11.5911 91.4407 12.2941 90.5856 12.2941C90.1296 12.2941 89.1226 12.0091 89.1226 10.3751H85.5506Z" fill="#FFFFF7"/>
</svg>
