<svg width="43" height="44" viewBox="0 0 43 44" fill="none" xmlns="http://www.w3.org/2000/svg">
<path d="M23.3477 2.40625C23.3477 1.46875 22.5664 0.6875 21.6289 0.6875C20.7109 0.6875 19.9297 1.46875 19.9297 2.40625V6.50781C19.9297 7.42578 20.7109 8.20703 21.6289 8.20703C22.5664 8.20703 23.3477 7.42578 23.3477 6.50781V2.40625ZM31.2773 9.84766C30.6328 10.5117 30.6328 11.5859 31.2773 12.25C31.9414 12.8945 33.0352 12.9141 33.6992 12.25L36.6094 9.33984C37.2734 8.67578 37.2734 7.5625 36.6094 6.91797C35.9648 6.25391 34.8711 6.25391 34.2266 6.91797L31.2773 9.84766ZM9.55859 12.25C10.2227 12.8945 11.3164 12.8945 11.9609 12.25C12.625 11.625 12.625 10.4922 11.9805 9.84766L9.07031 6.91797C8.44531 6.27344 7.33203 6.25391 6.66797 6.91797C6.02344 7.5625 6.02344 8.67578 6.64844 9.32031L9.55859 12.25ZM21.6289 31.8594C27.0586 31.8594 31.5703 27.3477 31.5703 21.8984C31.5703 16.4297 27.0586 11.918 21.6289 11.918C16.1797 11.918 11.668 16.4297 11.668 21.8984C11.668 27.3477 16.1797 31.8594 21.6289 31.8594ZM21.6289 28.8711C17.8008 28.8711 14.6367 25.707 14.6367 21.8984C14.6367 18.0703 17.8008 14.9062 21.6289 14.9062C25.4375 14.9062 28.6016 18.0703 28.6016 21.8984C28.6016 25.707 25.4375 28.8711 21.6289 28.8711ZM41.0625 23.5977C42 23.5977 42.7812 22.8164 42.7812 21.8984C42.7812 20.9805 42 20.1992 41.0625 20.1992H36.9805C36.0625 20.1992 35.2812 20.9805 35.2812 21.8984C35.2812 22.8164 36.0625 23.5977 36.9805 23.5977H41.0625ZM2.19531 20.1992C1.27734 20.1992 0.496094 20.9805 0.496094 21.8984C0.496094 22.8164 1.27734 23.5977 2.19531 23.5977H6.27734C7.21484 23.5977 7.99609 22.8164 7.99609 21.8984C7.99609 20.9805 7.21484 20.1992 6.27734 20.1992H2.19531ZM33.6797 31.5664C33.0352 30.9023 31.9414 30.9023 31.2773 31.5664C30.6328 32.2109 30.6328 33.3047 31.2773 33.9688L34.2266 36.8984C34.8711 37.543 35.9648 37.5234 36.6094 36.8789C37.2734 36.2148 37.2734 35.1211 36.6094 34.4766L33.6797 31.5664ZM6.64844 34.457C6.00391 35.1016 6.00391 36.1953 6.62891 36.8594C7.27344 37.5039 8.38672 37.5234 9.05078 36.8789L11.9609 33.9688C12.625 33.3242 12.625 32.2305 11.9805 31.5664C11.3359 30.9219 10.2227 30.9219 9.55859 31.5664L6.64844 34.457ZM23.3477 37.2891C23.3477 36.3516 22.5664 35.5703 21.6289 35.5703C20.7109 35.5703 19.9297 36.3516 19.9297 37.2891V41.3906C19.9297 42.3086 20.7109 43.0898 21.6289 43.0898C22.5664 43.0898 23.3477 42.3086 23.3477 41.3906V37.2891Z" fill="#3CA06C"/>
</svg>
